<?xml version="1.0" encoding="utf-8"?>
<!-- Generator: Adobe Illustrator 15.1.0, SVG Export Plug-In  -->
<!DOCTYPE svg PUBLIC "-//W3C//DTD SVG 1.1//EN" "http://www.w3.org/Graphics/SVG/1.1/DTD/svg11.dtd" [
	<!ENTITY ns_flows "http://ns.adobe.com/Flows/1.0/">
]>
<svg version="1.1"
	 xmlns="http://www.w3.org/2000/svg" xmlns:xlink="http://www.w3.org/1999/xlink" xmlns:a="http://ns.adobe.com/AdobeSVGViewerExtensions/3.0/"
	 x="0px" y="0px" width="220px" height="220px" viewBox="0 0.5 220 220"
	 style="overflow:visible;enable-background:new 0 0.5 220 220;" xml:space="preserve">
<defs>
</defs>
<g>
	<defs>
		<rect id="SVGID_1_" width="220.5" height="220.5"/>
	</defs>
	<clipPath id="SVGID_2_">
		<use xlink:href="#SVGID_1_"  style="overflow:visible;"/>
	</clipPath>
</g>
<g>
	<path style="fill:#AF2024;" d="M177.935,112.979c0,29.329-17.892,88.545-40.832,100.057c-3.955,1.984-8.732-1.668-13.06-0.552
		c-4.955,1.279-2.942,3.862-13.61,4.046c-4.203,0.072-11.83-5.812-15.818-6.621c-3.333-0.677-13.231,6.897-16.37,5.702
		c-26.045-9.915-52.944-63.213-50.764-94.907c2.633-38.298,20.696-52.583,34.395-56.098c9.261-2.376,16.228,1.369,16.228,1.369
		s14.128-5.415,22.213-5.415c8.5,0,24.977,5.962,24.977,5.962s7.946-6.514,20.086-2.835
		C168.208,70.604,177.935,90.715,177.935,112.979z"/>
	<g>
		<path style="fill:#742014;" d="M175.31,112.979c-0.127,20.28-5.833,40.937-13.129,59.717c-3.712,9.552-8.333,18.901-14.417,27.176
			c-2.382,3.239-5.221,6.306-8.444,8.722c-2.009,1.505-3.962,2.658-6.578,2.253c-2.69-0.417-5.317-1.522-8.086-1.096
			c-3.041,0.469-4.785,2.279-7.5,3.319c-6.092,2.336-11.053-0.549-16.276-3.335c-3.29-1.756-6.147-3.08-9.815-1.847
			c-1.907,0.642-3.722,1.635-5.513,2.537c-1.624,0.818-4.697,3.065-6.608,2.654c-3.879-0.835-8.009-4.396-10.945-6.856
			c-4.001-3.352-7.499-7.29-10.759-11.351c-7.243-9.02-12.881-19.405-17.515-29.966c-9.622-21.929-12.674-44.856-5.152-67.933
			c5.177-15.883,19.922-34.055,38.758-29.912c2.085,0.458,4.027,1.977,6.148,1.191c4.264-1.578,8.625-2.899,13.044-3.963
			c10.027-2.414,19.645,0.631,29.178,3.768c2.09,0.688,4.197,1.272,5.132,0.567c3.449-2.605,7.866-3.456,12.093-3.422
			c12.2,0.097,23.794,9.832,29.673,19.794C173.549,93.387,175.222,103.369,175.31,112.979c0.031,3.384,5.281,3.387,5.25,0
			c-0.151-16.511-5.369-33.026-18.606-43.66c-10.286-8.262-27.048-13.741-38.517-4.654c0.852-0.225,1.703-0.45,2.555-0.675
			c-7.31-2.627-14.87-4.831-22.58-5.851c-8.548-1.131-17.795,2.263-25.699,5.188c-1.139,0.422,2.569,0.788,1.355,0.204
			c-0.542-0.261-1.107-0.476-1.664-0.7c-1.84-0.741-3.85-1.174-5.815-1.396c-4.945-0.557-9.731,0.153-14.362,1.922
			c-6.511,2.488-12.128,6.8-16.675,12.036c-13.344,15.37-17.682,39.292-15.087,58.986c2.849,21.628,12.522,43.041,25.293,60.587
			c5.365,7.371,11.637,14.161,19.218,19.284c2.604,1.76,6.209,4.154,9.47,4.091c4.031-0.077,8.281-3.208,11.792-4.875
			c4.483-2.128,8.774,1.869,12.787,3.825c4.248,2.07,8.171,2.034,12.786,1.29c2.828-0.456,4.586-2.361,7.124-3.328
			c2.704-1.029,6.002,0.437,8.723,0.858c2.337,0.362,4.42-0.102,6.485-1.185c15.179-7.962,23.334-28.283,29.048-43.299
			c7.012-18.432,12.245-38.82,12.369-58.649C180.581,109.593,175.331,109.595,175.31,112.979z"/>
	</g>
</g>
<g>
	<path style="fill:#A11D25;" d="M102.156,167.95c-32.18,0-59.143-19.356-66.352-45.397c-0.104,0.987-0.195,1.993-0.273,3.021
		c-2.061,27.136,21.461,72.904,44.417,81.513c2.767,1.038,11.54-5.405,14.479-4.812c3.518,0.711,10.228,5.785,13.939,5.742
		c9.42-0.11,7.654-2.332,12.036-3.407c3.824-0.936,8.028,2.214,11.529,0.531c19.34-9.293,34.821-55.669,36.359-81.765
		C160.746,149.003,133.998,167.95,102.156,167.95z"/>
</g>
<g>
	<path style="fill:#E05555;" d="M64.231,77.104c8.779-2.052,15.384,1.182,15.384,1.182s13.393-4.677,21.058-4.677
		c8.059,0,23.679,5.149,23.679,5.149s7.533-5.625,19.042-2.448c12.596,3.477,20.977,10.816,25.788,20.132
		c-3.765-12.416-12.451-22.494-27.175-26.76c-10.966-3.177-18.143,2.448-18.143,2.448s-14.882-5.149-22.56-5.149
		c-7.303,0-20.063,4.677-20.063,4.677s-6.292-3.234-14.658-1.182c-8.572,2.103-19.033,8.678-25.444,23.515
		C47.793,83.758,56.704,78.863,64.231,77.104z"/>
</g>
<path style="fill:#FBD0D2;" d="M122.572,86.103c0.92,2.023-8.646,5.886-19.313,5.886c-10.666,0-20.232-3.392-20.232-4.966
	c0-1.574,9.198,0.184,19.864,0.184S121.921,84.669,122.572,86.103z"/>
<path style="fill:#6CA843;stroke:#45803C;stroke-width:3;stroke-miterlimit:10;" d="M147.5,3.5
	c-19.096,0-39.544,34.112-44.741,49.073c-0.052-0.255-0.108-0.521-0.159-0.772c-1.093-5.457-2.432-17.911-6.152-22.351
	c-2.307-2.755-5.756-2.278-8.948-0.838c-5.123,2.311-2.992,4.032-0.875,7.751C94.187,49.645,99.5,64.63,99.5,80
	c0,0,4.897,3.056,6.398,1.398c1.035-1.143,0.185-7.772,0.102-9.398c-0.245-4.79-1.327-10.228-2.378-15.269
	C106.602,52.503,112.617,43.095,121,41c9.975-2.493,24.604,1.5,34.5,1.5c22.092,0,43.5-30,43.5-30S169.592,3.5,147.5,3.5z"/>
<path style="fill:#78BC48;" d="M150.5,5.75c-19.096,0-44.054,34.789-49.25,49.75c-0.052-0.255-2.449-9.499-2.5-9.75
	c-1.093-5.457-2.5-9-4.75-15c-0.846-2.256-3.098,0.125-5.25,0.5c4.09,5.568,8.052,10.959,10.523,22.804
	c2.15,10.308,3.878,19.453,2.977,26.196c1.139,0.335,1.057,0.802,1.648,0.148c1.035-1.143,0.185-7.772,0.102-9.398
	c-0.245-4.79-1.326-10.228-2.379-15.269C110.75,35.75,133.25,20.25,133.25,20.25s6.354,14,16.25,14
	c22.092,0,45.25-18.75,45.25-18.75S172.592,5.75,150.5,5.75z"/>
<g>
	<path style="fill:#45803C;" d="M111.5,38c0.417-1.66,1.315-3.192,2.372-4.558c1.06-1.375,2.3-2.593,3.58-3.749
		c2.594-2.278,5.42-4.247,8.221-6.147c1.406-0.948,2.721-1.934,4.196-2.891c1.464-0.952,2.954-1.83,4.493-2.645
		c3.083-1.605,6.337-2.9,9.706-3.855c6.77-1.702,13.683-2.391,20.596-1.895c3.509,0.221,6.853,1.01,10.165,1.872
		c1.648,0.471,3.291,0.969,4.89,1.608c0.797,0.323,1.587,0.67,2.345,1.085c0.726,0.438,1.538,0.896,1.937,1.674
		c-0.521-0.682-1.356-0.967-2.125-1.262c-0.786-0.285-1.595-0.509-2.41-0.706c-1.633-0.39-3.285-0.708-4.948-0.96
		c-1.658-0.27-3.325-0.499-4.991-0.669c-0.833-0.08-1.663-0.168-2.486-0.226c-0.814-0.063-1.628-0.066-2.471-0.077
		c-3.329,0.005-6.655,0.163-9.952,0.606c-3.278,0.416-6.626,0.976-9.757,1.842c-3.17,0.84-6.252,2.053-9.224,3.493
		c-1.489,0.71-2.957,1.495-4.371,2.334c-1.396,0.843-2.867,1.794-4.339,2.639c-2.916,1.737-5.84,3.388-8.562,5.327
		c-1.371,0.954-2.676,1.994-3.874,3.151C113.308,35.155,112.215,36.451,111.5,38z"/>
</g>
<g>
	<path style="fill:#45803C;" d="M119,29.5c1.82-1.619,4.37-2.444,6.895-2.498c2.54-0.058,5.021,0.568,7.28,1.487
		c2.27,0.924,4.35,2.151,6.298,3.505c1.945,1.372,3.764,2.847,5.527,4.505c-2.368-0.556-4.555-1.52-6.689-2.452
		c-2.129-0.952-4.196-1.933-6.268-2.781c-2.073-0.844-4.149-1.559-6.297-1.919C123.597,28.967,121.378,29.019,119,29.5z"/>
</g>
<g>
	<path style="fill:#45803C;" d="M137,19.25c1.227-0.668,2.686-0.989,4.161-0.97c1.477,0.044,2.947,0.424,4.284,1.003
		c2.689,1.17,4.91,2.922,7.057,4.478c0.542,0.403,1.052,0.761,1.621,1.154l1.662,1.213c1.084,0.813,2.139,1.612,3.215,2.355
		c1.09,0.735,2.163,1.443,3.364,1.975c0.587,0.303,1.256,0.545,1.875,0.902l0.903,0.515l0.446,0.266l0.225,0.125l0.053,0.027
		c0.014,0.015,0.002-0.025-0.017,0.054c0.008,0.011,0.001-0.003-0.006-0.009c-0.027-0.03-0.062-0.06-0.094-0.088
		c-2.13-0.028-5.414-0.433-7.915-1.715c-1.296-0.602-2.502-1.331-3.663-2.062l-1.708-1.102c-0.561-0.368-1.173-0.783-1.73-1.187
		c-2.253-1.647-4.228-3.441-6.376-4.816C142.234,19.957,139.822,19.124,137,19.25z"/>
</g>
<g>
	<path style="fill:#45803C;" d="M157,14c0.987,0.129,1.927,0.054,2.935,0.075c0.501,0.017,1.017,0.062,1.543,0.166
		c0.264,0.05,0.525,0.126,0.785,0.22c0.134,0.055,0.247,0.09,0.4,0.163l0.333,0.151c2.01,1.02,3.245,2.749,4.516,4.026
		c1.264,1.277,2.783,2.391,4.381,3.377c0.396,0.249,0.817,0.477,1.217,0.702c0.358,0.193,0.835,0.377,1.276,0.555l1.358,0.57
		l0.677,0.313l0.332,0.182c0.082,0.07,0.277,0.119,0.247,0.25c-0.007-0.094-0.197-0.083-0.297-0.107l-0.365-0.035l-0.732-0.066
		c-0.49-0.041-0.978-0.101-1.471-0.157c-0.499-0.075-0.965-0.142-1.519-0.29c-0.5-0.148-0.96-0.334-1.432-0.526
		c-1.857-0.795-3.625-1.866-5.1-3.367c-1.441-1.487-2.45-3.089-3.843-4.067c-0.731-0.527-1.513-0.835-2.456-1.094
		C158.877,14.76,157.848,14.551,157,14z"/>
</g>
<g>
	<path style="fill:#45803C;" d="M177.5,15.75c0.61-0.292,1.365-0.194,2.006-0.028c0.65,0.182,1.267,0.432,1.838,0.722
		c1.146,0.541,2.235,1.25,3.166,1.541c2.158,0.665,4.715,0.789,7.171,1.707l-0.12,0.65c-0.483-0.202-0.743-0.557-1.061-0.841
		c0.214,0.032,0.435,0.084,0.636,0.133c0.2,0.052,0.39,0.07,0.563,0.061l-0.12,0.65c-1.26,0.088-2.496,0.161-3.777,0.134
		c-1.275-0.029-2.597-0.167-3.908-0.606c-0.741-0.26-1.312-0.628-1.847-1.009c-0.537-0.374-1.028-0.769-1.502-1.169
		c-0.485-0.383-0.938-0.794-1.424-1.142C178.635,16.198,178.146,15.869,177.5,15.75z"/>
</g>
<g>
	<path style="fill:#45803C;" d="M168.75,13c0.602-0.194,1.073-0.553,1.579-0.884c0.503-0.33,0.997-0.688,1.52-1.006
		c0.514-0.338,1.055-0.642,1.622-0.932c0.569-0.295,1.17-0.551,1.895-0.713c1.13-0.258,2.362-0.521,3.623-0.639
		c0.637-0.031,1.282-0.073,1.941,0.018c0.648,0.076,1.341,0.237,1.908,0.644l0.473,0.339l-0.483,0.078
		c-0.299,0.048-0.598-0.026-0.827-0.155c0.268-0.026,0.494-0.135,0.671-0.267l-0.011,0.417c-1.131-0.083-2.245,0.284-3.377,0.594
		c-1.143,0.301-2.267,0.678-3.522,0.92c-0.965,0.194-2.11,0.685-3.265,1.057c-0.579,0.204-1.186,0.371-1.81,0.509
		C170.067,13.088,169.379,13.225,168.75,13z"/>
</g>
<g>
	<path style="fill:#45803C;" d="M147.5,15.25c-0.011-1.354,0.502-2.682,1.202-3.843c0.703-1.172,1.645-2.194,2.725-3.042
		c1.083-0.844,2.332-1.506,3.691-1.864c1.348-0.348,2.859-0.384,4.143,0.191l-0.067,0.622C158.796,7.223,158.397,7.123,158,7
		c0.397-0.123,0.796-0.223,1.193-0.314l-0.067,0.622c-1.243,0.03-2.373,0.354-3.448,0.834c-1.073,0.478-2.086,1.106-3.054,1.808
		c-0.972,0.701-1.878,1.5-2.743,2.365C149.022,13.19,148.231,14.13,147.5,15.25z"/>
</g>
<g>
	<path style="fill:#45803C;" d="M130,20.75c-0.214-0.291-0.188-0.709-0.145-1.051c0.048-0.356,0.153-0.69,0.257-1.023
		c0.236-0.649,0.522-1.271,0.853-1.854c0.649-1.174,1.419-2.267,2.198-3.284c0.755-0.996,1.487-2.068,2.462-3.068
		c0.223-0.226,0.539-0.539,0.827-0.719c0.293-0.195,0.579-0.37,0.87-0.538l0.886-0.462l0.441-0.225
		c0.127-0.078,0.346-0.136,0.351-0.275c0.094,0.174-0.083,0.345-0.142,0.494c-0.092,0.148-0.191,0.288-0.29,0.428
		c-0.198,0.277-0.415,0.531-0.617,0.794c-0.21,0.252-0.422,0.499-0.609,0.747c-0.199,0.256-0.318,0.432-0.492,0.725
		c-0.65,1.048-1.263,2.226-2.094,3.308c-0.806,1.058-1.664,2.012-2.521,2.973c-0.422,0.482-0.862,0.95-1.271,1.437
		c-0.215,0.237-0.407,0.486-0.594,0.74C130.204,20.155,130,20.406,130,20.75z"/>
</g>
<g>
	<path style="fill:#742014;" d="M82.659,74.147c3.109,1.457,6.094,2.481,9.105,3.128c1.498,0.329,2.995,0.538,4.466,0.644
		c0.762,0.043,1.407,0.067,2.252,0.061c0.751-0.011,1.553,0.002,2.33-0.03c3.133-0.085,6.27-0.289,9.381-0.656
		c3.115-0.41,6.179-0.903,9.275-2.187l0.113,0.402c-0.085-0.047-0.174-0.078-0.296-0.073c-0.122,0.003-0.264,0.014-0.393-0.001
		c0.115-0.065,0.203-0.148,0.316-0.228c0.111-0.079,0.275-0.139,0.437-0.15l0.415-0.029l-0.302,0.432
		c-1.002,1.433-2.387,2.609-3.878,3.545c-1.495,0.945-3.108,1.666-4.76,2.23c-3.308,1.128-6.757,1.641-10.208,1.704
		c-0.87,0.003-1.716,0.007-2.612-0.055c-0.801-0.056-1.803-0.127-2.674-0.305c-1.797-0.315-3.518-0.89-5.133-1.638
		C87.293,79.418,84.418,77.141,82.659,74.147z"/>
</g>
</svg>
