<?xml version="1.0" encoding="utf-8"?>
<!-- Generator: Adobe Illustrator 15.1.0, SVG Export Plug-In  -->
<!DOCTYPE svg PUBLIC "-//W3C//DTD SVG 1.1//EN" "http://www.w3.org/Graphics/SVG/1.1/DTD/svg11.dtd" [
	<!ENTITY ns_flows "http://ns.adobe.com/Flows/1.0/">
]>
<svg version="1.1"
	 xmlns="http://www.w3.org/2000/svg" xmlns:xlink="http://www.w3.org/1999/xlink" xmlns:a="http://ns.adobe.com/AdobeSVGViewerExtensions/3.0/"
	 x="0px" y="0px" width="220px" height="220px" viewBox="0 1 220 220" overflow="visible" enable-background="new 0 1 220 220"
	 xml:space="preserve">
<defs>
</defs>
<g>
	<ellipse fill="#E0E55E" cx="109.983" cy="110.929" rx="99.846" ry="102.564"/>
	<g>
		<g>
			<g>
				<path fill="#ACB537" d="M206.229,111.457c1.094-0.301,4.243-0.897,5.959-0.21c0.291,1.089-0.067,1.958-1.036,2.482
					c1.177-0.018,2.022,0.634,2.091,1.824c-0.691,0.164-0.867,0.544-1.615,0.562c1.002,0.23,0.931,0.61,1.609,1.27
					c-1.014,0.615-3.191,1.652-4.438,1.422c-2.369-0.435-2.628-2.334-0.146-2.606c-0.507-0.226-1.18-1.082-1.669-1.401
					c0.423-0.234,0.538-0.656,1.177-0.873c-0.914-0.533-1.953-1.253-1.883-2.423c0.398,0.038,0.343-0.158,0.524-0.319"/>
			</g>
			<g>
				<path fill="#ACB537" d="M205.904,119.13c1.113-0.219,4.298-0.579,5.957,0.234c0.211,1.108-0.212,1.947-1.218,2.398
					c1.174,0.069,1.972,0.783,1.948,1.976c-0.701,0.112-0.904,0.478-1.651,0.44c0.979,0.305,0.882,0.679,1.51,1.387
					c-1.061,0.538-3.307,1.408-4.534,1.084c-2.327-0.611-2.444-2.523,0.051-2.609c-0.485-0.263-1.096-1.168-1.559-1.521
					c0.441-0.203,0.586-0.615,1.238-0.782c-0.87-0.602-1.854-1.396-1.696-2.557c0.395,0.067,0.354-0.132,0.547-0.28"/>
			</g>
			<g>
				<path fill="#ACB537" d="M205.007,126.754c1.125-0.134,4.327-0.253,5.922,0.683c0.127,1.121-0.356,1.927-1.396,2.3
					c1.165,0.158,1.908,0.931,1.794,2.118c-0.707,0.059-0.937,0.408-1.682,0.313c0.952,0.378,0.83,0.744,1.401,1.498
					c-1.098,0.456-3.403,1.153-4.604,0.737c-2.272-0.786-2.246-2.702,0.248-2.599c-0.463-0.298-1.002-1.246-1.439-1.635
					c0.457-0.168,0.633-0.568,1.295-0.687c-0.822-0.665-1.743-1.531-1.498-2.677c0.389,0.097,0.362-0.104,0.565-0.237"/>
			</g>
			<g>
				<path fill="#ACB537" d="M203.535,134.286c1.132-0.048,4.332,0.075,5.854,1.131c0.039,1.127-0.503,1.894-1.568,2.187
					c1.154,0.248,1.829,1.073,1.629,2.249c-0.709,0.005-0.969,0.335-1.702,0.185c0.919,0.449,0.776,0.807,1.283,1.601
					c-1.126,0.372-3.484,0.89-4.646,0.384c-2.211-0.959-2.028-2.864,0.445-2.571c-0.441-0.334-0.9-1.318-1.311-1.74
					c0.466-0.134,0.678-0.518,1.345-0.585c-0.771-0.727-1.622-1.659-1.291-2.783c0.381,0.126,0.369-0.077,0.581-0.193"/>
			</g>
			<g>
				<path fill="#ACB537" d="M201.494,141.683c1.135,0.04,4.312,0.406,5.75,1.575c-0.048,1.127-0.647,1.85-1.73,2.061
					c1.132,0.336,1.74,1.209,1.45,2.367c-0.709-0.051-0.99,0.26-1.71,0.054c0.887,0.52,0.708,0.862,1.156,1.693
					c-1.152,0.285-3.541,0.621-4.66,0.027c-2.13-1.125-1.808-3.012,0.642-2.529c-0.418-0.367-0.799-1.385-1.175-1.836
					c0.475-0.098,0.711-0.465,1.386-0.48c-0.716-0.783-1.491-1.778-1.075-2.873c0.369,0.154,0.377-0.048,0.596-0.148"/>
			</g>
			<g>
				<path fill="#ACB537" d="M198.892,148.9c1.127,0.126,4.273,0.737,5.613,2.011c-0.133,1.12-0.787,1.795-1.884,1.922
					c1.099,0.42,1.646,1.342,1.265,2.472c-0.702-0.104-1.005,0.185-1.708-0.077c0.84,0.585,0.639,0.913,1.022,1.778
					c-1.173,0.194-3.577,0.347-4.65-0.332c-2.033-1.284-1.57-3.143,0.834-2.474c-0.384-0.396-0.692-1.441-1.029-1.919
					c0.483-0.06,0.744-0.409,1.417-0.373c-0.65-0.835-1.349-1.888-0.851-2.947c0.356,0.183,0.377-0.02,0.604-0.103"/>
			</g>
			<g>
				<path fill="#ACB537" d="M195.745,155.896c1.112,0.212,4.2,1.062,5.44,2.436c-0.218,1.107-0.922,1.729-2.025,1.772
					c1.067,0.505,1.535,1.462,1.072,2.562c-0.693-0.158-1.02,0.104-1.699-0.209c0.795,0.648,0.569,0.962,0.883,1.852
					c-1.18,0.105-3.596,0.069-4.609-0.688c-1.933-1.438-1.322-3.252,1.021-2.401c-0.356-0.427-0.576-1.489-0.88-1.993
					c0.483-0.024,0.776-0.35,1.443-0.263c-0.586-0.883-1.201-1.985-0.622-3.003c0.342,0.209,0.377,0.009,0.609-0.057"/>
			</g>
			<g>
				<path fill="#ACB537" d="M192.068,162.629c1.096,0.299,4.108,1.383,5.238,2.849c-0.304,1.086-1.054,1.652-2.155,1.61
					c1.021,0.583,1.42,1.577,0.87,2.636c-0.679-0.211-1.021,0.028-1.676-0.338c0.74,0.707,0.489,1,0.737,1.914
					c-1.189,0.012-3.589-0.206-4.545-1.042c-1.812-1.58-1.071-3.347,1.204-2.315c-0.318-0.45-0.464-1.532-0.723-2.055
					c0.486,0.015,0.798-0.291,1.457-0.151c-0.514-0.925-1.043-2.071-0.389-3.042c0.324,0.234,0.376,0.038,0.614-0.009"/>
			</g>
			<g>
				<path fill="#ACB537" d="M187.886,169.059c1.067,0.381,3.988,1.694,5.002,3.243c-0.386,1.061-1.177,1.567-2.273,1.439
					c0.978,0.663,1.292,1.681,0.666,2.696c-0.661-0.263-1.024-0.053-1.647-0.468c0.685,0.764,0.415,1.038,0.587,1.965
					c-1.182-0.076-3.563-0.483-4.448-1.389c-1.688-1.719-0.807-3.416,1.379-2.216c-0.286-0.476-0.34-1.56-0.562-2.104
					c0.481,0.051,0.821-0.226,1.466-0.037c-0.443-0.963-0.882-2.146-0.153-3.063c0.306,0.26,0.371,0.067,0.611,0.038"/>
			</g>
			<g>
				<path fill="#ACB537" d="M183.219,175.145c1.037,0.464,3.847,1.999,4.737,3.621c-0.468,1.026-1.296,1.472-2.379,1.26
					c0.92,0.733,1.161,1.777,0.453,2.739c-0.638-0.313-1.013-0.13-1.604-0.593c0.622,0.812,0.33,1.063,0.433,2.005
					c-1.176-0.172-3.514-0.758-4.329-1.731c-1.546-1.842-0.54-3.471,1.547-2.102c-0.244-0.494-0.222-1.585-0.396-2.142
					c0.479,0.091,0.832-0.164,1.463,0.075c-0.365-0.993-0.711-2.207,0.085-3.065c0.283,0.282,0.365,0.097,0.607,0.087"/>
			</g>
			<g>
				<path fill="#ACB537" d="M178.096,180.851c0.995,0.541,3.678,2.29,4.44,3.978c-0.545,0.988-1.405,1.366-2.469,1.071
					c0.862,0.806,1.016,1.86,0.238,2.767c-0.611-0.362-1.002-0.211-1.554-0.718c0.559,0.861,0.248,1.09,0.274,2.033
					c-1.156-0.26-3.445-1.031-4.179-2.062c-1.4-1.961-0.267-3.501,1.706-1.975c-0.21-0.516-0.094-1.594-0.229-2.167
					c0.467,0.125,0.845-0.096,1.454,0.19c-0.29-1.021-0.54-2.257,0.321-3.049c0.262,0.303,0.356,0.123,0.598,0.132"/>
			</g>
			<g>
				<path fill="#ACB537" d="M172.544,186.138c0.95,0.618,3.49,2.574,4.116,4.312c-0.621,0.942-1.509,1.253-2.546,0.875
					c0.794,0.868,0.87,1.937,0.021,2.776c-0.58-0.407-0.981-0.287-1.492-0.836c0.487,0.9,0.161,1.104,0.114,2.049
					c-1.135-0.353-3.354-1.298-4.006-2.387c-1.239-2.062,0.01-3.511,1.856-1.834c-0.165-0.526,0.029-1.599-0.059-2.177
					c0.459,0.164,0.85-0.031,1.434,0.303c-0.207-1.038-0.359-2.291,0.56-3.015c0.237,0.323,0.347,0.151,0.587,0.18"/>
			</g>
			<g>
				<path fill="#ACB537" d="M166.597,190.973c0.898,0.689,3.273,2.837,3.764,4.623c-0.694,0.891-1.604,1.13-2.607,0.671
					c0.726,0.932,0.711,1.997-0.199,2.77c-0.548-0.453-0.957-0.365-1.422-0.951c0.417,0.938,0.072,1.112-0.049,2.051
					c-1.104-0.44-3.239-1.559-3.803-2.695c-1.072-2.155,0.286-3.5,1.996-1.681c-0.126-0.542,0.156-1.59,0.113-2.176
					c0.441,0.197,0.848,0.036,1.405,0.416c-0.126-1.053-0.18-2.313,0.795-2.96c0.211,0.341,0.333,0.179,0.57,0.224"/>
			</g>
			<g>
				<path fill="#ACB537" d="M160.286,195.317c0.841,0.761,3.04,3.092,3.385,4.908c-0.762,0.834-1.688,1.001-2.653,0.462
					c0.648,0.984,0.552,2.05-0.419,2.746c-0.509-0.493-0.925-0.44-1.342-1.062c0.339,0.966-0.016,1.118-0.213,2.041
					c-1.064-0.526-3.105-1.814-3.575-2.992c-0.896-2.235,0.567-3.462,2.123-1.516c-0.079-0.547,0.283-1.572,0.287-2.159
					c0.427,0.234,0.844,0.106,1.368,0.526c-0.041-1.058,0.006-2.318,1.027-2.887c0.183,0.355,0.317,0.204,0.551,0.27"/>
			</g>
			<g>
				<path fill="#ACB537" d="M153.653,199.146c0.777,0.826,2.779,3.32,2.979,5.163c-0.828,0.769-1.765,0.859-2.682,0.248
					c0.567,1.034,0.383,2.084-0.641,2.702c-0.468-0.535-0.887-0.514-1.252-1.167c0.262,0.994-0.107,1.108-0.377,2.017
					c-1.02-0.611-2.948-2.058-3.321-3.271c-0.712-2.298,0.842-3.409,2.239-1.338c-0.037-0.555,0.407-1.547,0.459-2.129
					c0.405,0.265,0.831,0.171,1.32,0.635c0.045-1.06,0.192-2.312,1.257-2.796c0.153,0.369,0.301,0.231,0.526,0.313"/>
			</g>
			<g>
				<path fill="#ACB537" d="M146.733,202.424c0.708,0.886,2.504,3.539,2.552,5.389c-0.886,0.7-1.827,0.716-2.693,0.029
					c0.481,1.076,0.214,2.111-0.856,2.643c-0.422-0.568-0.843-0.585-1.153-1.266c0.178,1.008-0.195,1.103-0.54,1.98
					c-0.966-0.691-2.771-2.293-3.045-3.531c-0.522-2.352,1.119-3.323,2.341-1.152c0.009-0.552,0.532-1.505,0.631-2.084
					c0.383,0.299,0.815,0.241,1.265,0.74c0.13-1.05,0.379-2.287,1.478-2.684c0.124,0.381,0.28,0.252,0.5,0.354"/>
			</g>
			<g>
				<path fill="#ACB537" d="M139.573,205.131c0.634,0.941,2.206,3.727,2.104,5.578c-0.941,0.624-1.881,0.562-2.687-0.19
					c0.392,1.113,0.04,2.119-1.071,2.562c-0.375-0.604-0.791-0.65-1.045-1.354c0.097,1.023-0.287,1.077-0.7,1.929
					c-0.907-0.769-2.575-2.509-2.746-3.767c-0.328-2.385,1.385-3.227,2.427-0.956c0.054-0.555,0.653-1.459,0.799-2.026
					c0.356,0.327,0.792,0.304,1.2,0.841c0.215-1.038,0.564-2.25,1.691-2.555c0.092,0.389,0.26,0.276,0.47,0.395"/>
			</g>
			<g>
				<path fill="#ACB537" d="M132.217,207.241c0.554,0.988,1.895,3.899,1.642,5.731c-0.989,0.547-1.921,0.409-2.663-0.409
					c0.299,1.138-0.133,2.119-1.276,2.467c-0.324-0.63-0.735-0.711-0.932-1.436c0.012,1.023-0.373,1.052-0.855,1.865
					c-0.841-0.841-2.36-2.712-2.428-3.98c-0.132-2.402,1.645-3.1,2.496-0.755c0.1-0.543,0.771-1.4,0.963-1.953
					c0.329,0.358,0.765,0.369,1.126,0.936c0.3-1.015,0.747-2.194,1.896-2.407c0.06,0.396,0.235,0.295,0.436,0.432"/>
			</g>
			<g>
				<path fill="#ACB537" d="M124.713,208.744c0.471,1.029,1.568,4.038,1.166,5.846c-1.03,0.463-1.947,0.25-2.62-0.626
					c0.206,1.163-0.306,2.098-1.474,2.355c-0.271-0.657-0.675-0.772-0.811-1.509c-0.072,1.022-0.458,1.021-1.005,1.789
					c-0.769-0.902-2.132-2.898-2.096-4.164c0.064-2.407,1.893-2.953,2.551-0.549c0.143-0.537,0.883-1.329,1.118-1.868
					c0.299,0.381,0.732,0.432,1.047,1.026c0.382-0.989,0.924-2.129,2.086-2.244c0.027,0.399,0.211,0.312,0.398,0.464"/>
			</g>
			<g>
				<path fill="#ACB537" d="M117.109,209.627c0.386,1.07,1.234,4.152,0.687,5.924c-1.064,0.376-1.961,0.088-2.56-0.837
					c0.109,1.174-0.476,2.064-1.66,2.226c-0.218-0.677-0.61-0.822-0.686-1.567c-0.154,1.016-0.539,0.977-1.146,1.701
					c-0.692-0.963-1.89-3.06-1.752-4.318c0.258-2.395,2.126-2.794,2.587-0.341c0.186-0.524,0.987-1.257,1.267-1.772
					c0.267,0.404,0.695,0.486,0.96,1.106c0.461-0.954,1.094-2.044,2.262-2.067c-0.006,0.4,0.185,0.33,0.359,0.498"/>
			</g>
			<g>
				<path fill="#ACB537" d="M109.456,209.893c0.299,1.094,0.896,4.244,0.208,5.959c-1.091,0.291-1.961-0.069-2.484-1.04
					c0.016,1.177-0.64,2.023-1.833,2.086c-0.162-0.691-0.542-0.868-0.558-1.616c-0.235,0.998-0.615,0.928-1.279,1.604
					c-0.613-1.02-1.638-3.2-1.399-4.447c0.45-2.363,2.343-2.615,2.605-0.132c0.227-0.503,1.086-1.176,1.405-1.664
					c0.233,0.427,0.654,0.54,0.869,1.18c0.536-0.912,1.254-1.95,2.421-1.879c-0.038,0.398,0.157,0.343,0.318,0.524"/>
			</g>
			<g>
				<path fill="#ACB537" d="M101.807,209.542c0.209,1.114,0.551,4.3-0.274,5.955c-1.111,0.203-1.95-0.224-2.393-1.236
					c-0.08,1.175-0.801,1.966-1.997,1.932c-0.106-0.701-0.47-0.91-0.425-1.658c-0.315,0.974-0.689,0.879-1.406,1.495
					c-0.529-1.064-1.373-3.323-1.032-4.547c0.641-2.318,2.547-2.413,2.607,0.08c0.267-0.482,1.177-1.08,1.535-1.544
					c0.197,0.444,0.607,0.595,0.77,1.246c0.607-0.865,1.408-1.842,2.564-1.677c-0.07,0.395,0.129,0.354,0.275,0.548"/>
			</g>
			<g>
				<path fill="#ACB537" d="M94.213,208.574c0.118,1.126,0.199,4.327-0.758,5.912c-1.125,0.11-1.925-0.384-2.284-1.428
					c-0.176,1.167-0.958,1.891-2.148,1.762c-0.048-0.709-0.394-0.946-0.288-1.688c-0.395,0.946-0.759,0.82-1.523,1.375
					c-0.441-1.101-1.095-3.428-0.657-4.615c0.829-2.262,2.735-2.195,2.592,0.293c0.307-0.464,1.261-0.978,1.656-1.414
					c0.161,0.456,0.556,0.643,0.665,1.307c0.677-0.816,1.554-1.724,2.692-1.462c-0.102,0.388,0.1,0.363,0.229,0.566"/>
			</g>
			<g>
				<path fill="#ACB537" d="M86.727,206.986c0.025,1.136-0.156,4.332-1.24,5.833c-1.129,0.017-1.887-0.542-2.159-1.61
					c-0.27,1.145-1.111,1.808-2.285,1.578c0.01-0.71-0.316-0.973-0.149-1.703c-0.47,0.91-0.822,0.751-1.63,1.245
					c-0.348-1.139-0.812-3.502-0.277-4.654c1.01-2.182,2.908-1.969,2.559,0.505c0.342-0.432,1.338-0.878,1.766-1.273
					c0.123,0.47,0.503,0.683,0.556,1.354c0.741-0.755,1.689-1.588,2.803-1.237c-0.133,0.378,0.069,0.372,0.182,0.586"/>
			</g>
			<g>
				<path fill="#ACB537" d="M79.395,204.793c-0.067,1.131-0.51,4.304-1.712,5.71c-1.127-0.073-1.837-0.692-2.02-1.781
					c-0.364,1.123-1.254,1.709-2.407,1.39c0.069-0.708-0.233-0.999-0.008-1.713c-0.542,0.868-0.883,0.687-1.727,1.108
					c-0.255-1.158-0.523-3.56,0.103-4.66c1.187-2.097,3.057-1.721,2.51,0.711c0.377-0.406,1.403-0.761,1.864-1.126
					c0.085,0.477,0.444,0.728,0.443,1.397c0.8-0.693,1.813-1.445,2.895-1.004c-0.163,0.366,0.04,0.375,0.134,0.598"/>
			</g>
			<g>
				<path fill="#ACB537" d="M72.265,202.007c-0.161,1.125-0.858,4.247-2.172,5.554c-1.117-0.168-1.773-0.842-1.869-1.94
					c-0.452,1.086-1.39,1.603-2.51,1.187c0.125-0.699-0.153-1.012,0.129-1.704c-0.611,0.821-0.933,0.607-1.811,0.964
					c-0.158-1.179-0.234-3.587,0.481-4.638c1.349-1.989,3.188-1.471,2.443,0.913c0.408-0.371,1.463-0.649,1.95-0.97
					c0.045,0.483,0.386,0.755,0.329,1.427c0.854-0.625,1.925-1.291,2.967-0.765c-0.193,0.351,0.008,0.378,0.084,0.608"/>
			</g>
			<g>
				<path fill="#ACB537" d="M65.383,198.651c-0.249,1.104-1.199,4.164-2.613,5.357c-1.101-0.255-1.7-0.979-1.706-2.084
					c-0.541,1.05-1.514,1.484-2.599,0.983c0.182-0.688-0.07-1.023,0.268-1.691c-0.676,0.771-0.981,0.535-1.882,0.816
					c-0.065-1.184,0.057-3.597,0.85-4.583c1.508-1.879,3.295-1.206,2.363,1.105c0.438-0.341,1.508-0.523,2.022-0.81
					c0.007,0.483,0.321,0.788,0.212,1.45c0.902-0.556,2.023-1.134,3.02-0.522c-0.221,0.334-0.022,0.376,0.036,0.611"/>
			</g>
			<g>
				<path fill="#ACB537" d="M58.791,194.75c-0.338,1.084-1.53,4.056-3.035,5.133c-1.075-0.344-1.615-1.114-1.533-2.214
					c-0.62,0.999-1.629,1.361-2.667,0.771c0.235-0.67,0.01-1.021,0.4-1.662c-0.734,0.713-1.018,0.452-1.941,0.664
					c0.032-1.188,0.342-3.579,1.214-4.502c1.649-1.75,3.383-0.943,2.268,1.291c0.461-0.302,1.547-0.406,2.08-0.646
					c-0.034,0.486,0.261,0.808,0.097,1.462c0.943-0.479,2.107-0.967,3.053-0.278c-0.247,0.315-0.052,0.374-0.014,0.613"/>
			</g>
			<g>
				<path fill="#ACB537" d="M52.528,190.336c-0.421,1.051-1.845,3.919-3.432,4.874c-1.045-0.427-1.522-1.238-1.352-2.328
					c-0.7,0.95-1.73,1.226-2.721,0.559c0.289-0.65,0.093-1.021,0.532-1.628c-0.791,0.656-1.053,0.373-1.987,0.51
					c0.123-1.18,0.624-3.542,1.563-4.391c1.785-1.618,3.446-0.672,2.16,1.465c0.488-0.269,1.571-0.278,2.125-0.479
					c-0.07,0.479,0.194,0.828-0.021,1.467c0.98-0.407,2.179-0.799,3.065-0.036c-0.271,0.295-0.081,0.368-0.061,0.609"/>
			</g>
			<g>
				<path fill="#ACB537" d="M46.634,185.437c-0.503,1.017-2.151,3.766-3.806,4.59c-1.008-0.508-1.42-1.354-1.165-2.428
					c-0.77,0.89-1.823,1.089-2.755,0.344c0.336-0.624,0.171-1.009,0.657-1.58c-0.837,0.59-1.078,0.289-2.021,0.353
					c0.218-1.168,0.898-3.481,1.904-4.256c1.904-1.472,3.488-0.399,2.038,1.63c0.504-0.226,1.591-0.156,2.156-0.311
					c-0.109,0.475,0.129,0.84-0.134,1.459c1.006-0.326,2.233-0.623,3.059,0.206c-0.293,0.272-0.11,0.361-0.11,0.604"/>
			</g>
			<g>
				<path fill="#ACB537" d="M41.138,180.091c-0.58,0.973-2.435,3.582-4.152,4.277c-0.965-0.585-1.309-1.46-0.971-2.511
					c-0.84,0.829-1.899,0.94-2.773,0.128c0.386-0.598,0.25-0.993,0.778-1.524c-0.883,0.525-1.096,0.203-2.042,0.194
					c0.308-1.147,1.166-3.4,2.228-4.094c2.013-1.32,3.51-0.128,1.905,1.783c0.523-0.188,1.598-0.031,2.174-0.143
					c-0.144,0.463,0.063,0.848-0.248,1.445c1.031-0.248,2.277-0.448,3.034,0.444c-0.314,0.249-0.138,0.352-0.156,0.592"/>
			</g>
			<g>
				<path fill="#ACB537" d="M36.077,174.33c-0.655,0.925-2.709,3.385-4.472,3.942c-0.917-0.658-1.193-1.557-0.773-2.578
					c-0.899,0.76-1.969,0.792-2.775-0.088c0.429-0.563,0.327-0.97,0.894-1.459c-0.917,0.453-1.111,0.119-2.05,0.036
					c0.395-1.12,1.426-3.301,2.539-3.91c2.109-1.16,3.507,0.146,1.761,1.926c0.533-0.145,1.595,0.093,2.178,0.026
					c-0.181,0.452-0.004,0.851-0.359,1.422c1.045-0.167,2.304-0.27,2.99,0.679c-0.332,0.224-0.165,0.339-0.202,0.578"/>
			</g>
			<g>
				<path fill="#ACB537" d="M31.475,168.194c-0.725,0.872-2.959,3.163-4.764,3.585c-0.863-0.728-1.067-1.645-0.572-2.63
					c-0.958,0.689-2.021,0.636-2.759-0.302c0.474-0.53,0.4-0.942,1.004-1.386c-0.954,0.383-1.114,0.031-2.047-0.123
					c0.481-1.086,1.675-3.18,2.832-3.702c2.192-0.994,3.489,0.415,1.607,2.057c0.547-0.105,1.584,0.215,2.17,0.194
					c-0.213,0.435-0.067,0.847-0.468,1.39c1.057-0.086,2.319-0.091,2.929,0.908c-0.348,0.197-0.192,0.326-0.246,0.561"/>
			</g>
			<g>
				<path fill="#ACB537" d="M27.361,161.721c-0.79,0.813-3.199,2.927-5.026,3.207c-0.806-0.791-0.939-1.722-0.367-2.667
					c-1.006,0.613-2.067,0.48-2.729-0.513c0.511-0.491,0.471-0.908,1.108-1.304c-0.977,0.306-1.115-0.054-2.032-0.28
					c0.563-1.045,1.916-3.041,3.109-3.474c2.262-0.822,3.444,0.684,1.444,2.174c0.548-0.061,1.562,0.337,2.148,0.361
					c-0.249,0.419-0.134,0.84-0.573,1.35c1.059-0.004,2.318,0.089,2.851,1.131c-0.362,0.17-0.215,0.311-0.289,0.541"/>
			</g>
			<g>
				<path fill="#ACB537" d="M23.755,154.949c-0.848,0.75-3.41,2.671-5.257,2.811c-0.741-0.851-0.802-1.788-0.161-2.687
					c-1.053,0.535-2.095,0.318-2.681-0.721c0.549-0.452,0.541-0.87,1.205-1.216c-1,0.231-1.108-0.139-2.004-0.436
					c0.639-0.997,2.146-2.886,3.365-3.224c2.321-0.646,3.382,0.945,1.274,2.278c0.557-0.021,1.529,0.457,2.114,0.525
					c-0.277,0.397-0.197,0.827-0.676,1.302c1.059,0.077,2.307,0.266,2.755,1.347c-0.375,0.143-0.238,0.293-0.328,0.517"/>
			</g>
			<g>
				<path fill="#ACB537" d="M20.683,147.92c-0.906,0.684-3.61,2.402-5.458,2.398c-0.673-0.905-0.662-1.845,0.045-2.69
					c-1.086,0.45-2.117,0.158-2.617-0.925c0.582-0.408,0.603-0.825,1.293-1.119c-1.013,0.153-1.09-0.225-1.965-0.588
					c0.719-0.947,2.359-2.712,3.605-2.956c2.358-0.466,3.302,1.201,1.094,2.369c0.55,0.023,1.496,0.57,2.067,0.687
					c-0.31,0.375-0.258,0.809-0.772,1.245c1.046,0.159,2.277,0.442,2.644,1.555c-0.384,0.112-0.261,0.273-0.369,0.49"/>
			</g>
			<g>
				<path fill="#ACB537" d="M18.158,140.675c-0.954,0.612-3.781,2.118-5.625,1.974c-0.603-0.954-0.521-1.89,0.252-2.68
					c-1.121,0.367-2.121-0.005-2.54-1.122c0.609-0.361,0.668-0.777,1.377-1.017c-1.021,0.075-1.076-0.306-1.914-0.736
					c0.786-0.889,2.56-2.523,3.819-2.672c2.392-0.285,3.196,1.451,0.911,2.446c0.549,0.065,1.443,0.685,2.009,0.842
					c-0.336,0.351-0.324,0.788-0.867,1.183c1.031,0.239,2.237,0.616,2.517,1.754c-0.392,0.082-0.28,0.252-0.404,0.46"/>
			</g>
			<g>
				<path fill="#ACB537" d="M16.193,133.258c-0.998,0.537-3.929,1.822-5.759,1.537c-0.527-0.997-0.374-1.924,0.456-2.651
					c-1.147,0.28-2.112-0.167-2.447-1.312c0.638-0.314,0.725-0.724,1.451-0.909c-1.026-0.002-1.048-0.387-1.852-0.88
					c0.848-0.825,2.746-2.321,4.01-2.373c2.407-0.104,3.078,1.69,0.722,2.508c0.546,0.106,1.385,0.793,1.939,0.993
					c-0.361,0.323-0.38,0.761-0.955,1.114c1.014,0.315,2.185,0.784,2.376,1.939c-0.397,0.053-0.3,0.231-0.438,0.429"/>
			</g>
			<g>
				<path fill="#ACB537" d="M14.801,125.71c-1.04,0.461-4.057,1.52-5.861,1.097c-0.449-1.035-0.224-1.947,0.655-2.61
					c-1.163,0.193-2.092-0.326-2.338-1.493c0.659-0.265,0.776-0.667,1.514-0.796c-1.024-0.08-1.013-0.466-1.78-1.018
					c0.91-0.759,2.913-2.107,4.178-2.064c2.407,0.079,2.944,1.919,0.531,2.557c0.536,0.147,1.325,0.895,1.858,1.137
					c-0.383,0.296-0.435,0.729-1.035,1.038c0.985,0.393,2.117,0.948,2.223,2.115c-0.4,0.022-0.316,0.208-0.472,0.395"/>
			</g>
			<g>
				<path fill="#ACB537" d="M13.982,118.077c-1.069,0.381-4.165,1.209-5.927,0.651c-0.371-1.065-0.078-1.957,0.849-2.553
					c-1.172,0.105-2.064-0.482-2.22-1.664c0.677-0.215,0.824-0.606,1.568-0.681c-1.016-0.155-0.974-0.539-1.699-1.146
					c0.965-0.688,3.061-1.884,4.319-1.747c2.396,0.257,2.794,2.133,0.339,2.589c0.523,0.188,1.256,0.992,1.768,1.273
					c-0.404,0.266-0.488,0.694-1.108,0.958c0.951,0.465,2.04,1.104,2.057,2.276c-0.4-0.008-0.331,0.184-0.5,0.357"/>
			</g>
			<g>
				<path fill="#ACB537" d="M13.737,110.4c-1.094,0.301-4.244,0.897-5.958,0.209c-0.292-1.089,0.067-1.957,1.036-2.482
					c-1.177,0.018-2.023-0.634-2.09-1.824c0.691-0.164,0.866-0.544,1.615-0.562c-1.002-0.231-0.931-0.61-1.609-1.27
					c1.014-0.616,3.191-1.653,4.438-1.422c2.369,0.435,2.628,2.334,0.146,2.606c0.507,0.225,1.18,1.082,1.669,1.401
					c-0.423,0.235-0.538,0.657-1.176,0.873c0.913,0.534,1.953,1.253,1.882,2.424c-0.398-0.038-0.343,0.158-0.524,0.319"/>
			</g>
			<g>
				<path fill="#ACB537" d="M14.061,102.727c-1.113,0.218-4.298,0.579-5.958-0.234c-0.21-1.108,0.212-1.948,1.219-2.398
					c-1.174-0.07-1.972-0.784-1.949-1.976c0.701-0.112,0.904-0.478,1.651-0.44c-0.979-0.305-0.882-0.679-1.509-1.387
					c1.06-0.538,3.306-1.409,4.534-1.084c2.327,0.612,2.445,2.524-0.051,2.61c0.486,0.262,1.096,1.167,1.56,1.521
					c-0.442,0.203-0.586,0.615-1.239,0.783c0.871,0.601,1.854,1.395,1.697,2.556c-0.395-0.067-0.354,0.132-0.546,0.28"/>
			</g>
			<g>
				<path fill="#ACB537" d="M14.959,95.103c-1.126,0.134-4.328,0.253-5.922-0.683c-0.127-1.122,0.357-1.927,1.396-2.3
					c-1.166-0.159-1.908-0.931-1.794-2.118c0.707-0.059,0.937-0.408,1.681-0.314c-0.952-0.378-0.83-0.744-1.401-1.498
					c1.098-0.456,3.404-1.153,4.604-0.737c2.272,0.787,2.246,2.702-0.249,2.599c0.464,0.298,1.002,1.246,1.44,1.635
					c-0.458,0.168-0.633,0.568-1.295,0.686c0.823,0.665,1.744,1.531,1.499,2.677c-0.388-0.097-0.363,0.105-0.565,0.238"/>
			</g>
			<g>
				<path fill="#ACB537" d="M16.43,87.57c-1.132,0.048-4.332-0.076-5.853-1.131c-0.04-1.127,0.503-1.894,1.568-2.187
					c-1.154-0.248-1.829-1.073-1.629-2.249c0.709-0.005,0.969-0.334,1.702-0.185c-0.919-0.449-0.776-0.807-1.283-1.6
					c1.126-0.373,3.484-0.89,4.646-0.384c2.21,0.959,2.028,2.864-0.446,2.572c0.442,0.333,0.901,1.318,1.311,1.74
					c-0.466,0.134-0.678,0.517-1.345,0.585c0.771,0.726,1.622,1.659,1.291,2.783c-0.38-0.126-0.369,0.077-0.581,0.194"/>
			</g>
			<g>
				<path fill="#ACB537" d="M18.471,80.173c-1.134-0.039-4.312-0.405-5.75-1.575c0.048-1.127,0.648-1.85,1.73-2.061
					c-1.132-0.335-1.74-1.209-1.45-2.367c0.709,0.05,0.99-0.26,1.71-0.054c-0.886-0.52-0.708-0.862-1.156-1.694
					c1.152-0.285,3.541-0.621,4.66-0.027c2.129,1.125,1.807,3.012-0.642,2.53c0.418,0.368,0.799,1.384,1.174,1.835
					c-0.474,0.098-0.711,0.465-1.385,0.481c0.715,0.783,1.491,1.778,1.075,2.873c-0.369-0.154-0.377,0.048-0.595,0.149"/>
			</g>
			<g>
				<path fill="#ACB537" d="M21.074,72.956c-1.127-0.126-4.273-0.737-5.613-2.011c0.133-1.121,0.787-1.795,1.883-1.922
					c-1.099-0.419-1.646-1.341-1.265-2.471c0.702,0.104,1.005-0.184,1.708,0.077c-0.84-0.585-0.639-0.914-1.023-1.778
					c1.172-0.194,3.578-0.347,4.651,0.332c2.033,1.284,1.57,3.142-0.834,2.473c0.384,0.396,0.692,1.442,1.029,1.919
					c-0.483,0.06-0.744,0.409-1.417,0.374c0.65,0.834,1.349,1.887,0.851,2.946c-0.356-0.182-0.377,0.02-0.605,0.103"/>
			</g>
			<g>
				<path fill="#ACB537" d="M24.22,65.959c-1.113-0.211-4.2-1.061-5.44-2.436c0.218-1.107,0.922-1.729,2.025-1.772
					c-1.068-0.505-1.535-1.462-1.072-2.562c0.693,0.158,1.02-0.104,1.699,0.209c-0.794-0.649-0.569-0.962-0.882-1.851
					c1.18-0.106,3.596-0.07,4.609,0.688c1.932,1.439,1.322,3.252-1.021,2.401c0.356,0.427,0.576,1.489,0.879,1.994
					c-0.483,0.024-0.776,0.349-1.443,0.262c0.586,0.883,1.202,1.986,0.622,3.003c-0.341-0.209-0.377-0.009-0.609,0.056"/>
			</g>
			<g>
				<path fill="#ACB537" d="M27.897,59.227c-1.096-0.298-4.108-1.383-5.238-2.848c0.304-1.086,1.053-1.653,2.156-1.611
					c-1.021-0.583-1.42-1.577-0.87-2.636c0.679,0.211,1.021-0.028,1.676,0.338c-0.741-0.707-0.489-1-0.737-1.914
					c1.189-0.011,3.588,0.206,4.545,1.042c1.811,1.581,1.07,3.346-1.205,2.315c0.318,0.45,0.464,1.532,0.723,2.055
					c-0.486-0.015-0.797,0.291-1.457,0.151c0.514,0.924,1.043,2.071,0.389,3.042c-0.324-0.235-0.376-0.039-0.614,0.008"/>
			</g>
			<g>
				<path fill="#ACB537" d="M32.08,52.797c-1.067-0.38-3.988-1.694-5.002-3.243c0.386-1.061,1.177-1.567,2.273-1.44
					c-0.977-0.663-1.292-1.681-0.666-2.696c0.661,0.263,1.023,0.053,1.647,0.468c-0.685-0.763-0.415-1.038-0.587-1.965
					c1.182,0.077,3.564,0.484,4.449,1.389c1.688,1.719,0.806,3.417-1.379,2.216c0.286,0.476,0.34,1.56,0.562,2.105
					c-0.481-0.051-0.821,0.225-1.466,0.037c0.443,0.963,0.882,2.146,0.153,3.063c-0.305-0.259-0.371-0.067-0.611-0.038"/>
			</g>
			<g>
				<path fill="#ACB537" d="M36.747,46.711c-1.037-0.464-3.847-1.999-4.737-3.621c0.468-1.027,1.296-1.472,2.378-1.26
					c-0.919-0.733-1.161-1.777-0.453-2.739c0.638,0.313,1.013,0.13,1.604,0.593c-0.623-0.813-0.33-1.064-0.433-2.005
					c1.176,0.171,3.514,0.757,4.329,1.731c1.545,1.842,0.541,3.471-1.547,2.102c0.245,0.494,0.222,1.584,0.397,2.142
					c-0.479-0.091-0.833,0.164-1.463-0.075c0.366,0.993,0.711,2.207-0.084,3.065c-0.284-0.282-0.365-0.096-0.607-0.086"/>
			</g>
			<g>
				<path fill="#ACB537" d="M41.87,41.005c-0.995-0.541-3.678-2.29-4.44-3.977c0.545-0.988,1.406-1.367,2.469-1.071
					c-0.863-0.806-1.017-1.86-0.239-2.767c0.612,0.362,1.003,0.211,1.555,0.717c-0.56-0.861-0.248-1.089-0.275-2.033
					c1.156,0.259,3.445,1.031,4.179,2.062c1.4,1.961,0.267,3.501-1.706,1.975c0.209,0.516,0.094,1.593,0.229,2.167
					c-0.468-0.125-0.845,0.096-1.454-0.19c0.29,1.021,0.54,2.257-0.322,3.049c-0.261-0.303-0.356-0.124-0.598-0.132"/>
			</g>
			<g>
				<path fill="#ACB537" d="M47.422,35.719c-0.951-0.618-3.491-2.574-4.117-4.313c0.621-0.942,1.508-1.253,2.546-0.875
					c-0.794-0.868-0.87-1.937-0.021-2.776c0.58,0.407,0.981,0.287,1.492,0.836c-0.488-0.9-0.161-1.104-0.114-2.048
					c1.135,0.352,3.353,1.298,4.005,2.387c1.239,2.062-0.009,3.51-1.856,1.833c0.165,0.526-0.029,1.599,0.058,2.177
					c-0.458-0.164-0.849,0.031-1.434-0.303c0.207,1.038,0.36,2.291-0.56,3.014c-0.236-0.323-0.346-0.152-0.586-0.18"/>
			</g>
			<g>
				<path fill="#ACB537" d="M53.368,30.883c-0.898-0.689-3.273-2.836-3.763-4.623c0.694-0.891,1.604-1.13,2.607-0.671
					c-0.725-0.931-0.711-1.997,0.199-2.77c0.548,0.454,0.957,0.365,1.422,0.952c-0.417-0.939-0.072-1.113,0.049-2.051
					c1.103,0.44,3.239,1.558,3.802,2.695c1.072,2.155-0.286,3.5-1.996,1.68c0.126,0.542-0.156,1.59-0.113,2.176
					c-0.442-0.197-0.849-0.036-1.406-0.416c0.126,1.053,0.179,2.314-0.795,2.96c-0.211-0.34-0.333-0.178-0.569-0.224"/>
			</g>
			<g>
				<path fill="#ACB537" d="M59.679,26.538c-0.841-0.76-3.04-3.091-3.384-4.908c0.762-0.834,1.688-1,2.653-0.462
					c-0.647-0.984-0.551-2.049,0.42-2.746c0.508,0.493,0.925,0.44,1.341,1.062c-0.338-0.965,0.016-1.118,0.213-2.041
					c1.064,0.526,3.105,1.814,3.575,2.992c0.896,2.235-0.567,3.461-2.124,1.515c0.08,0.546-0.283,1.572-0.287,2.159
					c-0.426-0.234-0.844-0.106-1.367-0.527c0.041,1.058-0.007,2.319-1.028,2.888c-0.183-0.356-0.318-0.204-0.551-0.27"/>
			</g>
			<g>
				<path fill="#ACB537" d="M66.312,22.71c-0.777-0.826-2.78-3.321-2.98-5.164c0.828-0.768,1.765-0.86,2.682-0.248
					c-0.567-1.035-0.383-2.084,0.64-2.702c0.468,0.535,0.886,0.513,1.251,1.166c-0.262-0.994,0.108-1.108,0.377-2.016
					c1.019,0.612,2.948,2.057,3.321,3.271c0.711,2.298-0.842,3.409-2.239,1.338c0.037,0.555-0.407,1.546-0.459,2.129
					c-0.405-0.265-0.831-0.17-1.32-0.634c-0.044,1.059-0.192,2.312-1.256,2.795c-0.153-0.369-0.301-0.231-0.527-0.312"/>
			</g>
			<g>
				<path fill="#ACB537" d="M73.231,19.432c-0.707-0.885-2.503-3.539-2.552-5.388c0.886-0.701,1.828-0.716,2.693-0.03
					c-0.481-1.076-0.214-2.111,0.857-2.643c0.422,0.568,0.842,0.584,1.153,1.265c-0.178-1.007,0.195-1.102,0.54-1.979
					c0.966,0.69,2.771,2.292,3.044,3.53c0.523,2.352-1.119,3.323-2.34,1.152c-0.009,0.552-0.533,1.505-0.631,2.084
					c-0.383-0.299-0.815-0.242-1.265-0.741c-0.13,1.051-0.379,2.288-1.478,2.684c-0.123-0.381-0.28-0.252-0.5-0.354"/>
			</g>
			<g>
				<path fill="#ACB537" d="M80.392,16.725c-0.633-0.941-2.206-3.727-2.104-5.578c0.941-0.624,1.881-0.562,2.687,0.19
					c-0.392-1.113-0.04-2.118,1.071-2.562c0.375,0.604,0.792,0.65,1.046,1.354c-0.097-1.023,0.286-1.077,0.7-1.928
					c0.906,0.769,2.574,2.509,2.745,3.767c0.328,2.384-1.385,3.226-2.427,0.957c-0.053,0.554-0.653,1.459-0.799,2.026
					c-0.356-0.327-0.792-0.303-1.2-0.84c-0.215,1.038-0.564,2.25-1.691,2.554c-0.092-0.389-0.26-0.277-0.469-0.394"/>
			</g>
			<g>
				<path fill="#ACB537" d="M87.748,14.615c-0.554-0.989-1.895-3.9-1.641-5.731c0.989-0.547,1.92-0.409,2.663,0.409
					c-0.299-1.138,0.133-2.119,1.277-2.467c0.324,0.63,0.735,0.711,0.932,1.436c-0.012-1.024,0.373-1.052,0.855-1.866
					c0.84,0.841,2.36,2.713,2.428,3.981c0.131,2.402-1.645,3.1-2.497,0.755c-0.099,0.542-0.771,1.4-0.962,1.953
					c-0.329-0.359-0.765-0.369-1.127-0.936c-0.3,1.015-0.747,2.195-1.895,2.407c-0.06-0.396-0.235-0.295-0.436-0.431"/>
			</g>
			<g>
				<path fill="#ACB537" d="M95.252,13.112c-0.471-1.029-1.568-4.038-1.167-5.846c1.031-0.463,1.947-0.25,2.62,0.626
					C96.5,6.729,97.012,5.794,98.18,5.537c0.271,0.657,0.675,0.772,0.811,1.508c0.071-1.022,0.457-1.021,1.004-1.789
					c0.769,0.902,2.131,2.898,2.095,4.164c-0.064,2.408-1.893,2.954-2.55,0.549c-0.143,0.537-0.883,1.329-1.119,1.868
					c-0.298-0.381-0.733-0.432-1.047-1.026c-0.381,0.989-0.923,2.129-2.086,2.244c-0.027-0.399-0.21-0.312-0.398-0.464"/>
			</g>
			<g>
				<path fill="#ACB537" d="M102.856,12.229c-0.386-1.07-1.234-4.151-0.687-5.923c1.065-0.375,1.961-0.088,2.56,0.837
					c-0.11-1.174,0.475-2.064,1.66-2.226c0.217,0.677,0.61,0.823,0.686,1.567c0.154-1.016,0.539-0.976,1.146-1.702
					c0.692,0.963,1.89,3.061,1.752,4.318c-0.258,2.395-2.126,2.794-2.586,0.341c-0.186,0.524-0.988,1.257-1.267,1.772
					c-0.266-0.403-0.695-0.486-0.96-1.106c-0.46,0.955-1.094,2.044-2.262,2.067c0.005-0.4-0.185-0.33-0.36-0.498"/>
			</g>
			<g>
				<path fill="#ACB537" d="M110.509,11.963c-0.299-1.094-0.896-4.244-0.208-5.958c1.092-0.291,1.961,0.069,2.484,1.04
					c-0.016-1.176,0.64-2.024,1.833-2.086c0.162,0.692,0.542,0.868,0.558,1.616c0.235-0.998,0.615-0.928,1.279-1.604
					c0.613,1.02,1.639,3.2,1.399,4.447c-0.45,2.363-2.344,2.615-2.605,0.132c-0.228,0.503-1.086,1.176-1.405,1.664
					c-0.232-0.426-0.653-0.54-0.868-1.179c-0.535,0.912-1.255,1.95-2.421,1.879c0.038-0.398-0.157-0.344-0.318-0.524"/>
			</g>
			<g>
				<path fill="#ACB537" d="M118.159,12.314c-0.21-1.114-0.552-4.3,0.273-5.956c1.111-0.203,1.95,0.225,2.393,1.237
					c0.08-1.175,0.802-1.966,1.997-1.932c0.105,0.701,0.47,0.909,0.425,1.658c0.314-0.974,0.688-0.879,1.405-1.496
					c0.528,1.065,1.372,3.324,1.032,4.547c-0.641,2.319-2.547,2.413-2.607-0.081c-0.267,0.483-1.177,1.081-1.534,1.544
					c-0.198-0.444-0.607-0.595-0.77-1.247c-0.608,0.866-1.408,1.842-2.564,1.677c0.069-0.395-0.13-0.354-0.275-0.547"/>
			</g>
			<g>
				<path fill="#ACB537" d="M125.752,13.282c-0.118-1.125-0.199-4.327,0.758-5.912c1.124-0.111,1.926,0.384,2.284,1.428
					c0.176-1.168,0.959-1.891,2.147-1.762c0.048,0.709,0.395,0.947,0.288,1.688c0.395-0.947,0.759-0.821,1.523-1.375
					c0.44,1.1,1.096,3.427,0.657,4.614c-0.829,2.262-2.735,2.196-2.592-0.293c-0.307,0.464-1.261,0.978-1.656,1.415
					c-0.161-0.456-0.557-0.643-0.665-1.307c-0.677,0.816-1.554,1.723-2.691,1.462c0.102-0.387-0.101-0.363-0.23-0.566"/>
			</g>
			<g>
				<path fill="#ACB537" d="M133.238,14.87c-0.024-1.136,0.156-4.332,1.24-5.833c1.129-0.017,1.887,0.542,2.159,1.61
					c0.27-1.145,1.111-1.808,2.285-1.579c-0.011,0.71,0.315,0.973,0.149,1.703c0.47-0.91,0.821-0.75,1.63-1.245
					c0.348,1.138,0.812,3.502,0.277,4.655c-1.011,2.181-2.908,1.968-2.56-0.505c-0.342,0.432-1.338,0.878-1.766,1.273
					c-0.123-0.47-0.503-0.682-0.557-1.354c-0.74,0.755-1.688,1.588-2.803,1.237c0.133-0.377-0.069-0.372-0.182-0.586"/>
			</g>
			<g>
				<path fill="#ACB537" d="M140.57,17.063c0.067-1.13,0.51-4.303,1.713-5.71c1.127,0.074,1.837,0.692,2.021,1.782
					c0.363-1.123,1.254-1.709,2.406-1.39c-0.068,0.708,0.234,0.999,0.009,1.713c0.543-0.869,0.883-0.687,1.727-1.108
					c0.255,1.158,0.522,3.559-0.103,4.66c-1.187,2.097-3.057,1.72-2.51-0.711c-0.378,0.406-1.403,0.76-1.865,1.125
					c-0.084-0.476-0.443-0.727-0.442-1.397c-0.801,0.693-1.813,1.445-2.896,1.004c0.164-0.366-0.039-0.375-0.134-0.598"/>
			</g>
			<g>
				<path fill="#ACB537" d="M147.7,19.849c0.161-1.125,0.858-4.247,2.173-5.553c1.116,0.167,1.772,0.842,1.868,1.94
					c0.452-1.086,1.39-1.603,2.51-1.187c-0.125,0.699,0.153,1.011-0.129,1.705c0.611-0.822,0.933-0.607,1.811-0.965
					c0.158,1.18,0.233,3.588-0.48,4.638c-1.35,1.989-3.189,1.471-2.444-0.913c-0.407,0.371-1.463,0.649-1.949,0.97
					c-0.045-0.483-0.386-0.755-0.329-1.427c-0.854,0.625-1.925,1.292-2.968,0.765c0.193-0.351-0.008-0.378-0.084-0.608"/>
			</g>
			<g>
				<path fill="#ACB537" d="M154.583,23.205c0.249-1.105,1.198-4.164,2.613-5.358c1.101,0.255,1.7,0.98,1.705,2.084
					c0.54-1.049,1.514-1.484,2.599-0.983c-0.182,0.688,0.069,1.023-0.268,1.691c0.676-0.771,0.981-0.536,1.882-0.816
					c0.065,1.184-0.057,3.597-0.851,4.583c-1.508,1.879-3.295,1.207-2.363-1.105c-0.438,0.341-1.508,0.524-2.021,0.81
					c-0.007-0.483-0.321-0.789-0.213-1.45c-0.901,0.555-2.023,1.133-3.02,0.522c0.221-0.334,0.021-0.376-0.036-0.611"/>
			</g>
			<g>
				<path fill="#ACB537" d="M161.174,27.106c0.339-1.084,1.53-4.056,3.035-5.132c1.075,0.344,1.615,1.114,1.533,2.214
					c0.62-0.999,1.629-1.361,2.667-0.771c-0.235,0.67-0.01,1.021-0.4,1.663c0.734-0.713,1.019-0.452,1.941-0.665
					c-0.032,1.189-0.342,3.579-1.214,4.502c-1.649,1.75-3.383,0.943-2.268-1.291c-0.462,0.301-1.548,0.406-2.08,0.646
					c0.034-0.486-0.26-0.807-0.097-1.461c-0.942,0.48-2.107,0.967-3.053,0.279c0.247-0.315,0.053-0.375,0.015-0.614"/>
			</g>
			<g>
				<path fill="#ACB537" d="M167.437,31.521c0.421-1.051,1.846-3.919,3.433-4.874c1.045,0.427,1.521,1.238,1.352,2.328
					c0.7-0.95,1.729-1.226,2.721-0.559c-0.289,0.65-0.093,1.021-0.532,1.627c0.791-0.656,1.053-0.373,1.987-0.509
					c-0.123,1.179-0.624,3.542-1.563,4.39c-1.785,1.618-3.446,0.672-2.159-1.465c-0.488,0.269-1.571,0.278-2.125,0.479
					c0.069-0.479-0.194-0.828,0.021-1.466c-0.98,0.407-2.18,0.799-3.065,0.036c0.271-0.295,0.081-0.368,0.061-0.609"/>
			</g>
			<g>
				<path fill="#ACB537" d="M173.331,36.419c0.504-1.016,2.151-3.766,3.806-4.589c1.009,0.508,1.42,1.353,1.165,2.427
					c0.77-0.89,1.822-1.088,2.755-0.343c-0.337,0.624-0.171,1.008-0.657,1.58c0.837-0.589,1.078-0.289,2.021-0.352
					c-0.218,1.167-0.898,3.481-1.904,4.256c-1.904,1.472-3.487,0.399-2.037-1.63c-0.504,0.226-1.592,0.157-2.156,0.311
					c0.109-0.475-0.129-0.84,0.135-1.459c-1.007,0.326-2.234,0.623-3.06-0.206c0.293-0.272,0.11-0.361,0.11-0.604"/>
			</g>
			<g>
				<path fill="#ACB537" d="M178.827,41.765c0.579-0.972,2.435-3.582,4.151-4.277c0.966,0.585,1.31,1.46,0.972,2.51
					c0.84-0.829,1.898-0.94,2.773-0.127c-0.387,0.597-0.251,0.993-0.778,1.524c0.883-0.525,1.096-0.203,2.041-0.194
					c-0.308,1.147-1.165,3.4-2.228,4.094c-2.013,1.32-3.51,0.128-1.904-1.784c-0.523,0.189-1.598,0.031-2.175,0.143
					c0.144-0.462-0.063-0.847,0.248-1.445c-1.03,0.248-2.277,0.448-3.033-0.445c0.313-0.249,0.139-0.352,0.155-0.592"/>
			</g>
			<g>
				<path fill="#ACB537" d="M183.888,47.526c0.655-0.925,2.71-3.385,4.473-3.942c0.918,0.658,1.192,1.556,0.773,2.578
					c0.899-0.76,1.969-0.792,2.775,0.087c-0.43,0.563-0.326,0.97-0.895,1.459c0.918-0.453,1.111-0.119,2.051-0.036
					c-0.396,1.12-1.427,3.3-2.539,3.91c-2.109,1.161-3.507-0.146-1.761-1.926c-0.533,0.145-1.596-0.092-2.179-0.027
					c0.182-0.452,0.004-0.851,0.359-1.421c-1.046,0.167-2.304,0.269-2.99-0.679c0.331-0.224,0.165-0.339,0.202-0.579"/>
			</g>
			<g>
				<path fill="#ACB537" d="M188.491,53.662c0.724-0.872,2.959-3.163,4.763-3.584c0.863,0.727,1.067,1.645,0.572,2.63
					c0.957-0.689,2.021-0.636,2.759,0.302c-0.474,0.53-0.4,0.942-1.004,1.385c0.954-0.382,1.114-0.031,2.047,0.124
					c-0.48,1.085-1.675,3.179-2.831,3.702c-2.192,0.994-3.488-0.415-1.607-2.057c-0.546,0.106-1.584-0.215-2.17-0.194
					c0.213-0.435,0.067-0.847,0.468-1.389c-1.058,0.086-2.319,0.091-2.93-0.908c0.349-0.197,0.192-0.327,0.246-0.561"/>
			</g>
			<g>
				<path fill="#ACB537" d="M192.604,60.136c0.789-0.814,3.198-2.927,5.025-3.207c0.806,0.791,0.939,1.721,0.367,2.666
					c1.006-0.613,2.067-0.48,2.729,0.513c-0.511,0.491-0.472,0.908-1.108,1.304c0.977-0.306,1.115,0.053,2.032,0.28
					c-0.563,1.045-1.916,3.042-3.109,3.474c-2.262,0.822-3.444-0.683-1.444-2.174c-0.549,0.062-1.562-0.336-2.148-0.361
					c0.249-0.418,0.134-0.84,0.573-1.349c-1.059,0.003-2.318-0.088-2.851-1.131c0.362-0.17,0.215-0.311,0.289-0.541"/>
			</g>
			<g>
				<path fill="#ACB537" d="M196.21,66.907c0.849-0.75,3.41-2.67,5.257-2.81c0.741,0.851,0.803,1.788,0.161,2.687
					c1.053-0.535,2.095-0.319,2.681,0.721c-0.549,0.452-0.541,0.87-1.205,1.215c1.001-0.231,1.108,0.139,2.004,0.436
					c-0.639,0.998-2.146,2.886-3.365,3.224c-2.32,0.647-3.382-0.945-1.273-2.278c-0.557,0.021-1.529-0.457-2.114-0.525
					c0.277-0.397,0.196-0.827,0.676-1.302c-1.059-0.077-2.307-0.266-2.755-1.347c0.374-0.142,0.238-0.292,0.328-0.517"/>
			</g>
			<g>
				<path fill="#ACB537" d="M199.282,73.937c0.905-0.684,3.61-2.403,5.458-2.399c0.674,0.905,0.662,1.845-0.045,2.691
					c1.086-0.451,2.116-0.158,2.616,0.925c-0.582,0.408-0.603,0.825-1.293,1.119c1.013-0.153,1.091,0.225,1.965,0.588
					c-0.719,0.947-2.358,2.712-3.605,2.957c-2.358,0.466-3.302-1.201-1.094-2.369c-0.551-0.024-1.496-0.571-2.067-0.687
					c0.31-0.375,0.258-0.809,0.772-1.245c-1.046-0.159-2.277-0.443-2.645-1.555c0.385-0.112,0.261-0.273,0.369-0.491"/>
			</g>
			<g>
				<path fill="#ACB537" d="M201.808,81.181c0.953-0.612,3.78-2.118,5.625-1.973c0.604,0.954,0.521,1.89-0.252,2.679
					c1.121-0.367,2.121,0.005,2.54,1.122c-0.608,0.361-0.668,0.777-1.377,1.017c1.021-0.075,1.076,0.306,1.914,0.736
					c-0.785,0.889-2.56,2.524-3.819,2.672c-2.392,0.285-3.195-1.452-0.91-2.446c-0.549-0.065-1.443-0.685-2.01-0.842
					c0.336-0.35,0.324-0.788,0.867-1.183c-1.031-0.239-2.237-0.616-2.517-1.753c0.392-0.083,0.28-0.252,0.403-0.46"/>
			</g>
			<g>
				<path fill="#ACB537" d="M203.772,88.599c0.997-0.537,3.929-1.823,5.759-1.538c0.527,0.997,0.374,1.924-0.456,2.652
					c1.147-0.281,2.112,0.167,2.447,1.312c-0.638,0.314-0.726,0.724-1.451,0.909c1.026,0.002,1.049,0.387,1.853,0.88
					c-0.849,0.826-2.746,2.322-4.011,2.374c-2.406,0.103-3.078-1.69-0.722-2.508c-0.547-0.106-1.385-0.793-1.939-0.993
					c0.36-0.323,0.381-0.76,0.955-1.114c-1.014-0.315-2.185-0.784-2.376-1.94c0.396-0.053,0.3-0.231,0.438-0.428"/>
			</g>
			<g>
				<path fill="#ACB537" d="M205.164,96.146c1.04-0.46,4.058-1.519,5.861-1.096c0.449,1.034,0.225,1.946-0.655,2.609
					c1.163-0.193,2.093,0.327,2.339,1.493c-0.66,0.265-0.777,0.667-1.515,0.796c1.024,0.08,1.014,0.465,1.78,1.017
					c-0.909,0.759-2.913,2.108-4.178,2.064c-2.407-0.079-2.943-1.918-0.53-2.556c-0.536-0.147-1.325-0.895-1.858-1.137
					c0.383-0.295,0.435-0.729,1.034-1.038c-0.985-0.392-2.116-0.948-2.222-2.115c0.399-0.022,0.315-0.208,0.471-0.394"/>
			</g>
			<g>
				<path fill="#ACB537" d="M205.982,103.78c1.069-0.381,4.165-1.21,5.927-0.652c0.372,1.065,0.078,1.957-0.849,2.552
					c1.172-0.105,2.064,0.482,2.22,1.664c-0.677,0.215-0.824,0.606-1.568,0.681c1.016,0.156,0.974,0.54,1.699,1.146
					c-0.966,0.689-3.062,1.884-4.32,1.747c-2.395-0.257-2.793-2.133-0.338-2.589c-0.523-0.187-1.257-0.992-1.769-1.273
					c0.404-0.266,0.488-0.695,1.108-0.958c-0.951-0.465-2.039-1.105-2.057-2.277c0.399,0.008,0.33-0.183,0.499-0.357"/>
			</g>
		</g>
	</g>
</g>
<g>
	<ellipse fill="#B7C936" cx="110.042" cy="109.893" rx="91.1" ry="93.581"/>
	<g>
		<g>
			<g>
				<path fill="#B5CE34" d="M199.438,111.6c-0.644-0.244-1.393-0.856-1.793-1.227c1.47-0.589,5.244-0.854,6.266,0.505
					c-0.573,0.36-0.791,0.908-1.575,1.094c1.303,0.416,2.635,1.715,0.436,2.269c0.937-0.039,1.048,0.44,1.736,0.743
					c-0.802,1.748-6.104,2.657-5.678,0.203c0.471-0.08,0.744-0.273,1.244-0.277c-0.729-0.794-2.42-2.014-0.602-3.054
					c-0.2-0.249-0.479-0.385-0.812-0.523"/>
			</g>
			<g>
				<path fill="#B5CE34" d="M199.085,118.298c-0.624-0.288-1.332-0.952-1.701-1.349c1.502-0.485,5.292-0.486,6.213,0.942
					c-0.599,0.319-0.85,0.851-1.648,0.981c1.271,0.506,2.509,1.896,0.275,2.294c0.938,0.027,1.012,0.513,1.679,0.863
					c-0.925,1.688-6.274,2.22-5.677-0.198c0.476-0.046,0.764-0.219,1.262-0.188c-0.676-0.844-2.271-2.179-0.387-3.088
					c-0.182-0.263-0.448-0.418-0.773-0.579"/>
			</g>
			<g>
				<path fill="#B5CE34" d="M198.26,124.952c-0.606-0.332-1.259-1.043-1.602-1.466c1.532-0.377,5.311-0.109,6.13,1.381
					c-0.622,0.275-0.905,0.789-1.713,0.862c1.23,0.595,2.366,2.07,0.111,2.309c0.935,0.094,0.973,0.583,1.612,0.98
					c-1.044,1.619-6.415,1.766-5.647-0.603c0.479-0.012,0.774-0.164,1.27-0.099c-0.609-0.889-2.111-2.334-0.163-3.106
					c-0.16-0.274-0.421-0.449-0.732-0.633"/>
			</g>
			<g>
				<path fill="#B5CE34" d="M196.961,131.53c-0.581-0.375-1.177-1.13-1.493-1.577c1.558-0.265,5.306,0.271,6.018,1.816
					c-0.641,0.23-0.962,0.722-1.771,0.737c1.185,0.682,2.211,2.235-0.054,2.311c0.925,0.161,0.927,0.652,1.536,1.094
					c-1.157,1.54-6.523,1.302-5.589-1.006c0.478,0.022,0.784-0.108,1.273-0.007c-0.542-0.931-1.941-2.48,0.061-3.11
					c-0.144-0.285-0.389-0.479-0.687-0.684"/>
			</g>
			<g>
				<path fill="#B5CE34" d="M195.194,137.997c-0.552-0.415-1.094-1.211-1.375-1.68c1.573-0.152,5.271,0.65,5.872,2.244
					c-0.656,0.184-1.014,0.65-1.819,0.608c1.131,0.765,2.044,2.389-0.222,2.301c0.912,0.227,0.879,0.717,1.454,1.201
					c-1.265,1.453-6.6,0.828-5.502-1.405c0.475,0.056,0.79-0.053,1.271,0.084c-0.473-0.966-1.758-2.613,0.284-3.098
					c-0.123-0.295-0.353-0.505-0.635-0.73"/>
			</g>
			<g>
				<path fill="#B5CE34" d="M192.968,144.32c-0.521-0.454-1.005-1.288-1.252-1.774c1.581-0.039,5.211,1.028,5.695,2.661
					c-0.667,0.136-1.058,0.575-1.858,0.476c1.073,0.845,1.866,2.529-0.387,2.278c0.893,0.293,0.825,0.779,1.363,1.305
					c-1.366,1.357-6.643,0.348-5.386-1.8c0.469,0.09,0.791,0.005,1.261,0.176c-0.401-0.998-1.564-2.733,0.507-3.069
					c-0.102-0.303-0.315-0.528-0.58-0.774"/>
			</g>
			<g>
				<path fill="#B5CE34" d="M190.289,150.465c-0.486-0.49-0.908-1.356-1.119-1.86c1.579,0.076,5.123,1.403,5.487,3.066
					c-0.676,0.088-1.097,0.498-1.888,0.341c1.01,0.919,1.678,2.657-0.551,2.244c0.87,0.356,0.766,0.836,1.266,1.399
					c-1.461,1.256-6.651-0.134-5.241-2.185c0.461,0.124,0.788,0.062,1.244,0.267c-0.328-1.025-1.362-2.84,0.728-3.024
					c-0.079-0.31-0.276-0.55-0.523-0.814"/>
			</g>
			<g>
				<path fill="#B5CE34" d="M187.174,156.4c-0.45-0.525-0.808-1.419-0.982-1.937c1.569,0.189,5.009,1.77,5.251,3.455
					c-0.68,0.038-1.129,0.418-1.907,0.203c0.94,0.99,1.481,2.772-0.712,2.198c0.841,0.418,0.703,0.89,1.161,1.487
					c-1.548,1.147-6.625-0.616-5.069-2.559c0.452,0.158,0.782,0.119,1.223,0.356c-0.256-1.047-1.153-2.93,0.944-2.964
					c-0.057-0.314-0.236-0.568-0.463-0.85"/>
			</g>
			<g>
				<path fill="#B5CE34" d="M183.637,162.094c-0.411-0.556-0.703-1.474-0.84-2.002c1.551,0.302,4.868,2.128,4.986,3.826
					c-0.682-0.012-1.154,0.336-1.917,0.063c0.866,1.057,1.277,2.874-0.869,2.142c0.808,0.479,0.637,0.938,1.05,1.568
					c-1.627,1.032-6.563-1.097-4.871-2.921c0.439,0.19,0.773,0.178,1.194,0.445c-0.18-1.064-0.936-3.005,1.156-2.889
					c-0.031-0.315-0.193-0.583-0.399-0.881"/>
			</g>
			<g>
				<path fill="#B5CE34" d="M179.695,167.516c-0.369-0.584-0.597-1.522-0.691-2.059c1.522,0.414,4.7,2.478,4.694,4.179
					c-0.678-0.06-1.176,0.251-1.917-0.076c0.787,1.117,1.065,2.96-1.023,2.073c0.771,0.535,0.567,0.982,0.935,1.641
					c-1.698,0.911-6.468-1.572-4.646-3.269c0.424,0.222,0.759,0.233,1.16,0.532c-0.105-1.076-0.713-3.063,1.362-2.797
					c-0.009-0.317-0.149-0.596-0.334-0.907"/>
			</g>
			<g>
				<path fill="#B5CE34" d="M175.369,172.635c-0.322-0.607-0.485-1.563-0.539-2.103c1.488,0.522,4.508,2.813,4.377,4.509
					c-0.67-0.107-1.192,0.165-1.907-0.215c0.705,1.171,0.848,3.03-1.171,1.992c0.729,0.59,0.494,1.022,0.812,1.706
					c-1.761,0.784-6.335-2.043-4.395-3.601c0.406,0.252,0.738,0.288,1.117,0.614c-0.023-1.078-0.487-3.107,1.562-2.689
					c0.015-0.317-0.104-0.603-0.266-0.928"/>
			</g>
			<g>
				<path fill="#B5CE34" d="M170.681,177.423c-0.276-0.629-0.368-1.594-0.384-2.137c1.447,0.633,4.291,3.138,4.034,4.818
					c-0.658-0.155-1.202,0.075-1.886-0.354c0.619,1.222,0.621,3.084-1.314,1.901c0.684,0.642,0.42,1.059,0.684,1.761
					c-1.814,0.652-6.165-2.502-4.117-3.914c0.387,0.281,0.715,0.341,1.068,0.695c0.058-1.076-0.259-3.136,1.757-2.566
					c0.037-0.316-0.062-0.611-0.197-0.945"/>
			</g>
			<g>
				<path fill="#B5CE34" d="M165.653,181.853c-0.23-0.648-0.249-1.615-0.226-2.159c1.398,0.74,4.047,3.444,3.669,5.104
					c-0.646-0.203-1.206-0.015-1.854-0.492c0.525,1.263,0.39,3.12-1.453,1.799c0.636,0.691,0.34,1.085,0.551,1.806
					c-1.858,0.517-5.961-2.951-3.814-4.207c0.364,0.308,0.687,0.392,1.013,0.771c0.139-1.066-0.027-3.147,1.942-2.429
					c0.061-0.312-0.017-0.614-0.127-0.958"/>
			</g>
			<g>
				<path fill="#B5CE34" d="M160.312,185.896c-0.183-0.665-0.127-1.628-0.064-2.17c1.339,0.842,3.779,3.734,3.279,5.363
					c-0.631-0.254-1.2-0.104-1.812-0.629c0.429,1.297,0.155,3.141-1.583,1.686c0.582,0.737,0.256,1.104,0.414,1.841
					c-1.893,0.377-5.725-3.391-3.489-4.479c0.34,0.334,0.655,0.441,0.952,0.844c0.218-1.054,0.207-3.141,2.118-2.276
					c0.083-0.308,0.028-0.614-0.057-0.965"/>
			</g>
			<g>
				<path fill="#B5CE34" d="M154.684,189.53c-0.133-0.68-0.004-1.632,0.099-2.169c1.271,0.938,3.488,4.007,2.867,5.594
					c-0.61-0.302-1.188-0.191-1.76-0.764c0.33,1.326-0.081,3.145-1.706,1.562c0.524,0.778,0.172,1.121,0.274,1.868
					c-1.917,0.233-5.453-3.814-3.143-4.731c0.315,0.361,0.621,0.492,0.887,0.915c0.295-1.038,0.443-3.115,2.283-2.111
					c0.106-0.3,0.074-0.61,0.016-0.967"/>
			</g>
			<g>
				<path fill="#B5CE34" d="M148.8,192.729c-0.081-0.688,0.117-1.631,0.262-2.155c1.194,1.029,3.176,4.259,2.436,5.793
					c-0.586-0.346-1.17-0.279-1.698-0.895c0.229,1.348-0.319,3.131-1.819,1.428c0.464,0.816,0.086,1.132,0.132,1.885
					c-1.93,0.088-5.146-4.22-2.773-4.958c0.286,0.384,0.582,0.539,0.814,0.981c0.372-1.016,0.68-3.069,2.436-1.933
					c0.13-0.29,0.122-0.602,0.09-0.962"/>
			</g>
			<g>
				<path fill="#B5CE34" d="M142.689,195.468c-0.027-0.688,0.24-1.619,0.426-2.127c1.111,1.116,2.842,4.489,1.986,5.961
					c-0.558-0.388-1.146-0.369-1.625-1.021c0.126,1.361-0.558,3.098-1.924,1.285c0.4,0.849,0,1.135-0.013,1.889
					c-1.931-0.06-4.809-4.603-2.386-5.155c0.256,0.403,0.539,0.581,0.737,1.04c0.448-0.982,0.912-3.008,2.575-1.74
					c0.151-0.28,0.168-0.589,0.163-0.952"/>
			</g>
			<g>
				<path fill="#B5CE34" d="M136.388,197.731c0.026-0.686,0.364-1.596,0.588-2.089c1.023,1.2,2.49,4.695,1.522,6.097
					c-0.525-0.428-1.114-0.456-1.541-1.144c0.021,1.367-0.794,3.047-2.017,1.134c0.333,0.877-0.088,1.133-0.158,1.883
					c-1.921-0.209-4.44-4.959-1.982-5.324c0.224,0.422,0.492,0.621,0.654,1.094c0.524-0.943,1.141-2.93,2.702-1.537
					c0.172-0.268,0.213-0.575,0.236-0.936"/>
			</g>
			<g>
				<path fill="#B5CE34" d="M129.932,199.503c0.079-0.682,0.486-1.562,0.746-2.037c0.929,1.276,2.121,4.874,1.05,6.196
					c-0.491-0.467-1.077-0.542-1.449-1.259c-0.085,1.365-1.027,2.977-2.098,0.975c0.265,0.9-0.175,1.124-0.304,1.865
					c-1.899-0.355-4.044-5.286-1.565-5.461c0.19,0.438,0.443,0.656,0.568,1.141c0.595-0.899,1.363-2.833,2.812-1.324
					c0.191-0.254,0.256-0.558,0.307-0.914"/>
			</g>
			<g>
				<path fill="#B5CE34" d="M123.357,200.772c0.132-0.673,0.605-1.52,0.901-1.974c0.827,1.344,1.739,5.023,0.569,6.259
					c-0.454-0.503-1.031-0.623-1.349-1.366c-0.188,1.354-1.252,2.889-2.166,0.81c0.194,0.918-0.261,1.106-0.445,1.837
					c-1.866-0.501-3.627-5.582-1.142-5.565c0.156,0.451,0.392,0.688,0.479,1.181c0.662-0.852,1.577-2.72,2.905-1.104
					c0.211-0.238,0.299-0.536,0.377-0.889"/>
			</g>
			<g>
				<path fill="#B5CE34" d="M116.705,201.533c0.183-0.661,0.72-1.47,1.051-1.898c0.722,1.402,1.349,5.142,0.087,6.283
					c-0.414-0.537-0.98-0.699-1.239-1.466c-0.293,1.336-1.47,2.784-2.222,0.643c0.124,0.931-0.345,1.082-0.584,1.797
					c-1.821-0.643-3.191-5.841-0.714-5.636c0.121,0.462,0.338,0.717,0.388,1.215c0.726-0.802,1.781-2.592,2.982-0.88
					c0.229-0.222,0.338-0.511,0.443-0.856"/>
			</g>
			<g>
				<path fill="#B5CE34" d="M110.013,201.786c0.232-0.65,0.83-1.411,1.191-1.814c0.613,1.452,0.954,5.228-0.39,6.271
					c-0.372-0.569-0.924-0.77-1.124-1.556c-0.393,1.311-1.675,2.663-2.264,0.474c0.053,0.937-0.425,1.052-0.718,1.745
					c-1.767-0.778-2.741-6.063-0.286-5.672c0.086,0.471,0.283,0.74,0.295,1.239c0.783-0.743,1.972-2.448,3.041-0.65
					c0.245-0.202,0.376-0.483,0.508-0.821"/>
			</g>
			<g>
				<path fill="#B5CE34" d="M103.32,201.529c0.281-0.632,0.934-1.339,1.325-1.719c0.501,1.496,0.556,5.283-0.864,6.226
					c-0.327-0.599-0.863-0.838-1.003-1.636c-0.491,1.275-1.874,2.526-2.293,0.299c-0.019,0.938-0.504,1.016-0.85,1.686
					c-1.704-0.911-2.27-6.254,0.147-5.677c0.05,0.476,0.226,0.758,0.2,1.257c0.838-0.678,2.152-2.295,3.081-0.416
					c0.259-0.184,0.412-0.457,0.569-0.782"/>
			</g>
			<g>
				<path fill="#B5CE34" d="M96.668,200.764c0.329-0.608,1.033-1.262,1.453-1.612c0.385,1.532,0.15,5.311-1.338,6.142
					c-0.281-0.621-0.796-0.903-0.875-1.708c-0.587,1.234-2.062,2.376-2.31,0.123c-0.09,0.935-0.581,0.974-0.976,1.614
					c-1.629-1.039-1.782-6.41,0.583-5.648c0.014,0.478,0.167,0.772,0.103,1.269c0.887-0.61,2.322-2.124,3.103-0.178
					c0.273-0.165,0.446-0.424,0.627-0.737"/>
			</g>
			<g>
				<path fill="#B5CE34" d="M90.095,199.49c0.375-0.582,1.127-1.18,1.573-1.496c0.266,1.557-0.259,5.307-1.807,6.021
					c-0.232-0.641-0.725-0.962-0.741-1.771c-0.68,1.185-2.239,2.21-2.312-0.056c-0.162,0.925-0.654,0.926-1.098,1.534
					c-1.544-1.162-1.282-6.528,1.017-5.587c-0.023,0.478,0.106,0.784,0.004,1.273c0.932-0.541,2.479-1.938,3.108,0.062
					c0.285-0.144,0.477-0.389,0.682-0.687"/>
			</g>
			<g>
				<path fill="#B5CE34" d="M83.64,197.713c0.418-0.551,1.215-1.089,1.683-1.369c0.145,1.572-0.667,5.27-2.266,5.862
					c-0.182-0.657-0.648-1.014-0.602-1.822c-0.77,1.129-2.403,2.031-2.301-0.234c-0.233,0.91-0.723,0.874-1.213,1.446
					c-1.45-1.276-0.776-6.608,1.444-5.492c-0.061,0.476,0.045,0.79-0.094,1.27c0.971-0.469,2.621-1.74,3.094,0.301
					c0.295-0.12,0.505-0.351,0.732-0.632"/>
			</g>
			<g>
				<path fill="#B5CE34" d="M77.34,195.445c0.459-0.518,1.296-0.994,1.784-1.236c0.024,1.577-1.07,5.204-2.709,5.671
					c-0.131-0.669-0.569-1.06-0.46-1.863c-0.854,1.066-2.552,1.842-2.276-0.41c-0.302,0.889-0.789,0.815-1.32,1.35
					c-1.348-1.384-0.268-6.649,1.861-5.366c-0.096,0.468-0.016,0.793-0.191,1.26c1.005-0.396,2.746-1.532,3.062,0.536
					c0.302-0.096,0.531-0.311,0.778-0.573"/>
			</g>
			<g>
				<path fill="#B5CE34" d="M71.232,192.701c0.497-0.479,1.37-0.896,1.873-1.097c-0.095,1.574-1.465,5.107-3.134,5.446
					c-0.08-0.675-0.486-1.101-0.316-1.893c-0.934,0.999-2.685,1.643-2.238-0.582c-0.368,0.863-0.848,0.754-1.419,1.246
					c-1.238-1.48,0.239-6.652,2.264-5.21c-0.131,0.459-0.076,0.789-0.287,1.242c1.033-0.318,2.854-1.318,3.013,0.768
					c0.31-0.073,0.552-0.267,0.82-0.511"/>
			</g>
			<g>
				<path fill="#B5CE34" d="M65.35,189.499c0.529-0.437,1.434-0.79,1.951-0.95c-0.214,1.562-1.85,4.981-3.538,5.192
					c-0.03-0.677-0.4-1.135-0.172-1.911c-1.006,0.926-2.801,1.437-2.188-0.75c-0.432,0.833-0.904,0.69-1.509,1.137
					c-1.122-1.571,0.738-6.614,2.65-5.025c-0.165,0.448-0.134,0.781-0.379,1.217c1.052-0.236,2.946-1.099,2.946,0.993
					c0.314-0.05,0.571-0.224,0.855-0.446"/>
			</g>
			<g>
				<path fill="#B5CE34" d="M59.725,185.862c0.561-0.396,1.488-0.678,2.017-0.802c-0.333,1.545-2.219,4.829-3.919,4.913
					c0.021-0.676-0.312-1.164-0.028-1.919c-1.074,0.849-2.899,1.221-2.125-0.911c-0.493,0.798-0.954,0.621-1.589,1.02
					c-1-1.649,1.228-6.538,3.018-4.812c-0.198,0.434-0.192,0.768-0.469,1.185c1.065-0.156,3.022-0.877,2.864,1.212
					c0.318-0.027,0.587-0.182,0.887-0.382"/>
			</g>
			<g>
				<path fill="#B5CE34" d="M54.386,181.814c0.59-0.354,1.533-0.562,2.071-0.648c-0.448,1.517-2.573,4.648-4.275,4.607
					c0.072-0.675-0.225-1.185,0.115-1.915c-1.133,0.765-2.981,1.001-2.051-1.066c-0.552,0.76-0.995,0.547-1.66,0.897
					c-0.874-1.72,1.708-6.428,3.366-4.574c-0.229,0.419-0.248,0.752-0.555,1.146c1.073-0.075,3.081-0.651,2.766,1.422
					c0.319-0.003,0.599-0.138,0.914-0.315"/>
			</g>
			<g>
				<path fill="#B5CE34" d="M49.361,177.382c0.617-0.312,1.57-0.447,2.114-0.494c-0.558,1.479-2.909,4.444-4.604,4.279
					c0.124-0.67-0.137-1.196,0.256-1.901c-1.186,0.678-3.046,0.778-1.966-1.215c-0.606,0.717-1.032,0.471-1.721,0.772
					c-0.746-1.777,2.178-6.287,3.693-4.313c-0.261,0.401-0.302,0.731-0.638,1.103c1.077,0.002,3.12-0.422,2.653,1.623
					c0.319,0.02,0.608-0.094,0.936-0.248"/>
			</g>
			<g>
				<path fill="#B5CE34" d="M44.675,172.591c0.639-0.267,1.6-0.332,2.145-0.338c-0.664,1.433-3.228,4.22-4.906,3.929
					c0.174-0.658-0.051-1.2,0.396-1.877c-1.233,0.59-3.096,0.554-1.873-1.355c-0.657,0.67-1.063,0.395-1.774,0.646
					c-0.613-1.827,2.634-6.112,4-4.032c-0.29,0.381-0.357,0.708-0.718,1.053c1.077,0.079,3.141-0.19,2.528,1.812
					c0.314,0.046,0.613-0.049,0.951-0.178"/>
			</g>
			<g>
				<path fill="#B5CE34" d="M40.353,167.469c0.655-0.218,1.622-0.216,2.164-0.18c-0.765,1.379-3.528,3.973-5.179,3.56
					c0.219-0.644,0.037-1.202,0.532-1.844c-1.273,0.498-3.129,0.327-1.769-1.488c-0.704,0.621-1.09,0.316-1.817,0.515
					c-0.479-1.865,3.073-5.904,4.284-3.73c-0.316,0.358-0.407,0.681-0.793,0.999c1.069,0.156,3.145,0.04,2.39,1.991
					c0.311,0.068,0.613-0.002,0.96-0.106"/>
			</g>
			<g>
				<path fill="#B5CE34" d="M36.416,162.044c0.666-0.167,1.634-0.098,2.17-0.021c-0.863,1.319-3.809,3.705-5.424,3.173
					c0.264-0.625,0.125-1.196,0.665-1.8c-1.306,0.404-3.145,0.1-1.655-1.613c-0.747,0.568-1.111,0.236-1.851,0.383
					c-0.341-1.896,3.494-5.666,4.544-3.41c-0.341,0.334-0.456,0.648-0.863,0.938c1.054,0.234,3.135,0.268,2.239,2.159
					c0.306,0.09,0.611,0.043,0.965-0.036"/>
			</g>
			<g>
				<path fill="#B5CE34" d="M32.882,156.349c0.676-0.119,1.636,0.021,2.167,0.136c-0.958,1.255-4.068,3.42-5.64,2.771
					c0.308-0.604,0.213-1.185,0.793-1.747c-1.333,0.31-3.144-0.128-1.534-1.729c-0.786,0.513-1.126,0.156-1.873,0.247
					c-0.203-1.916,3.894-5.397,4.779-3.071c-0.364,0.309-0.501,0.614-0.928,0.873c1.032,0.311,3.107,0.495,2.076,2.316
					c0.298,0.112,0.607,0.087,0.965,0.034"/>
			</g>
			<g>
				<path fill="#B5CE34" d="M29.77,150.411c0.684-0.069,1.63,0.141,2.151,0.293c-1.047,1.183-4.306,3.116-5.826,2.355
					c0.351-0.579,0.299-1.166,0.918-1.685c-1.353,0.212-3.125-0.356-1.405-1.835c-0.821,0.453-1.136,0.074-1.885,0.11
					c-0.064-1.925,4.273-5.102,4.988-2.718c-0.386,0.282-0.544,0.576-0.989,0.804c1.006,0.386,3.064,0.719,1.903,2.462
					c0.29,0.133,0.6,0.13,0.96,0.103"/>
			</g>
			<g>
				<path fill="#B5CE34" d="M27.096,144.265c0.687-0.021,1.615,0.258,2.125,0.447c-1.131,1.104-4.52,2.797-5.981,1.929
					c0.391-0.553,0.383-1.143,1.037-1.614c-1.364,0.114-3.091-0.581-1.269-1.932c-0.851,0.393-1.138-0.008-1.888-0.026
					c0.075-1.924,4.63-4.779,5.171-2.35c-0.405,0.253-0.584,0.535-1.044,0.729c0.976,0.457,3.004,0.938,1.72,2.593
					c0.28,0.153,0.589,0.173,0.95,0.173"/>
			</g>
			<g>
				<path fill="#B5CE34" d="M24.873,137.94c0.686,0.029,1.592,0.373,2.086,0.6c-1.208,1.02-4.709,2.463-6.105,1.491
					c0.43-0.522,0.464-1.111,1.151-1.534c-1.369,0.015-3.041-0.803-1.126-2.019c-0.877,0.331-1.134-0.09-1.882-0.161
					c0.214-1.914,4.963-4.435,5.328-1.972c-0.422,0.223-0.622,0.491-1.095,0.652c0.94,0.526,2.929,1.152,1.529,2.71
					c0.267,0.173,0.575,0.215,0.935,0.241"/>
			</g>
			<g>
				<path fill="#B5CE34" d="M23.11,131.472c0.682,0.079,1.562,0.487,2.038,0.749c-1.276,0.93-4.875,2.117-6.196,1.048
					c0.467-0.49,0.542-1.074,1.259-1.448c-1.365-0.083-2.977-1.018-0.978-2.093c-0.9,0.267-1.123-0.172-1.866-0.297
					c0.351-1.893,5.27-4.066,5.456-1.584c-0.437,0.192-0.655,0.446-1.139,0.573c0.902,0.591,2.838,1.359,1.331,2.812
					c0.254,0.191,0.558,0.256,0.915,0.308"/>
			</g>
			<g>
				<path fill="#B5CE34" d="M21.816,124.894c0.676,0.127,1.524,0.598,1.979,0.893c-1.337,0.836-5.013,1.763-6.254,0.602
					c0.502-0.456,0.615-1.032,1.358-1.354c-1.355-0.181-2.895-1.228-0.826-2.157c-0.917,0.202-1.106-0.251-1.839-0.429
					c0.485-1.862,5.544-3.682,5.554-1.191c-0.45,0.161-0.687,0.398-1.177,0.49c0.86,0.654,2.733,1.56,1.127,2.901
					c0.24,0.21,0.536,0.295,0.891,0.372"/>
			</g>
			<g>
				<path fill="#B5CE34" d="M20.994,118.238c0.669,0.175,1.475,0.705,1.911,1.031c-1.395,0.739-5.124,1.401-6.282,0.155
					c0.537-0.419,0.686-0.985,1.451-1.254c-1.339-0.276-2.799-1.43-0.672-2.21c-0.929,0.137-1.084-0.329-1.802-0.558
					c0.616-1.822,5.786-3.281,5.622-0.796c-0.459,0.129-0.71,0.349-1.206,0.406c0.807,0.713,2.618,1.749,0.917,2.974
					c0.222,0.227,0.518,0.333,0.864,0.435"/>
			</g>
			<g>
				<path fill="#B5CE34" d="M20.646,111.54c0.653,0.221,1.419,0.808,1.833,1.164c-1.447,0.64-5.209,1.036-6.28-0.287
					c0.564-0.38,0.759-0.935,1.537-1.148c-1.315-0.37-2.692-1.622-0.514-2.252c-0.935,0.072-1.064-0.403-1.761-0.682
					c0.741-1.774,6.004-2.87,5.666-0.401c-0.468,0.096-0.733,0.299-1.233,0.321c0.754,0.768,2.491,1.928,0.707,3.031
					c0.209,0.241,0.493,0.368,0.832,0.494"/>
			</g>
			<g>
				<path fill="#B5CE34" d="M20.765,104.833c0.633,0.266,1.364,0.904,1.748,1.289c-1.487,0.537-5.272,0.671-6.243-0.724
					c0.585-0.34,0.82-0.88,1.612-1.039c-1.288-0.461-2.574-1.807-0.356-2.282c-0.938,0.006-1.03-0.477-1.709-0.804
					c0.864-1.719,6.193-2.44,5.681-0.002c-0.474,0.063-0.754,0.246-1.254,0.233c0.703,0.819,2.347,2.097,0.495,3.073
					c0.19,0.255,0.464,0.401,0.792,0.551"/>
			</g>
			<g>
				<path fill="#B5CE34" d="M21.353,98.153c0.617,0.311,1.297,0.999,1.653,1.409c-1.517,0.431-5.305,0.298-6.175-1.162
					c0.611-0.298,0.878-0.821,1.682-0.923c-1.251-0.551-2.438-1.985-0.194-2.302c-0.937-0.061-0.993-0.549-1.646-0.923
					c0.984-1.655,6.348-1.994,5.665,0.4c-0.478,0.029-0.769,0.192-1.266,0.144c0.644,0.867,2.192,2.258,0.275,3.1
					c0.17,0.268,0.435,0.433,0.753,0.605"/>
			</g>
			<g>
				<path fill="#B5CE34" d="M22.416,91.533c0.594,0.354,1.219,1.087,1.549,1.522c-1.546,0.321-5.312-0.08-6.078-1.599
					c0.632-0.253,0.935-0.756,1.743-0.801c-1.208-0.639-2.29-2.154-0.029-2.311c-0.93-0.128-0.95-0.619-1.575-1.039
					c1.1-1.58,6.473-1.534,5.621,0.805c-0.478-0.005-0.779,0.137-1.271,0.053c0.576,0.91,2.028,2.409,0.052,3.111
					c0.152,0.279,0.405,0.463,0.709,0.658"/>
			</g>
			<g>
				<path fill="#B5CE34" d="M23.949,85.006c0.567,0.396,1.137,1.171,1.436,1.629c-1.567,0.209-5.292-0.46-5.949-2.031
					c0.648-0.208,0.989-0.687,1.796-0.674c-1.158-0.724-2.128-2.313,0.138-2.307c-0.919-0.194-0.903-0.686-1.496-1.149
					c1.212-1.498,6.566-1.065,5.549,1.207c-0.476-0.039-0.787,0.081-1.272-0.039c0.507,0.949,1.851,2.549-0.172,3.106
					c0.134,0.29,0.371,0.491,0.661,0.707"/>
			</g>
			<g>
				<path fill="#B5CE34" d="M25.947,78.607c0.536,0.435,1.05,1.25,1.314,1.728c-1.578,0.096-5.245-0.84-5.788-2.454
					c0.662-0.16,1.037-0.613,1.84-0.542c-1.103-0.805-1.956-2.46,0.304-2.291c-0.903-0.26-0.853-0.749-1.41-1.254
					c1.317-1.406,6.625-0.589,5.447,1.604c-0.472-0.073-0.791,0.023-1.266-0.13c0.437,0.983,1.662,2.676-0.396,3.086
					c0.112,0.299,0.334,0.517,0.608,0.752"/>
			</g>
			<g>
				<path fill="#B5CE34" d="M28.401,72.369c0.503,0.473,0.957,1.323,1.186,1.819c-1.581-0.019-5.17-1.216-5.595-2.866
					c0.672-0.112,1.078-0.537,1.875-0.408c-1.042-0.882-1.773-2.596,0.469-2.263c-0.882-0.324-0.796-0.808-1.315-1.352
					c1.415-1.308,6.651-0.108,5.317,1.993c-0.465-0.107-0.791-0.034-1.253-0.222c0.365,1.012,1.464,2.789-0.618,3.049
					c0.09,0.306,0.296,0.54,0.552,0.794"/>
			</g>
			<g>
				<path fill="#B5CE34" d="M31.3,66.325c0.468,0.508,0.858,1.388,1.052,1.899c-1.575-0.133-5.069-1.587-5.373-3.263
					c0.678-0.063,1.114-0.458,1.899-0.271c-0.976-0.956-1.581-2.717,0.631-2.223c-0.855-0.387-0.734-0.864-1.213-1.444
					c1.505-1.202,6.643,0.375,5.159,2.373c-0.457-0.141-0.786-0.091-1.234-0.312c0.292,1.037,1.259,2.887-0.836,2.996
					c0.068,0.312,0.256,0.56,0.494,0.833"/>
			</g>
			<g>
				<path fill="#B5CE34" d="M34.628,60.506c0.431,0.542,0.755,1.447,0.911,1.971c-1.561-0.246-4.941-1.95-5.122-3.643
					c0.682-0.013,1.143-0.377,1.914-0.133c-0.905-1.024-1.38-2.825,0.791-2.172c-0.825-0.448-0.67-0.915-1.106-1.528
					c1.589-1.09,6.599,0.856,4.974,2.741c-0.446-0.174-0.778-0.148-1.209-0.401c0.218,1.056,1.045,2.97-1.051,2.928
					c0.043,0.315,0.215,0.576,0.431,0.866"/>
			</g>
			<g>
				<path fill="#B5CE34" d="M38.37,54.945c0.391,0.571,0.65,1.5,0.766,2.032c-1.537-0.358-4.787-2.304-4.843-4.004
					c0.68,0.035,1.166-0.294,1.918,0.006c-0.828-1.087-1.172-2.919,0.946-2.109c-0.79-0.507-0.603-0.961-0.993-1.605
					c1.664-0.972,6.52,1.335,4.762,3.096c-0.432-0.206-0.767-0.206-1.178-0.488c0.143,1.071,0.825,3.036-1.26,2.844
					c0.019,0.317,0.172,0.59,0.367,0.895"/>
			</g>
			<g>
				<path fill="#B5CE34" d="M42.506,49.671c0.346,0.596,0.542,1.544,0.616,2.082c-1.506-0.468-4.607-2.646-4.538-4.346
					c0.674,0.083,1.185-0.208,1.913,0.146c-0.747-1.145-0.957-2.998,1.098-2.034c-0.751-0.563-0.531-1.003-0.874-1.675
					c1.73-0.849,6.406,1.809,4.524,3.437c-0.415-0.236-0.749-0.26-1.139-0.573c0.064,1.078,0.601,3.087-1.463,2.745
					c-0.003,0.318,0.126,0.6,0.3,0.918"/>
			</g>
			<g>
				<path fill="#B5CE34" d="M47.016,44.714c0.299,0.618,0.428,1.58,0.462,2.121c-1.468-0.578-4.402-2.977-4.208-4.667
					c0.665,0.131,1.198-0.12,1.897,0.285c-0.662-1.197-0.735-3.06,1.244-1.948c-0.707-0.616-0.458-1.041-0.748-1.734
					c1.789-0.719,6.254,2.273,4.259,3.759c-0.396-0.266-0.727-0.314-1.093-0.655c-0.018,1.078,0.373,3.124-1.661,2.63
					c-0.025,0.317,0.083,0.608,0.231,0.937"/>
			</g>
			<g>
				<path fill="#B5CE34" d="M51.877,40.102c0.253,0.639,0.309,1.605,0.305,2.149c-1.424-0.687-4.171-3.292-3.854-4.964
					c0.653,0.179,1.205-0.03,1.872,0.424c-0.572-1.243-0.506-3.104,1.384-1.852c-0.66-0.667-0.38-1.072-0.618-1.784
					c1.838-0.585,6.067,2.728,3.969,4.063c-0.375-0.295-0.702-0.367-1.042-0.733c-0.098,1.072,0.143,3.144-1.851,2.5
					c-0.049,0.315,0.039,0.613,0.163,0.952"/>
			</g>
			<g>
				<path fill="#B5CE34" d="M57.065,35.861c0.206,0.657,0.188,1.623,0.145,2.166c-1.37-0.792-3.916-3.591-3.477-5.237
					c0.64,0.229,1.204,0.06,1.835,0.562c-0.478-1.281-0.273-3.133,1.519-1.744c-0.609-0.715-0.298-1.096-0.482-1.825
					c1.877-0.447,5.846,3.171,3.655,4.346c-0.353-0.322-0.672-0.417-0.983-0.809c-0.179,1.061-0.089,3.147-2.031,2.355
					c-0.072,0.311-0.006,0.614,0.092,0.962"/>
			</g>
			<g>
				<path fill="#B5CE34" d="M62.553,32.02c0.158,0.673,0.065,1.631-0.017,2.171C61.23,33.3,58.9,30.318,59.46,28.708
					c0.622,0.279,1.195,0.148,1.788,0.697c-0.38-1.312-0.038-3.145,1.645-1.625c-0.553-0.758-0.213-1.113-0.344-1.855
					c1.906-0.305,5.593,3.605,3.318,4.608c-0.328-0.349-0.639-0.466-0.92-0.88c-0.257,1.046-0.325,3.13-2.202,2.195
					c-0.094,0.305-0.052,0.613,0.021,0.967"/>
			</g>
			<g>
				<path fill="#B5CE34" d="M68.313,28.601c0.107,0.684-0.057,1.632-0.18,2.163c-1.233-0.984-3.334-4.136-2.653-5.697
					c0.599,0.324,1.179,0.234,1.73,0.83c-0.28-1.338,0.2-3.14,1.763-1.497c-0.495-0.798-0.129-1.127-0.203-1.877
					c1.924-0.161,5.304,4.02,2.96,4.847c-0.3-0.372-0.603-0.516-0.851-0.949c-0.333,1.027-0.562,3.095-2.361,2.023
					c-0.119,0.294-0.098,0.607-0.053,0.965"/>
			</g>
			<g>
				<path fill="#B5CE34" d="M74.314,25.629c0.054,0.688-0.179,1.626-0.344,2.143c-1.154-1.073-3.012-4.377-2.213-5.881
					c0.572,0.367,1.159,0.324,1.663,0.958c-0.178-1.355,0.438-3.117,1.873-1.358c-0.432-0.833-0.043-1.134-0.06-1.888
					c1.932-0.014,4.982,4.415,2.582,5.061c-0.271-0.394-0.561-0.561-0.776-1.012c-0.411,1-0.796,3.041-2.507,1.838
					c-0.14,0.285-0.145,0.595-0.126,0.958"/>
			</g>
			<g>
				<path fill="#B5CE34" d="M80.525,23.126c0,0.687-0.303,1.608-0.507,2.109c-1.068-1.159-2.668-4.596-1.756-6.033
					c0.542,0.408,1.131,0.413,1.584,1.083c-0.073-1.365,0.676-3.075,1.971-1.21c-0.367-0.863,0.044-1.135,0.085-1.888
					c1.928,0.135,4.628,4.784,2.186,5.244c-0.24-0.413-0.516-0.601-0.696-1.068c-0.487,0.963-1.027,2.971-2.641,1.64
					c-0.162,0.274-0.19,0.582-0.2,0.944"/>
			</g>
			<g>
				<path fill="#B5CE34" d="M86.908,21.106c-0.053,0.684-0.425,1.58-0.667,2.064c-0.976-1.239-2.307-4.788-1.287-6.151
					c0.509,0.448,1.096,0.5,1.497,1.202c0.032-1.367,0.911-3.014,2.059-1.055c-0.299-0.889,0.131-1.129,0.231-1.875
					c1.912,0.282,4.245,5.126,1.775,5.396c-0.208-0.43-0.468-0.639-0.612-1.118c-0.56,0.922-1.253,2.883-2.759,1.432
					c-0.182,0.261-0.234,0.567-0.272,0.926"/>
			</g>
			<g>
				<path fill="#B5CE34" d="M93.428,19.584c-0.105,0.678-0.546,1.542-0.825,2.006c-0.878-1.311-1.932-4.952-0.809-6.231
					c0.472,0.485,1.054,0.583,1.399,1.313c0.137-1.361,1.141-2.935,2.134-0.893c-0.23-0.91,0.218-1.116,0.375-1.852
					c1.884,0.429,3.838,5.438,1.354,5.518c-0.174-0.445-0.418-0.673-0.524-1.162c-0.629,0.876-1.471,2.778-2.861,1.215
					c-0.201,0.247-0.277,0.547-0.342,0.902"/>
			</g>
			<g>
				<path fill="#B5CE34" d="M100.046,18.569c-0.158,0.667-0.664,1.496-0.977,1.938c-0.774-1.375-1.544-5.086-0.327-6.276
					c0.434,0.521,1.006,0.662,1.294,1.417c0.241-1.346,1.362-2.838,2.196-0.727c-0.159-0.925,0.303-1.095,0.516-1.818
					c1.844,0.572,3.411,5.717,0.928,5.605c-0.139-0.457-0.365-0.704-0.434-1.199c-0.694,0.827-1.68,2.657-2.946,0.992
					c-0.22,0.23-0.318,0.524-0.411,0.873"/>
			</g>
			<g>
				<path fill="#B5CE34" d="M106.724,18.062c-0.208,0.656-0.776,1.441-1.122,1.857c-0.668-1.428-1.151-5.188,0.153-6.282
					c0.393,0.553,0.953,0.735,1.182,1.512c0.343-1.324,1.574-2.725,2.244-0.558c-0.089-0.935,0.385-1.067,0.651-1.772
					c1.795,0.71,2.969,5.956,0.5,5.658c-0.104-0.466-0.311-0.731-0.342-1.229c-0.755,0.774-1.878,2.521-3.014,0.766
					c-0.237,0.212-0.357,0.497-0.476,0.839"/>
			</g>
			<g>
				<path fill="#B5CE34" d="M113.421,18.064c-0.257,0.642-0.882,1.376-1.259,1.768c-0.559-1.475-0.756-5.259,0.627-6.253
					c0.35,0.584,0.895,0.803,1.064,1.597c0.442-1.294,1.775-2.597,2.28-0.387c-0.018-0.939,0.465-1.035,0.784-1.717
					c1.737,0.845,2.508,6.163,0.069,5.678c-0.067-0.474-0.254-0.749-0.247-1.249c-0.812,0.711-2.063,2.374-3.062,0.534
					c-0.252,0.192-0.395,0.472-0.539,0.803"/>
			</g>
			<g>
				<path fill="#B5CE34" d="M120.099,18.575c-0.306,0.622-0.984,1.301-1.391,1.667c-0.443-1.516-0.354-5.301,1.102-6.188
					c0.305,0.61,0.831,0.872,0.94,1.673c0.539-1.256,1.969-2.453,2.304-0.211c0.054-0.938,0.542-0.996,0.913-1.651
					c1.668,0.976,2.027,6.336-0.365,5.666c-0.032-0.476-0.196-0.766-0.151-1.263c-0.863,0.644-2.238,2.211-3.094,0.297
					c-0.267,0.175-0.43,0.441-0.599,0.76"/>
			</g>
			<g>
				<path fill="#B5CE34" d="M126.716,19.596c-0.353,0.595-1.081,1.221-1.514,1.555c-0.326-1.545,0.054-5.312,1.573-6.085
					c0.257,0.631,0.762,0.934,0.809,1.741c0.635-1.21,2.152-2.294,2.313-0.033c0.126-0.931,0.617-0.951,1.037-1.576
					c1.589,1.101,1.533,6.474-0.8,5.622c0.004-0.478-0.138-0.779-0.054-1.271c-0.91,0.576-2.402,2.033-3.107,0.058
					c-0.279,0.155-0.462,0.407-0.655,0.712"/>
			</g>
			<g>
				<path fill="#B5CE34" d="M133.234,21.122c-0.396,0.567-1.172,1.134-1.629,1.434c-0.206-1.566,0.463-5.292,2.038-5.946
					c0.207,0.65,0.687,0.989,0.672,1.798c0.726-1.158,2.322-2.122,2.309,0.146c0.197-0.918,0.689-0.9,1.156-1.491
					c1.498,1.22,1.029,6.573-1.231,5.543c0.042-0.477-0.076-0.787,0.045-1.272c-0.952,0.505-2.552,1.841-3.104-0.182
					c-0.29,0.132-0.491,0.37-0.707,0.66"/>
			</g>
			<g>
				<path fill="#B5CE34" d="M139.616,23.146c-0.438,0.535-1.256,1.042-1.734,1.304c-0.085-1.576,0.869-5.241,2.489-5.771
					c0.156,0.664,0.609,1.038,0.532,1.845c0.812-1.099,2.479-1.938,2.29,0.322c0.268-0.9,0.757-0.845,1.268-1.399
					c1.399,1.331,0.521,6.634-1.654,5.433c0.079-0.472-0.015-0.792,0.143-1.266c-0.988,0.433-2.685,1.638-3.08-0.418
					c-0.299,0.107-0.519,0.331-0.756,0.603"/>
			</g>
			<g>
				<path fill="#B5CE34" d="M145.825,25.654c-0.479,0.499-1.334,0.945-1.83,1.167c0.036-1.577,1.27-5.159,2.925-5.562
					c0.105,0.672,0.527,1.081,0.388,1.879c0.896-1.033,2.62-1.743,2.26,0.497c0.335-0.876,0.818-0.786,1.37-1.299
					c1.294,1.434,0.015,6.656-2.063,5.292c0.113-0.464,0.045-0.792,0.239-1.252c-1.021,0.358-2.802,1.426-3.04-0.652
					c-0.306,0.084-0.542,0.288-0.8,0.542"/>
			</g>
			<g>
				<path fill="#B5CE34" d="M151.824,28.63c-0.514,0.458-1.402,0.843-1.913,1.023c0.155-1.568,1.659-5.048,3.339-5.323
					c0.056,0.676,0.444,1.119,0.244,1.904c0.971-0.963,2.745-1.541,2.215,0.667c0.4-0.849,0.877-0.722,1.466-1.192
					c1.181,1.527-0.49,6.638-2.46,5.121c0.148-0.454,0.105-0.785,0.334-1.23c-1.044,0.278-2.903,1.209-2.982-0.881
					c-0.312,0.062-0.561,0.244-0.838,0.479"/>
			</g>
			<g>
				<path fill="#B5CE34" d="M157.582,32.052c-0.546,0.417-1.462,0.734-1.985,0.876c0.273-1.554,2.037-4.91,3.731-5.057
					c0.005,0.677,0.357,1.151,0.101,1.917c1.041-0.888,2.852-1.328,2.157,0.832c0.463-0.815,0.93-0.657,1.551-1.078
					c1.062,1.611-0.984,6.581-2.837,4.921c0.183-0.442,0.163-0.775,0.425-1.202c-1.06,0.196-2.986,0.988-2.907-1.104
					c-0.316,0.038-0.579,0.203-0.872,0.414"/>
			</g>
			<g>
				<path fill="#B5CE34" d="M163.067,35.897c-0.576,0.375-1.512,0.621-2.046,0.726c0.392-1.533,2.398-4.742,4.101-4.764
					c-0.046,0.676,0.269,1.176-0.044,1.918c1.104-0.807,2.942-1.111,2.09,0.99c0.522-0.779,0.976-0.584,1.626-0.959
					c0.938,1.686-1.47,6.487-3.195,4.696c0.215-0.427,0.221-0.76,0.513-1.166c-1.07,0.116-3.054,0.765-2.817-1.318
					c-0.318,0.015-0.593,0.16-0.9,0.348"/>
			</g>
			<g>
				<path fill="#B5CE34" d="M168.253,40.141c-0.604,0.333-1.553,0.505-2.095,0.572c0.504-1.5,2.743-4.55,4.443-4.447
					c-0.099,0.673,0.181,1.191-0.187,1.91c1.16-0.722,3.016-0.89,2.011,1.142c0.58-0.739,1.014-0.508,1.691-0.835
					c0.811,1.75-1.945,6.362-3.532,4.446c0.245-0.41,0.275-0.742,0.597-1.125c-1.076,0.036-3.103,0.537-2.712-1.524
					c-0.318-0.008-0.604,0.116-0.925,0.282"/>
			</g>
			<g>
				<path fill="#B5CE34" d="M173.11,44.756c-0.628,0.29-1.585,0.389-2.131,0.416c0.611-1.457,3.071-4.335,4.759-4.107
					c-0.149,0.665,0.095,1.2-0.326,1.891c1.21-0.635,3.073-0.667,1.921,1.286c0.632-0.694,1.048-0.433,1.748-0.709
					c0.68,1.803-2.407,6.203-3.85,4.175c0.276-0.392,0.33-0.72,0.679-1.079c-1.078-0.041-3.133,0.307-2.593-1.719
					c-0.317-0.032-0.611,0.071-0.943,0.213"/>
			</g>
			<g>
				<path fill="#B5CE34" d="M177.618,49.716c-0.647,0.243-1.612,0.274-2.156,0.259c0.715-1.407,3.381-4.098,5.046-3.747
					c-0.197,0.652,0.007,1.203-0.464,1.862c1.253-0.544,3.114-0.441,1.821,1.423c0.681-0.646,1.077-0.355,1.797-0.581
					c0.546,1.848-2.855,6.012-4.146,3.884c0.303-0.37,0.383-0.695,0.756-1.027c-1.074-0.117-3.145,0.075-2.461-1.903
					c-0.312-0.057-0.613,0.026-0.956,0.143"/>
			</g>
			<g>
				<path fill="#B5CE34" d="M181.75,54.993c-0.66,0.193-1.629,0.157-2.168,0.1c0.814-1.35,3.671-3.841,5.305-3.368
					c-0.242,0.634-0.081,1.2-0.599,1.823c1.29-0.452,3.139-0.214,1.713,1.552c0.726-0.595,1.101-0.276,1.835-0.449
					c0.41,1.882-3.286,5.79-4.417,3.573c0.328-0.347,0.432-0.665,0.828-0.969c-1.062-0.195-3.142-0.154-2.316-2.077
					c-0.308-0.079-0.611-0.021-0.963,0.072"/>
			</g>
			<g>
				<path fill="#B5CE34" d="M185.488,60.557c-0.671,0.143-1.637,0.039-2.17-0.058c0.911-1.288,3.941-3.565,5.535-2.974
					c-0.286,0.614-0.169,1.191-0.729,1.775c1.32-0.357,3.147,0.014,1.596,1.671c0.768-0.54,1.12-0.196,1.863-0.314
					c0.272,1.907-3.696,5.535-4.665,3.243c0.354-0.322,0.479-0.632,0.896-0.906c-1.043-0.273-3.123-0.382-2.159-2.24
					c-0.302-0.101-0.61-0.064-0.965,0.001"/>
			</g>
			<g>
				<path fill="#B5CE34" d="M188.812,66.378c-0.68,0.094-1.634-0.081-2.16-0.215c1.004-1.22,4.19-3.271,5.737-2.565
					c-0.329,0.592-0.256,1.177-0.856,1.717c1.344-0.261,3.137,0.243,1.471,1.783c0.804-0.483,1.132-0.115,1.88-0.179
					c0.134,1.922-4.086,5.253-4.887,2.896c0.375-0.296,0.522-0.596,0.96-0.839c-1.021-0.349-3.088-0.607-1.991-2.391
					c-0.295-0.123-0.604-0.108-0.963-0.069"/>
			</g>
			<g>
				<path fill="#B5CE34" d="M191.708,72.424c-0.686,0.045-1.624-0.199-2.14-0.371c1.09-1.144,4.416-2.958,5.908-2.144
					c-0.371,0.566-0.342,1.155-0.979,1.651c1.359-0.164,3.11,0.469,1.338,1.884c0.836-0.423,1.138-0.034,1.888-0.042
					c-0.006,1.926-4.454,4.944-5.083,2.536c0.396-0.268,0.564-0.556,1.018-0.768c-0.992-0.421-3.036-0.828-1.813-2.528
					c-0.284-0.143-0.595-0.151-0.955-0.138"/>
			</g>
			<g>
				<path fill="#B5CE34" d="M194.158,78.664c-0.688-0.005-1.604-0.316-2.107-0.524c1.171-1.062,4.618-2.631,6.048-1.711
					c-0.411,0.538-0.424,1.127-1.095,1.576c1.367-0.065,3.067,0.692,1.197,1.976c0.865-0.362,1.137,0.049,1.887,0.094
					c-0.145,1.92-4.8,4.61-5.253,2.162c0.414-0.238,0.603-0.514,1.07-0.692c-0.959-0.492-2.969-1.045-1.626-2.653
					c-0.273-0.163-0.583-0.194-0.943-0.207"/>
			</g>
			<g>
				<path fill="#B5CE34" d="M196.152,85.064c-0.685-0.055-1.579-0.431-2.064-0.675c1.243-0.976,4.796-2.292,6.155-1.271
					c-0.449,0.506-0.504,1.094-1.206,1.492c1.368,0.034,3.012,0.911,1.053,2.057c0.89-0.299,1.129,0.131,1.875,0.229
					c-0.282,1.905-5.12,4.253-5.396,1.779c0.431-0.208,0.639-0.47,1.118-0.614c-0.922-0.559-2.886-1.257-1.432-2.763
					c-0.261-0.183-0.566-0.236-0.926-0.274"/>
			</g>
			<g>
				<path fill="#B5CE34" d="M197.681,91.591c-0.678-0.104-1.545-0.542-2.01-0.821c1.308-0.883,4.947-1.941,6.229-0.825
					c-0.484,0.473-0.579,1.055-1.31,1.402c1.361,0.133,2.938,1.125,0.902,2.127c0.909-0.235,1.115,0.211,1.854,0.362
					c-0.419,1.879-5.411,3.876-5.509,1.388c0.443-0.177,0.671-0.422,1.159-0.532c-0.883-0.623-2.788-1.46-1.23-2.858
					c-0.247-0.201-0.548-0.276-0.903-0.34"/>
			</g>
			<g>
				<path fill="#B5CE34" d="M198.739,98.212c-0.674-0.151-1.501-0.652-1.946-0.963c1.366-0.788,5.072-1.582,6.272-0.378
					c-0.52,0.438-0.651,1.01-1.406,1.305c1.349,0.229,2.849,1.33,0.749,2.186c0.924-0.17,1.097,0.29,1.821,0.493
					c-0.551,1.844-5.669,3.483-5.591,0.994c0.456-0.145,0.698-0.374,1.192-0.448c-0.836-0.684-2.676-1.656-1.022-2.939
					c-0.231-0.218-0.527-0.314-0.879-0.403"/>
			</g>
			<g>
				<path fill="#B5CE34" d="M199.323,104.894c-0.663-0.198-1.445-0.757-1.873-1.099c1.422-0.689,5.17-1.219,6.285,0.066
					c-0.551,0.4-0.724,0.961-1.494,1.202c1.326,0.324,2.746,1.527,0.592,2.232c0.934-0.104,1.075,0.367,1.782,0.62
					c-0.679,1.799-5.898,3.077-5.647,0.599c0.464-0.113,0.722-0.324,1.221-0.364c-0.778-0.741-2.56-1.84-0.812-3.004
					c-0.218-0.234-0.506-0.351-0.85-0.464"/>
			</g>
		</g>
	</g>
</g>
<radialGradient id="SVGID_1_" cx="106.6255" cy="76.7393" r="77.7624" gradientTransform="matrix(1.0175 0 0 1.0735 -0.1182 -3.3196)" gradientUnits="userSpaceOnUse">
	<stop  offset="0.3626" style="stop-color:#E0E55E"/>
	<stop  offset="0.7308" style="stop-color:#B5CE34"/>
	<stop  offset="1" style="stop-color:#B5CE34"/>
</radialGradient>
<ellipse fill="url(#SVGID_1_)" cx="109.699" cy="104.242" rx="79.342" ry="83.247"/>
<path fill="#E1E2C7" stroke="#A3A77A" stroke-width="2.0905" stroke-miterlimit="10" d="M150.494,116.597
	c0-32.075,8.422-62.144,21.541-84.092c0.389-0.649,1.657-2.9,1.657-2.9s-0.537-0.405-2.248-1.673
	c-1.711-1.269-2.723-2.055-2.723-2.055s-1.255,1.491-1.657,2.071c-15.625,22.512-26.662,53.495-26.662,88.906
	c0,32.07,10.648,59.402,23.763,81.351c0.182,0.305,0.414,1.243,0.414,1.243s0.086-0.616,2.31-1.824
	c2.273-1.234,2.661-2.318,2.661-2.318s-0.197-2.071-0.414-2.485C158.06,171.689,150.494,145.78,150.494,116.597z"/>
<path fill="#E1E2C7" stroke="#A3A77A" stroke-width="2.1122" stroke-miterlimit="10" d="M71.787,116.012
	c0-32.745-10.079-63.172-23.198-85.579c-0.389-0.663-1.243-2.071-1.243-2.071s0.963-1.053,2.674-2.348s2.296-1.38,2.296-1.38
	s1.255,0.651,1.657,1.243c15.625,22.981,27.088,54.766,27.088,90.916c0,32.74-9.832,61.906-22.946,84.312
	c-0.182,0.312-1.657,0-1.657,0s0.34-0.623-1.883-1.856c-2.273-1.26-3.502-1.872-3.502-1.872s0.197-0.406,0.414-0.829
	C62.564,174.976,71.787,145.805,71.787,116.012z"/>
<rect fill="none" width="220" height="220"/>
</svg>
