<?xml version="1.0" encoding="utf-8"?>
<!-- Generator: Adobe Illustrator 15.1.0, SVG Export Plug-In  -->
<!DOCTYPE svg PUBLIC "-//W3C//DTD SVG 1.1//EN" "http://www.w3.org/Graphics/SVG/1.1/DTD/svg11.dtd" [
	<!ENTITY ns_flows "http://ns.adobe.com/Flows/1.0/">
]>
<svg version="1.1"
	 xmlns="http://www.w3.org/2000/svg" xmlns:xlink="http://www.w3.org/1999/xlink" xmlns:a="http://ns.adobe.com/AdobeSVGViewerExtensions/3.0/"
	 x="0px" y="0px" width="220px" height="220px" viewBox="0 0 220 220" overflow="visible" enable-background="new 0 0 220 220"
	 xml:space="preserve">
<defs>
	<symbol  id="New_Symbol" viewBox="-11 -3 22 5">
		<path fill="#FCEE21" stroke="#FF9A15" stroke-miterlimit="10" d="M9.583-0.5c0-1.104-0.746-2-1.666-2H-7.917
			c-0.92,0-1.667,0.896-1.667,2l0,0c0,1.104,0.747,2,1.667,2H7.917C8.837,1.5,9.583,0.604,9.583-0.5L9.583-0.5z"/>
		<polygon display="none" fill="none" points="-11,2 11,2 11,-3 -11,-3 		"/>
	</symbol>
	<symbol  id="New_Symbol_1" viewBox="-11 -3 21 5">
		<path fill="#A0CF7C" stroke="#39B54A" stroke-miterlimit="10" d="M9.5-0.5c0-1.104-0.896-2-2-2h-16c-1.104,0-2,0.896-2,2l0,0
			c0,1.104,0.896,2,2,2h16C8.604,1.5,9.5,0.604,9.5-0.5L9.5-0.5z"/>
		<polygon display="none" fill="none" points="-11,2 10,2 10,-3 -11,-3 		"/>
	</symbol>
	<symbol  id="New_Symbol_2" viewBox="-10 -3 20 6">
		<path fill="#F77CF4" stroke="#B748B7" stroke-miterlimit="10" d="M9.5-0.25c0-1.243-1.008-2.25-2.25-2.25h-14.5
			c-1.242,0-2.25,1.007-2.25,2.25v0.5c0,1.243,1.008,2.25,2.25,2.25h14.5c1.242,0,2.25-1.007,2.25-2.25V-0.25z"/>
		<polygon display="none" fill="none" points="-10,3 10,3 10,-3 -10,-3 		"/>
	</symbol>
	<symbol  id="New_Symbol_3" viewBox="-12 -3 24 5">
		<path fill="#29ABE2" stroke="#0071BC" stroke-miterlimit="10" d="M10.577-0.5c0-1.104-0.758-2-1.692-2h-17.77
			c-0.935,0-1.692,0.896-1.692,2l0,0c0,1.104,0.758,2,1.692,2h17.77C9.819,1.5,10.577,0.604,10.577-0.5L10.577-0.5z"/>
		<polygon display="none" fill="none" points="-12,2 12,2 12,-3 -12,-3 		"/>
	</symbol>
	<symbol  id="New_Symbol_4" viewBox="-12 -3.001 24 6.001">
		<path fill="#D4145A" stroke="#9E005D" stroke-miterlimit="10" d="M11.5-0.366c0-2.226-1.231-2.134-2.75-2.134h-17.5
			c-1.519,0-2.75-0.092-2.75,2.134v0.732c0,2.226,1.231,2.134,2.75,2.134h17.5c1.519,0,2.75,0.092,2.75-2.134V-0.366z"/>
		<polygon display="none" fill="none" points="-12,3 12,3 12,-3 -12,-3 		"/>
	</symbol>
</defs>
<rect fill="none" width="220" height="220"/>
<g>
	<path fill="#E0893D" d="M112.25,23c-28.9,0-58.1,10.487-78.746,31.057C12.712,74.772,3.629,94.806,4.5,123
		c0.168,5.433,3.524,15.297,3.974,20.723c0.633,7.626,5.068,19.816,10.526,25.303c4.774,4.8,12.783,5.369,18.907,7.375
		c7.185,2.354,10.013,7.117,15.892,11.139C65.98,195.871,71.996,203.135,86.5,205c6.814,0.876,20.446,0.975,27,2.5
		c7.724,1.797,16.377-3.901,24.5-3.5c9.403,0.465,18.343-6.76,25-13c5.401-5.062,7.985-4.157,13.974-8.624
		c5.594-4.172,12.784-7.557,17.436-12.795c3.995-4.5,4.521-11.858,7.591-17.081c7.24-12.316,14.45-25.194,14.45-39.5
		C216.45,63.294,169.798,23,112.25,23z M112.5,146.939c-13.495,0-24.435-12.173-24.435-27.189s10.94-27.189,24.435-27.189
		s24.436,12.172,24.436,27.189S125.995,146.939,112.5,146.939z"/>
	<g>
		<path fill="#93603A" d="M112.25,20.5c-26.955,0.181-53.45,9-74.021,26.652C19.449,63.268,6.571,84.863,4.68,109.735
			c-0.587,7.721-0.637,15.704,1.033,23.278c2.429,11.019,3.544,22.332,8.925,32.43c2.614,4.906,6.115,8.19,11.316,10.174
			c5.909,2.253,12.107,2.578,17.564,6.049c5.018,3.19,9.435,7.693,14.274,11.208c4.902,3.561,9.579,7.396,14.906,10.324
			c10.258,5.639,22.482,4.788,33.775,5.792c5.589,0.497,10.402,1.786,16.031,0.586c3.141-0.669,6.2-1.712,9.327-2.446
			c3.586-0.842,7.215-0.412,10.823-0.998c6.369-1.035,12.045-5.438,16.835-9.47c2.393-2.014,4.539-4.247,7.131-6.018
			c2.345-1.602,5.143-2.539,7.614-3.931c5.35-3.012,10.72-6.888,15.662-10.535c5.684-4.194,7.662-9.427,9.817-15.896
			c2.044-6.139,6.034-11.579,8.992-17.307c3.382-6.549,5.976-13.438,7.22-20.715c1.275-7.459,0.72-15.806-0.315-23.243
			c-2.94-21.125-15.049-39.859-31.17-53.419C164.424,28.763,138.164,20.658,112.25,20.5c-0.027,0-0.048,5,0,5
			c44.421,0.271,90.339,25.923,101.898,71.099c1.357,5.304,2.03,10.766,2.253,16.228c0.303,7.408-3.166,15.496-6.188,22.069
			c-2.793,6.077-6.714,11.579-9.472,17.648c-2.747,6.044-3.428,11.902-8.47,16.677c-4.499,4.26-10.303,7.044-15.299,10.655
			c-4.985,3.604-10.516,5.419-15.104,9.672c-4.794,4.442-10.038,8.396-16.181,10.745c-2.995,1.146-6.063,1.215-9.219,1.2
			c-3.663-0.018-7.385,1.304-10.87,2.28c-5.938,1.664-10.555,1.272-16.52,0.495c-5.975-0.779-12.035-0.912-18.041-1.337
			c-12.321-0.873-21.129-5.975-30.793-13.235c-4.928-3.702-9.747-7.318-14.447-11.307c-5.004-4.246-11.04-5.284-17.178-6.935
			c-11.913-3.204-16.759-14.278-19.392-25.456c-1.176-4.992-1.645-10.12-2.849-15.135c-1.79-7.452-2.07-14.303-1.122-21.944
			c1.436-11.569,5.64-22.492,11.793-32.349c14.072-22.545,36.569-38.78,61.865-46.337c10.796-3.226,22.084-4.659,33.332-4.734
			C112.299,25.5,112.276,20.5,112.25,20.5z"/>
		<path fill="#93603A" d="M112.5,144.439c-12.971-0.377-22.092-10.593-24.135-22.918c-1.105-6.667,3.011-14.206,7.29-18.967
			c4.307-4.792,10.491-7.309,16.845-7.493c12.908-0.375,22.187,11.158,24.136,22.917c1.105,6.667-3.011,14.206-7.29,18.968
			C125.039,141.738,118.854,144.255,112.5,144.439c-0.086,0.003,0.011,5,0,5c32.807-0.953,32.807-58.426,0-59.378
			c-16.167-0.47-24.46,15.678-24.46,29.689c0,14.704,8.297,29.22,24.46,29.689C112.489,149.439,112.586,144.442,112.5,144.439z"/>
	</g>
</g>
<path fill="#EEC299" d="M102.5,88c-4.696,1.329-13.419,12.964-19.5,11.024c-4.366-1.393-4.527-7.972-3.109-11.413
	c2.009-4.878,5.178-3.503,8.721-6.502C94.145,76.426,94,62.172,105.526,67.99c4.669,2.357,5.394,6.649,10.974,7.51
	c4,0.617,10.98-1.777,14.401,0.625c7.581,5.322-7.181,7.373-10.413,7.864C114.834,84.848,102.5,88,102.5,88z"/>
<path fill="#EEC299" d="M29,164c-0.106-1.253-5.165-5.312-6.889-7.525c-2.274-2.921-4.236-6.224-6.249-9.486
	c-2.545-4.127-4.043-7.054-4.363-11.963c-0.373-5.739,1.301-10.336,6.35-4.535c3.738,4.295,4.917,10.883,7.638,15.885
	c2.667,4.905,6.013,10.138,9.527,14.516c6.91,8.607,13.203,11.76,23.375,13.721c10.68,2.059,14.777,8.843,23.587,14.513
	c7.751,4.988,17.777,3.907,26.524,3.376c8.985-0.546,17.14-3.26,26-4.025c4.649-0.402,7.658,1.132,11.975-1.088
	c4.005-2.06,6.688-7.169,10.514-8.812c4.372-1.879,7.892-1.14,12.012-4.574c3.772-3.146,6.821-6.663,9.876-10.515
	c5.642-7.11,12.06-13.681,21.06-15.433c-0.105,7.177-14.195,14.271-19.102,18.349c-5.594,4.65-10.031,10.135-15.471,14.846
	c-7.72,6.687-16.644,13.634-26.729,16.114c-10.992,2.703-21.709,1.764-32.634,0.639c-9.107-0.938-14.587-0.791-22.488-5.376
	c-9.685-5.62-20.678-3.61-30.512-9.235c-8.197-4.689-18.229-10.873-24.5-17.889"/>
<g>
	<path fill="#93603A" d="M9.5,136c12.754,14.323,26.594,27.745,42.396,38.328c7.91,5.24,16.255,9.82,25.083,13.146
		c8.798,3.367,18.036,5.565,27.403,6.199c9.358,0.72,18.815-0.121,27.962-2.314c9.173-2.134,17.995-5.702,26.376-10.11
		c8.362-4.458,16.277-9.812,23.671-15.833c7.399-6.015,14.361-12.629,20.609-19.916c-2.757,3.936-5.845,7.64-9.082,11.205
		c-3.239,3.565-6.678,6.954-10.25,10.203c-7.185,6.449-14.996,12.264-23.441,17.074c-8.416,4.853-17.507,8.619-26.98,11.056
		c-9.481,2.395-19.369,3.311-29.154,2.623c-9.782-0.741-19.417-3.054-28.485-6.668c-9.059-3.648-17.606-8.445-25.478-14.106
		C34.333,165.589,20.975,151.369,9.5,136z"/>
</g>
<g>
	<path fill="#93603A" d="M78.5,108.5c0.48-0.456,0.77-0.978,1.011-1.551c0.252-0.556,0.454-1.136,0.63-1.729
		c0.349-1.188,0.661-2.394,0.975-3.619c0.323-1.222,0.646-2.46,1.059-3.716c0.407-1.24,0.9-2.584,1.741-3.889
		c1.405-2.282,3.096-4.398,5-6.317c1.899-1.915,4.083-3.647,6.498-5.042c4.768-2.682,9.857-4.273,15.12-5.009
		c2.631-0.339,5.312-0.442,7.97-0.134c2.636,0.322,5.327,1.02,7.497,2.506c-2.593-0.241-5.025,0.005-7.424,0.441
		c-2.392,0.437-4.732,1.062-7.034,1.795c-4.583,1.474-9.106,3.334-13.146,5.604c-3.903,2.245-7.516,5.425-10.705,8.958
		c-0.691,0.71-1.297,1.662-1.942,2.711l-1.934,3.243c-0.68,1.096-1.376,2.208-2.216,3.25c-0.421,0.519-0.863,1.029-1.365,1.486
		C79.728,107.925,79.143,108.359,78.5,108.5z"/>
</g>
<g>
	<path fill="#F392B5" d="M213.5,87.5c-2.147-11.466-8.721-24.71-14.376-35.026c-2.351-4.288-5.293-8.317-8.901-11.337
		c-5.367-4.49-12.285-5.364-18.346-8.637c-8.784-4.746-15.505-12.989-24.375-17.65C137.568,9.63,124.423,9.935,114,12
		c-12.27,2.43-30.171,2.126-42.5,4c-12.456,1.893-20.4,5.087-30,13c-8.257,6.806-11.669,19.035-20.038,26.024
		C12.687,62.354,6.105,74.152,5.5,85.759C4.623,102.59,12.825,125.361,27,135l-1-1c5.342-0.596,3.906,14.341,5.139,17.913
		C33.54,158.871,39.378,164.66,46.5,167c7.14,2.346,10.57,2.592,18,3c8.597,0.473,15.203,9.784,22,15
		c12.853,9.862,35.932,7.437,50.998-1.391c3.975-2.328,6.878-6.681,11.014-8.756c4.35-2.184,9.474-2.089,13.988-3.99
		c9.89-4.165,14.16-16.059,22.377-22.628c4.428-3.539,10.064-5.654,14.148-9.749c3.813-3.822,9.346-7.176,11.475-11.986
		C215.584,115.013,215.822,99.894,213.5,87.5z M130.611,82.5c-1.134,7.033-0.207,15.62-2.111,22.5
		c-2.505,9.051-9.304,9.497-17.137,10.975c-8.009,1.51-16.172,3.095-24.28,1.112C82,112,77.539,107.246,77,101
		c-0.345-3.991-1.334-12.838-1.5-16.5c-0.215-4.741,1.918-5.739,5.877-8.111c3.69-2.21,5.727-3.677,8.26-7.276
		c2.012-2.859,4.227-7.348,7.863-8.761c5.214-2.027,9.045,2.151,12.998,4.663c3.932,2.498,6.704,2.443,11.502,2.486
		C132.481,67.594,132.02,73.76,130.611,82.5z"/>
	<g>
		<path fill="#B5406A" d="M215.94,87.776c-2.65-13.092-8.738-25.379-15.294-36.924c-2.594-4.568-6.094-9.2-10.54-12.121
			c-5.724-3.759-12.525-5.079-18.451-8.44c-11.459-6.5-18.973-17.023-32.343-20.248c-12.204-2.943-23.995,0.29-36.138,1.502
			c-23.453,2.342-49.278,0.35-66.837,19.195c-3.922,4.21-6.595,9.554-9.687,14.362c-3.526,5.486-8.486,9.265-12.719,14.112
			C6.031,68.261,2.423,79.999,3.138,91.871c0.982,16.315,8.579,34.546,22.198,44.21c1.905,1.352,5.739,0.248,3.329-2.162
			c-0.333-0.333-0.667-0.667-1-1c-0.308,0.974-0.615,1.948-0.922,2.922c0.721,0.005,1.311,10.229,1.384,11.406
			c0.28,4.521,1.789,8.09,4.416,11.814c6.789,9.622,19.333,11.994,30.298,12.67c12.114,0.747,18.026,13.786,28.688,18.229
			c10.366,4.319,21.88,3.89,32.622,1.292c5.31-1.284,10.395-3.451,15.137-6.139c2.178-1.234,4.006-3.099,5.814-4.801
			c3.258-3.068,6.496-4.69,10.855-5.667c5.318-1.191,10.081-2.368,14.235-6.099c4.382-3.934,7.617-8.84,11.27-13.415
			c4.004-5.015,9.056-7.958,14.414-11.296c5.2-3.241,10.227-8.016,14.384-12.511c3.953-4.275,5.219-11.01,6.178-16.535
			c1.179-6.794,1.104-13.78,0.44-20.62C216.67,92.025,216.316,89.897,215.94,87.776c-0.395-2.23-5.316-3.011-4.881-0.552
			c2.221,12.542,3.222,29.45-4.185,40.591c-3.191,4.801-9.789,9.832-14.577,13.013c-4.76,3.161-9.471,5.659-13.401,9.899
			c-3.69,3.98-6.575,8.645-10.183,12.702c-4.715,5.306-10.312,6.625-16.954,8.113c-5.88,1.317-9.388,5.201-13.776,8.957
			c-4.478,3.833-10.854,5.799-16.449,7.295c-11.873,3.174-25.708,2.679-35.405-5.551c-4.065-3.449-7.577-7.579-12.092-10.485
			c-4.729-3.044-9.085-3.504-14.599-3.901c-11.976-0.864-25.495-6.468-26.43-20.059c-0.386-5.606,0.085-15.584-7.75-15.64
			c-1.878-0.014-1.979,1.865-0.922,2.922c0.333,0.333,0.667,0.667,1,1c1.11-0.721,2.219-1.441,3.329-2.162
			C8.694,119.747,1.76,87.282,14.552,66.577c3.262-5.28,7.967-8.881,12.111-13.356c4.255-4.595,7.072-10.446,10.525-15.625
			c7.192-10.783,19.478-16.845,31.903-19.23c12.688-2.435,25.79-2.047,38.603-3.457c13.769-1.516,27.069-5.035,40.042,2.137
			c5.82,3.217,10.671,8.131,15.894,12.191c5.026,3.908,10.477,6.375,16.416,8.545c14.489,5.297,20.684,21.051,26.254,34.345
			c2.042,4.873,3.71,9.916,4.76,15.097C211.508,89.439,216.433,90.206,215.94,87.776z"/>
		<path fill="#B5406A" d="M128.228,81.748c-1.042,7.473-0.312,15.136-2.111,22.5c-2.037,8.333-10.287,8.907-17.346,10.235
			c-4.333,0.814-8.654,1.468-13.062,1.675c-2.097,0.1-6.432,0.382-8.122-1.32c-1.705-1.717-3.279-3.512-4.757-5.424
			c-4.351-5.633-3.961-13.675-4.58-20.462c-0.246-2.701-0.948-5.893,0.779-8.219c1.67-2.249,5.449-3.569,7.704-5.164
			c5.194-3.675,9.341-16.937,17.16-12.841c2.795,1.464,5.062,3.67,7.941,5.035c2.744,1.3,5.771,1.494,8.756,1.556
			c3.023,0.062,6.691-0.317,7.981,3.03C129.641,75.121,128.665,78.965,128.228,81.748c-0.374,2.378,4.408,3.792,4.768,1.505
			c0.808-5.133,2.254-12.593-3.31-15.698c-3.367-1.879-6.979-1.852-10.737-1.93c-5.741-0.118-9.132-3.861-13.905-6.362
			c-8.234-4.314-13.437,2.564-17.562,8.674c-4.584,6.788-14.897,7.683-14.374,17.147c0.4,7.226,0.105,16.887,4.004,23.229
			c2.004,3.26,5.357,8.318,8.823,10.206c4.484,2.441,12.043,1.413,16.873,0.865c4.968-0.564,10.011-1.542,14.896-2.618
			c3.228-0.712,6.696-1.675,9.138-4.051c7.47-7.27,4.853-20.127,6.153-29.462C133.327,80.87,128.545,79.467,128.228,81.748z"/>
	</g>
</g>
<path fill="#E077AC" d="M74,109.5c-0.704-7.515-8.097-20.49-3.013-29.514c2.478-4.398,6.719-6.597,9.913-10.512
	c3.086-3.783,5.176-8.48,7.964-12.474c3-4.298,5.942-6.737,11.135-6.5c6.587,0.301,5.729,4.682,10.375,7.539
	c8.331,5.123,25.072-10.924,30.484,4.438c2.29,6.5,3.392,15.812,2.264,22.647c-0.947,5.737-2.564,10.032-1.746,15.877
	c0.988,7.062,0.834,10.104-4.488,15.5c-4.483,4.545-10.277,7.124-16.253,9.111c-2.507,0.833-14.088,2.376-12.072,6.911
	c2.151,4.835,20.476,0.245,23.936-0.889c9.297-3.048,25.947-15.111,25-26.136c-0.408-4.748-2.775-7.336-4.389-11.5
	c-2.366-6.105,0.646-10.841,2.014-16.876c1.952-8.62,3.659-21.513-5.115-26.999c-10.368-6.482-23.246,0.857-34.386-2.515
	c-11.193-3.388-17.951-9.198-29.221-0.621c-6.82,5.19-7.315,13.437-13.877,18.484c-6.898,5.306-15.7,7.555-17.649,17.039
	c-1.416,6.889,0.956,11.07,5.599,15.977C63.023,101.18,73.747,107.653,72.5,111"/>
<path fill="#E077AC" d="M104.5,20c12.807,0.076,24.749,1.279,36.403,6.877c10.568,5.077,17.494,14.769,27.545,20.597
	c12.34,7.156,22.551,9.859,28.44,24.026c4.53,10.897,3.923,27.767-1.629,38.253c-3.698,6.985-10.71,11.222-16.262,16.763
	c-6.348,6.337-9.657,12.77-13.373,20.843c-6.098,13.248-19.979,16.218-33.159,19.016c-8.227,1.747-19.578,6.452-27.854,2.139
	c-12.086-6.3-18.289-17.84-32.735-20.636c-12.888-2.494-25.289-1.347-32.643-13.768c-3.211-5.424-3.192-11.349-5.857-16.996
	c-2.003-4.245-5.156-7.51-7.253-11.615C16.067,85.804,31.836,62.846,39.589,45.48c-3.786-0.587-11.316,10.725-13.952,13.799
	c-4.215,4.916-7.856,10.045-10.884,15.844C12.331,79.764,9.11,86.662,9.976,92c0.674,4.157,4.21,8.256,5.913,11.988
	c4.221,9.254,9.275,17.191,15.237,25.486c5.173,7.196,4.952,17.732,11.875,23.523c7.674,6.421,18.182,3.39,27,6.641
	c9.317,3.436,14.96,12.527,23.5,17.248c11.046,6.105,23.708,5.632,35.12,0.129c5.332-2.57,10.406-6.052,15.769-8.418
	c5.186-2.287,11.238-1.836,16.588-3.699c14.448-5.03,19.52-18.727,30.521-27.41c9.765-7.706,15.875-10.814,18.49-23.84
	c2.437-12.135,0.015-24.584-4.1-36.16C202.382,67.62,197.586,55.901,189,51c-7.682-4.385-11.124-7.56-17.5-13.5
	c-6.444-6.003-14.572-10.08-21-16c-6.079-5.6-18.213-7.709-26.111-8.389c-8.763-0.754-16.604,3.523-23.926,7.69
	c0.013-0.101,0.025-0.201,0.038-0.302"/>
<use xlink:href="#New_Symbol"  width="22" height="5" x="-11" y="-3" transform="matrix(0.8906 -0.4548 -0.4548 -0.8906 144.7725 37.0547)" overflow="visible"/>
<use xlink:href="#New_Symbol_1"  width="21" height="5" x="-11" y="-3" transform="matrix(0.8058 0.5922 0.5922 -0.8058 118.1992 38.3931)" overflow="visible"/>
<use xlink:href="#New_Symbol_2"  width="20" height="6" x="-10" y="-3" transform="matrix(0.9395 -0.3424 -0.3424 -0.9395 163 52)" overflow="visible"/>
<use xlink:href="#New_Symbol"  width="22" height="5" x="-11" y="-3" transform="matrix(0.4757 -0.8796 -0.8796 -0.4757 54.4048 39.3301)" overflow="visible"/>
<use xlink:href="#New_Symbol_1"  width="21" height="5" x="-11" y="-3" transform="matrix(0.9995 0.0309 0.0309 -0.9995 32.9224 69.0962)" overflow="visible"/>
<use xlink:href="#New_Symbol_2"  width="20" height="6" x="-10" y="-3" transform="matrix(0.5797 -0.8148 -0.8148 -0.5797 77.541 54.9023)" overflow="visible"/>
<use xlink:href="#New_Symbol"  width="22" height="5" x="-11" y="-3" transform="matrix(0.9648 0.2632 0.2632 -0.9648 76.8735 123.5811)" overflow="visible"/>
<use xlink:href="#New_Symbol_1"  width="21" height="5" x="-11" y="-3" transform="matrix(0.1973 0.9803 0.9803 -0.1973 43.0015 109.4316)" overflow="visible"/>
<use xlink:href="#New_Symbol_2"  width="20" height="6" x="-10" y="-3" transform="matrix(0.9253 0.3792 0.3792 -0.9253 75.9722 143.6523)" overflow="visible"/>
<use xlink:href="#New_Symbol"  width="22" height="5" x="-11" y="-3" transform="matrix(0.6056 -0.7958 -0.7958 -0.6056 145.8467 125.2061)" overflow="visible"/>
<use xlink:href="#New_Symbol_1"  width="21" height="5" x="-11" y="-3" transform="matrix(0.8825 -0.4704 -0.4704 -0.8825 147.9121 155.0283)" overflow="visible"/>
<use xlink:href="#New_Symbol_2"  width="20" height="6" x="-10" y="-3" transform="matrix(0.0977 -0.9952 -0.9952 -0.0977 179.5605 120.5215)" overflow="visible"/>
<use xlink:href="#New_Symbol"  width="22" height="5" x="-11" y="-3" transform="matrix(0.8906 -0.4548 -0.4548 -0.8906 38.7725 95.0547)" overflow="visible"/>
<use xlink:href="#New_Symbol_1"  width="21" height="5" x="-11" y="-3" transform="matrix(0.8058 0.5922 0.5922 -0.8058 173.1992 72.3931)" overflow="visible"/>
<use xlink:href="#New_Symbol_2"  width="20" height="6" x="-10" y="-3" transform="matrix(0.9395 -0.3424 -0.3424 -0.9395 46 141)" overflow="visible"/>
<use xlink:href="#New_Symbol"  width="22" height="5" x="-11" y="-3" transform="matrix(0.4757 -0.8796 -0.8796 -0.4757 102.4048 45.3301)" overflow="visible"/>
<use xlink:href="#New_Symbol_1"  width="21" height="5" x="-11" y="-3" transform="matrix(0.9995 0.0309 0.0309 -0.9995 93.9224 30.0962)" overflow="visible"/>
<use xlink:href="#New_Symbol_2"  width="20" height="6" x="-10" y="-3" transform="matrix(0.5797 -0.8148 -0.8148 -0.5797 137.541 53.9023)" overflow="visible"/>
<use xlink:href="#New_Symbol"  width="22" height="5" x="-11" y="-3" transform="matrix(0.9648 0.2632 0.2632 -0.9648 124.873 129.5811)" overflow="visible"/>
<use xlink:href="#New_Symbol_1"  width="21" height="5" x="-11" y="-3" transform="matrix(0.1973 0.9803 0.9803 -0.1973 102.0015 135.4316)" overflow="visible"/>
<use xlink:href="#New_Symbol_2"  width="20" height="6" x="-10" y="-3" transform="matrix(0.9253 0.3792 0.3792 -0.9253 114.9727 155.6523)" overflow="visible"/>
<use xlink:href="#New_Symbol"  width="22" height="5" x="-11" y="-3" transform="matrix(-0.0248 -0.9997 -0.9997 0.0248 190.7441 94.5205)" overflow="visible"/>
<use xlink:href="#New_Symbol_1"  width="21" height="5" x="-11" y="-3" transform="matrix(0.8825 -0.4704 -0.4704 -0.8825 80.9121 160.0283)" overflow="visible"/>
<use xlink:href="#New_Symbol_2"  width="20" height="6" x="-10" y="-3" transform="matrix(0.0977 -0.9952 -0.9952 -0.0977 54.5605 66.5215)" overflow="visible"/>
<use xlink:href="#New_Symbol_3"  width="24" height="5" x="-12" y="-3" transform="matrix(0.9998 0.0213 0.0213 -0.9998 84.0107 20.0005)" overflow="visible"/>
<use xlink:href="#New_Symbol_3"  width="24" height="5" x="-12" y="-3" transform="matrix(0.903 0.4296 0.4296 -0.903 134.2148 145.0488)" overflow="visible"/>
<use xlink:href="#New_Symbol_3"  width="24" height="5" x="-12" y="-3" transform="matrix(0.9768 -0.2142 -0.2142 -0.9768 171.8926 90.0117)" overflow="visible"/>
<use xlink:href="#New_Symbol_3"  width="24" height="5" x="-12" y="-3" transform="matrix(0.6754 -0.4325 -0.5392 -0.8421 35.5845 52.0586)" overflow="visible"/>
<use xlink:href="#New_Symbol_3"  width="24" height="5" x="-12" y="-3" transform="matrix(0.3646 0.7382 0.8966 -0.4428 95.3872 147.1787)" overflow="visible"/>
<use xlink:href="#New_Symbol_3"  width="24" height="5" x="-12" y="-3" transform="matrix(0.7964 -0.6047 -0.6047 -0.7964 58.8833 91.1328)" overflow="visible"/>
<use xlink:href="#New_Symbol_3"  width="24" height="5" x="-12" y="-3" transform="matrix(0.8232 0.0153 0.0186 -0.9998 42.9365 126.5986)" overflow="visible"/>
<use xlink:href="#New_Symbol_3"  width="24" height="5" x="-12" y="-3" transform="matrix(0.4075 0.9132 0.9132 -0.4075 148.6436 76.7197)" overflow="visible"/>
<use xlink:href="#New_Symbol_3"  width="24" height="5" x="-12" y="-3" transform="matrix(-0.2023 0.7981 0.9693 0.2457 124.7402 25.1172)" overflow="visible"/>
<use xlink:href="#New_Symbol"  width="22" height="5" x="-11" y="-3" transform="matrix(0.8218 0.5698 0.5698 -0.8218 165.9141 108.7363)" overflow="visible"/>
<use xlink:href="#New_Symbol_2"  width="20" height="6" x="-10" y="-3" transform="matrix(0.7459 0.6661 0.6661 -0.7459 167.8848 135.0127)" overflow="visible"/>
<use xlink:href="#New_Symbol"  width="22" height="5" x="-11" y="-3" transform="matrix(-0.7817 0.6236 0.6236 0.7817 182.8398 57.5151)" overflow="visible"/>
<use xlink:href="#New_Symbol_4"  width="24" height="6.001" x="-12" y="-3.001" transform="matrix(0.7882 0.306 0.2977 -0.7668 61.3232 111.1963)" overflow="visible"/>
<use xlink:href="#New_Symbol_4"  width="24" height="6.001" x="-12" y="-3.001" transform="matrix(0.508 -0.6758 -0.6575 -0.4943 24.3232 86.1948)" overflow="visible"/>
<use xlink:href="#New_Symbol_4"  width="24" height="6.001" x="-12" y="-3.001" transform="matrix(0.508 -0.6758 -0.6575 -0.4943 116.3232 174.1953)" overflow="visible"/>
<use xlink:href="#New_Symbol_4"  width="24" height="6.001" x="-12" y="-3.001" transform="matrix(0.508 -0.6758 -0.6575 -0.4943 191.3232 74.1953)" overflow="visible"/>
<use xlink:href="#New_Symbol_4"  width="24" height="6.001" x="-12" y="-3.001" transform="matrix(0.3755 0.7576 0.737 -0.3653 142.3232 98.1963)" overflow="visible"/>
<use xlink:href="#New_Symbol_4"  width="24" height="6.001" x="-12" y="-3.001" transform="matrix(0.845 0.0286 0.0278 -0.8221 71.3232 37.1958)" overflow="visible"/>
<use xlink:href="#New_Symbol_4"  width="24" height="6.001" x="-12" y="-3.001" transform="matrix(0.508 -0.6758 -0.6575 -0.4943 50.3232 152.1953)" overflow="visible"/>
<use xlink:href="#New_Symbol_4"  width="24" height="6.001" x="-12" y="-3.001" transform="matrix(0.8157 0.2224 0.2163 -0.7936 138.3223 25.1958)" overflow="visible"/>
</svg>
