<?xml version="1.0" encoding="utf-8"?>
<!-- Generator: Adobe Illustrator 15.1.0, SVG Export Plug-In  -->
<!DOCTYPE svg PUBLIC "-//W3C//DTD SVG 1.1//EN" "http://www.w3.org/Graphics/SVG/1.1/DTD/svg11.dtd" [
	<!ENTITY ns_flows "http://ns.adobe.com/Flows/1.0/">
]>
<svg version="1.1"
	 xmlns="http://www.w3.org/2000/svg" xmlns:xlink="http://www.w3.org/1999/xlink" xmlns:a="http://ns.adobe.com/AdobeSVGViewerExtensions/3.0/"
	 x="0px" y="0px" width="220px" height="220px" viewBox="0 1 220 220" overflow="visible" enable-background="new 0 1 220 220"
	 xml:space="preserve">
<defs>
	<symbol  id="New_Symbol" viewBox="-6 -4.249 12 8.499">
		<g>
			<path d="M0.009,2.969c0.054-0.655-0.178-1.305-0.439-1.902c-0.265-0.604-0.61-1.166-0.975-1.708
				c-0.74-1.08-1.593-2.069-2.49-3.008l-0.459,0.783c2.058,0.629,4.062,1.451,5.9,2.535C3.351,0.766,5.067,2.175,5.881,4.25
				C5.729,3.153,5.208,2.101,4.514,1.21C3.817,0.314,2.949-0.437,2.021-1.071C0.155-2.346-1.949-3.188-4.1-3.769l-1.78-0.48
				l1.322,1.264c0.918,0.878,1.812,1.78,2.641,2.737c0.414,0.478,0.805,0.974,1.163,1.494C-0.409,1.771-0.103,2.331,0.009,2.969z"/>
		</g>
		<polygon display="none" fill="none" points="-6,4 6,4 6,-4 -6,-4 		"/>
	</symbol>
	<symbol  id="New_Symbol_1" viewBox="-24 -16.849 48 33.697">
		<g>
			<path fill="#FE8831" d="M-21.534,15.496c0.207-1.017,1.056-2.018,1.383-3.034c0.363-1.132,2.488-6.19,2.805-7.691
				c0.264-1.251-0.374-6.234-0.773-7.469c-0.351-1.081-1.157-1.97-1.397-3.048c-0.099-0.441-0.067-1.002-0.269-1.395
				c-0.249-0.483-0.841-0.825-1.205-1.22c-0.666-0.724-1.414-1.604-1.517-2.591c-0.061-0.577,0.117-1.136,0.136-1.709
				c0.494,0.614,2.235,2.375,2.72,2.544c1.145,0.399,1.959-0.039,2.656-0.91c0.844-1.053,2.259-1.979,3.533-1.214
				c0.774,0.465,1.831,1.533,2.793,1.154c0.517-0.203,2.393-1.957,2.913-2.321c1.177-0.822,2.182-0.903,3.521-1.214
				c2.618-0.605,5.388-0.321,8.071-0.351c1.984-0.022,3.946-0.022,5.885,0.246c1.671,0.231,3.229-0.852,4.885-0.854
				c0.981-0.002,1.07,0.521,1.748,0.97c0.53,0.352,0.792,0.1,1.276-0.227c1.091-0.736,4.905-3.095,4.839-0.136
				c-0.028,1.25-0.863,2.047-1.58,2.976c-0.673,0.874-1.808,1.236-2.562,2.051c-0.825,0.89-1.349,1.577-2.655,1.714
				c-0.896,0.094-1.969-0.396-2.722-0.847c0.332,0.858,1.304,1.215,1.583,2.179c0.167,0.574,0.028,0.812,0.714,0.85
				c0.519,0.027,0.988-0.188,1.507-0.112c-0.002,0.735-1.056,1.361-1.567,1.751c-0.707,0.537-1.27,0.838-2.172,0.85
				c-1.71,0.022-2.859-0.645-4.301-1.402C9.737-3.54,6.98-3.068,6.109-3.028C4.99-2.977,4.116-2.935,3.094-3.305
				c-1.017-0.37-1.748-1.127-2.717-1.576C-0.652-5.36-1.732-5.506-2.888-5.503c-2.26,0.006-5.433,0.288-6.993,2.077
				c-0.686,0.786-1.466,1.526-2.003,2.415c-0.308,0.51-1.251,2.715-1.349,3.29c-0.087,0.512,0.236,10.47,0.256,11.093
				c0.035,1.14,0.397,1.96,0.723,3.012c-0.052-0.054-0.121-0.063-0.176-0.099"/>
			<g>
				<path fill="#934918" d="M-22.259,15.302c1.985-4.659,4.558-9.165,4.044-14.342c-0.249-2.51-1.58-4.422-2.033-6.776
					c-0.584-3.032-3.118-3.656-2.849-7.039c0.044-0.555,1.121-0.204,1.32,0.02c1.55,1.735,3.208,2.359,5.121,0.552
					c0.445-0.421,1.191-0.753,1.819-0.693c0.528,0.051,4.224,1.088,4.201,1.103c1.189-0.788,2.148-2.172,3.588-2.594
					c4.017-1.176,7.958-0.967,12.104-0.992c3.238-0.02,7.838-1.548,10.843-0.178c1.704,0.777,2.61-0.835,4.32-1.131
					c0.815-0.142,2.632-0.235,2.835,0.993c0.561,3.404-2.852,4.855-4.826,6.944c-1.622,1.716-3.775,0.997-5.586,0.127
					c0.331-0.143,0.661-0.286,0.992-0.429c0.709,1.047,1.456,2.596,2.855,2.492c0.374-0.028,1.233,0.27,0.931,0.784
					c-2.19,3.716-5.748,2.942-9.014,1.268c0.346-0.102,0.691-0.203,1.037-0.304c0.523,1.889-1.573,2.175-3.07,2.345
					C0.867-1.923-3.737-7.82-9.214-3.121c-4.822,4.137-4.074,14.047-2.31,19.575c0.162,0.506-0.824,0.423-1.037,0.304
					c-0.059-0.033-0.117-0.066-0.176-0.099c-0.863-0.484-0.072-1.133,0.613-0.748c0.059,0.033,0.117,0.066,0.176,0.099
					c-0.346,0.102-0.691,0.203-1.037,0.304c-1.533-4.802-2-12.198,0.049-16.871c1.062-2.423,3.371-4.589,6.025-5.056
					C-4.982-5.951-3.226-6-1.287-5.85c1.896,0.147,10.185,4.121,9.27,0.816C7.84-5.55,8.796-5.453,9.02-5.338
					c2.512,1.288,5.46,1.597,7.066-1.129c0.31,0.261,0.62,0.522,0.931,0.784c-3.113,0.232-3.018-0.779-4.752-3.34
					c-0.382-0.564,0.737-0.552,0.992-0.429c2.365,1.136,3.921-0.404,5.355-1.583c0.952-0.548,1.729-1.272,2.333-2.172
					c-0.459-1.959-1.2-2.485-2.224-1.577c-1.123,0.655-1.258,0.88-2.484,0.616c-2.124-0.457-4.294,0.147-6.436-0.081
					c-4.784-0.508-10.143-0.673-14.853,0.347c-1.959,0.424-3.535,3.147-5.353,3.295c-2.133,0.173-3.675-2.239-5.923-0.115
					c-2.6,2.458-4.665,0.446-6.639-1.764c0.44,0.006,0.88,0.013,1.32,0.02c-0.072,0.908,3.029,7.371,3.748,8.681
					c0.991,1.807,1.061,4.037,1.259,6.038c0.461,4.641-2.405,9.295-4.169,13.438C-21.061,16.28-22.493,15.853-22.259,15.302
					L-22.259,15.302z"/>
			</g>
		</g>
		<g>
			<path fill="#934918" d="M-1.931-7.506c0.859-0.193,1.673-0.139,2.486-0.03c0.811,0.122,1.618,0.301,2.429,0.514
				C3.798-6.837,4.558-6.557,5.41-6.334C5.831-6.23,6.206-6.127,6.598-5.97c0.401,0.143,0.81,0.313,1.243,0.405
				C7.508-5.855,7.184-6.129,6.835-6.4c-0.353-0.268-0.766-0.506-1.16-0.668C4.917-7.426,4.081-7.78,3.227-7.992
				c-0.849-0.201-1.731-0.353-2.632-0.32C-0.291-8.288-1.246-8.084-1.931-7.506z"/>
		</g>
		<g>
			<path fill="#934918" d="M-9.187-9.132c1.957-0.296,3.909-0.275,5.855-0.204c1.947,0.093,3.89,0.268,5.83,0.506
				c1.941,0.22,3.878,0.507,5.819,0.79l5.84,0.877C10.44-8.533,6.554-9.379,2.621-9.869c-1.97-0.221-3.957-0.354-5.948-0.281
				C-5.312-10.085-7.325-9.824-9.187-9.132z"/>
		</g>
		<g>
			<path fill="#934918" d="M-6.819-11.244c1.75-0.284,3.498-0.255,5.236-0.169c1.739,0.107,3.474,0.298,5.202,0.554
				c1.731,0.239,3.456,0.545,5.185,0.851l5.202,0.955c-3.272-1.379-6.731-2.259-10.246-2.785c-1.761-0.241-3.543-0.395-5.331-0.344
				C-3.352-12.142-5.164-11.901-6.819-11.244z"/>
		</g>
		<g>
			<path fill="#934918" d="M11.696-6.839c-0.007-0.082-0.008-0.169,0.006-0.215l-0.179,0.153c0.366,0.542,0.922,0.865,1.509,1.019
				c0.591,0.143,1.213,0.147,1.82-0.167c-0.264-0.227-0.525-0.368-0.783-0.489c-0.256-0.128-0.511-0.216-0.768-0.296
				c-0.514-0.157-1.021-0.273-1.656-0.286L11.31-7.127l0.157,0.161C11.542-6.89,11.618-6.864,11.696-6.839z"/>
		</g>
		<polygon display="none" fill="none" points="-24,16 24,16 24,-16 -24,-16 		"/>
	</symbol>
</defs>
<use xlink:href="#New_Symbol_1"  width="48" height="33.697" x="-24" y="-16.849" transform="matrix(0.8594 0 0 -1 131.375 193)" overflow="visible"/>
<path fill="#5A4C35" stroke="#000000" stroke-width="2" stroke-miterlimit="10" d="M189.334,18.333
	c-1.673-0.729-4.742-8.172-7.325-10.416c-3.693-3.208-8.864-3.844-13.675-3.584c-9.801,0.53-17.217,7.163-20.584,16.341
	c-1.935,5.274-1.659,10.113-2.49,15.659c-0.85,5.666-1.085,10.494,0.657,15.75c3.55,10.707,3.39,20.517,3.417,31.917
	c0.011,4.612-2.043,11.412-6.992,11.674C117.334,97,102.2,106.587,91.334,112.926c-21.391,12.48-43.976,26.021-67.933,32.165
	c-5.59,1.434-14.294,1.534-18.775,4.9c1.487,1.42,4.573,2.721,6.657,2.727c0.074,3.032,0.186,4.527,3.342,5.339
	c-1.301,3.459-0.023,4.24,2.7,6.025c2.793,1.83,4.194,4.63,6.841,6.917c5.357,4.629,12.156,8.939,19.108,9.393
	c1.536,5.237,10.418,3.021,14.058,2.608c2.991-0.34,5.92-0.138,9.017-0.333c3.01-0.19,5.148-1.45,7.966-2.333
	c16.188-5.071,33.759-6.489,50.089-10.677c11.622-2.979,24.04-2.688,35.486-5.89c6.212-1.738,10.7-5.542,16.108-8.686
	c10.332-6.003,15.988-15.442,19.353-26.063c1.665-5.257,2.029-9.662,2.314-15.352c0.121-2.417-5.548-23.205-9.575-27.408
	c-3.523-3.676-5.817-6.155-7.352-10.999c-2.289-7.225-10.036-29.107-8.666-32.853c1.221-3.336,10.646-10.166,13.86-11.568
	c-0.316-3.797-5.714,0.052-2.918-2.207c5.552-4.484,0.974-6.233,1.139-9.467c1.769,0.082,1.974-0.509,3.794-0.55"/>
<g>
	<path d="M10.333,153c2.259,0.779,4.547,0.843,6.822,0.714c2.275-0.161,4.546-0.514,6.805-0.985c2.266-0.438,4.52-1.001,6.796-1.535
		c2.273-0.546,4.556-1.119,6.911-1.526c-2.07,1.189-4.227,2.18-6.452,3.018c-2.22,0.85-4.515,1.514-6.862,2.004
		c-2.352,0.449-4.767,0.738-7.201,0.58C14.752,155.122,12.212,154.533,10.333,153z"/>
</g>
<g>
	<path d="M6.334,151c2.259,0.78,4.547,0.843,6.822,0.714c2.275-0.161,4.545-0.514,6.804-0.985c2.267-0.438,4.52-1.001,6.796-1.535
		c2.273-0.547,4.556-1.119,6.911-1.526c-2.07,1.189-4.227,2.18-6.451,3.018c-2.22,0.85-4.515,1.514-6.862,2.004
		c-2.352,0.449-4.767,0.738-7.201,0.58C10.752,153.122,8.212,152.533,6.334,151z"/>
</g>
<g>
	<path d="M15.326,157.988c1.845,0.117,3.617,0.244,5.364,0.232c1.745-0.018,3.456-0.18,5.118-0.53
		c1.66-0.356,3.278-0.889,4.826-1.644c1.542-0.764,3.034-1.69,4.444-2.873c-0.758,1.706-2.106,3.118-3.645,4.213
		c-1.549,1.097-3.345,1.873-5.213,2.261c-1.869,0.397-3.797,0.408-5.647,0.124C18.723,159.481,16.938,158.899,15.326,157.988z"/>
</g>
<use xlink:href="#New_Symbol_1"  width="48" height="33.697" x="-24" y="-16.849" transform="matrix(1 0 0 -1 141 202)" overflow="visible"/>
<path fill="#B2A996" stroke="#000000" stroke-width="2" stroke-miterlimit="10" d="M29.5,161.75c-2.268,2.716-6.932,3.341-10.25,3.5
	c-4.125,0.197-6.373-0.086-11.474-1.463c1.088,2.425,2.909,4.446,6.943,6.288c0.071,3.239,2.802,4.476,5.781,4.869
	c1.606,0.212,3.231-0.417,4.75-0.193c1.621,0.238,2.803,1.285,4.5,1.499c3.264,0.411,6.3-1.065,8.932-2.812
	c1.544-1.026,2.912-2.195,4.331-3.388c0.793-0.667,2.442-2.481,2.488-1.8"/>
<g>
	<path d="M11.326,168.988c1.845,0.117,3.617,0.244,5.364,0.232c1.745-0.018,3.456-0.18,5.118-0.53
		c1.66-0.356,3.278-0.889,4.826-1.644c1.542-0.764,3.034-1.69,4.444-2.873c-0.758,1.706-2.106,3.118-3.645,4.213
		c-1.549,1.097-3.345,1.873-5.213,2.261c-1.869,0.397-3.797,0.408-5.647,0.124C14.723,170.481,12.938,169.899,11.326,168.988z"/>
</g>
<g>
	<path d="M15.326,172.988c1.845,0.117,3.617,0.244,5.364,0.232c1.745-0.018,3.456-0.18,5.118-0.53
		c1.66-0.356,3.278-0.889,4.826-1.644c1.542-0.764,3.034-1.69,4.444-2.873c-0.758,1.706-2.106,3.118-3.645,4.213
		c-1.549,1.097-3.345,1.873-5.213,2.261c-1.869,0.397-3.797,0.408-5.647,0.124C18.723,174.481,16.938,173.899,15.326,172.988z"/>
</g>
<g>
	<path fill="#766A55" d="M165.667,115.667c-0.568-0.103-1.365-0.309-1.382-0.332c5.694-0.639,8.589,7.536,12.366,9.665
		c3.499,1.973,8.796,6.274,8.796,6.274l1.479,3.8l1.552-2.254c0,0-0.511,13.924-3.487,18.181
		c-4.495,6.431-9.541,11.843-15.674,16.933c-10.25,8.507-22.317,18.115-36.315,17.399c-3.346-0.171-3.043,0.264-5.732,1.918
		c-2.692,1.657-4.414,1.49-7.268,0.426c-2.954-1.104-4.182-2.04-7.075-1.742c-2.916,0.301-5.623,1.251-8.592,1.399
		c-5.053,0.253-10.899-1.644-15.649-3c-6.111-1.745-9.204-1.833-15.35-0.315c-5.484,1.354-14.465,5.641-19.743,2.007
		c-8.118-5.591,1.789-11.229,4.743-16.083c2.216-3.642,4.062-7.391,5.675-11.283c1.41-3.399,3.947-4.465,7.407-6.325
		c4.664-2.508,8.973-5.525,13.492-8.334c4.509-2.802,8.203-6.495,12.516-9.349c7.494-4.958,14.019-8.715,22.909-11.234
		c8.207-2.326,16.574-3.981,25.15-4.083c6.616-0.078,13.653,0.33,19.321-3.299c-0.393,0.592-0.933,1.125-1.472,1.632"/>
	<g>
		<path d="M165.218,114.862c-0.246-0.054-0.492-0.107-0.739-0.16c0.453,0.532,0.907,1.064,1.36,1.598
			c2.348-0.031,4.865,4.656,6.266,6.279c1.364,1.581,3.029,2.502,4.764,3.618c2.19,1.411,4.257,3.037,6.291,4.664
			c0.669,0.534,1.08,2.829,1.41,3.676c0.35,0.899,4.124,2.173,4.747,1.269c0.518-0.752,1.034-1.503,1.552-2.254
			c-1.594-0.487-3.188-0.976-4.781-1.463c-0.33,8.276-1.307,15.52-6.458,22.182c-8.233,10.646-20.105,20.377-32.144,26.419
			c-6.236,3.131-12.104,3.155-18.826,3.746c-1.771,0.156-3.65,1.945-5.16,2.725c-1.925,0.994-7.598-1.8-10.05-2.181
			c-2.493-0.387-5.207,0.438-7.615,0.934c-4.816,0.992-9.359-0.053-13.99-1.355c-5.216-1.466-10.139-2.866-15.605-2.421
			c-5.822,0.474-11.232,3.236-16.964,4.191c-3.975,0.662-7.241-2.066-6.055-6.066c0.715-2.411,3.123-4.476,4.78-6.245
			c4.239-4.528,6.27-10.332,8.981-15.798c1.24-2.499,4.368-3.777,6.689-5.012c3.627-1.928,7.056-4.214,10.504-6.438
			c11.736-7.57,21.773-16.743,35.184-21.476c7.227-2.55,14.995-3.998,22.607-4.737c6.711-0.651,14.114,0.652,20.614-1.611
			c1.602-0.559,3.007-1.194,4.479-2.036c-1.548-0.534-3.097-1.069-4.645-1.604c-0.445,0.497-0.89,0.993-1.335,1.49
			c-0.627,0.621,3.698,2.549,4.508,1.746c0.723-0.716,0.974-0.983,1.608-1.773c0.425-0.528-3.854-2.057-4.645-1.604
			c-6.558,3.749-13.628,2.906-20.868,3.267c-7.409,0.368-14.695,1.647-21.843,3.627c-13.941,3.862-24.16,11.874-35.711,20.106
			c-5.499,3.919-11.45,7.391-17.386,10.594c-5.581,3.011-6.949,9.661-9.873,14.888c-2.305,4.121-6.435,6.874-8.432,11.155
			c-1.713,3.671,2.37,7.152,5.433,8.267c11.821,4.301,22.565-5.364,34.618-2.099c5.27,1.428,10.376,3.002,15.859,3.346
			c2.972,0.187,5.927-0.615,8.815-1.181c3.506-0.686,7.435,1.606,10.892,2.248c1.977,0.366,3.756-0.372,5.467-1.256
			c0.911-0.47,1.717-1.149,2.62-1.644c1.146-0.627,4.239-0.152,5.608-0.195c6.056-0.192,11.805-2.479,17.067-5.32
			c11.18-6.035,21.651-15.373,29.592-25.232c5.25-6.519,6.133-14.008,6.458-22.181c0.043-1.067-4.184-2.331-4.781-1.463
			c-0.518,0.752-1.034,1.503-1.552,2.254c1.582,0.423,3.165,0.846,4.747,1.269c-0.572-1.472-0.888-3.398-2.155-4.412
			c-2.758-2.204-5.612-4.324-8.648-6.13c-3.239-1.927-4.968-6.026-8.003-8.335c-2.165-1.646-5.065-2.399-7.744-2.364
			c-2.108,0.028,0.75,1.426,1.36,1.598c0.673,0.189,1.341,0.355,2.024,0.504C169.497,117.209,167.042,115.26,165.218,114.862
			L165.218,114.862z"/>
	</g>
</g>
<path fill="#5A4C35" stroke="#000000" stroke-width="2" stroke-miterlimit="10" d="M45.5,154.75c-2.268,2.716-6.932,3.341-10.25,3.5
	c-4.125,0.197-6.373-0.086-11.475-1.463c1.089,2.425,2.909,4.446,6.943,6.288c0.071,3.239,2.803,4.476,5.781,4.869
	c1.605,0.212,3.231-0.417,4.75-0.193c1.621,0.238,2.803,1.285,4.5,1.499c3.264,0.411,6.301-1.065,8.932-2.812
	c1.545-1.026,2.912-2.195,4.33-3.388c0.794-0.667,2.443-2.481,2.488-1.8"/>
<g>
	<path d="M27.326,161.988c1.845,0.117,3.617,0.244,5.364,0.232c1.745-0.018,3.456-0.18,5.118-0.53
		c1.66-0.356,3.278-0.889,4.826-1.644c1.542-0.764,3.034-1.69,4.444-2.873c-0.758,1.706-2.106,3.118-3.645,4.213
		c-1.549,1.097-3.345,1.873-5.213,2.261c-1.869,0.397-3.797,0.408-5.647,0.124C30.723,163.481,28.938,162.899,27.326,161.988z"/>
</g>
<g>
	<path d="M31.326,165.988c1.845,0.117,3.617,0.244,5.364,0.232c1.745-0.018,3.456-0.18,5.118-0.53
		c1.66-0.356,3.278-0.889,4.826-1.644c1.542-0.764,3.034-1.69,4.444-2.873c-0.758,1.706-2.106,3.118-3.645,4.213
		c-1.549,1.097-3.345,1.873-5.213,2.261c-1.869,0.397-3.797,0.408-5.647,0.124C34.723,167.481,32.938,166.899,31.326,165.988z"/>
</g>
<g>
	<path d="M33.426,176.212c1.835-0.229,3.6-0.434,5.313-0.771c1.711-0.344,3.361-0.821,4.929-1.476
		c1.564-0.659,3.055-1.484,4.435-2.515c1.373-1.038,2.665-2.227,3.831-3.651c-0.426,1.817-1.488,3.456-2.795,4.819
		c-1.318,1.366-2.937,2.463-4.701,3.192c-1.762,0.739-3.655,1.108-5.525,1.175C37.041,177.046,35.178,176.807,33.426,176.212z"/>
</g>
<g>
	<path d="M38.102,179.396c1.835-0.229,3.599-0.434,5.313-0.771c1.711-0.343,3.361-0.82,4.929-1.475
		c1.565-0.66,3.055-1.484,4.435-2.515c1.373-1.038,2.665-2.227,3.831-3.651c-0.426,1.817-1.487,3.456-2.795,4.818
		c-1.318,1.366-2.937,2.464-4.701,3.192c-1.762,0.74-3.654,1.109-5.525,1.175C41.716,180.229,39.854,179.991,38.102,179.396z"/>
</g>
<g>
	<path fill="#FE9B04" d="M186.834,14.833c1.438,0.35,6.682,6.977,7.961,8.261c2.422,2.433,6.261,3.542,9.269,4.851
		c2.496,1.087,4.274,1.37,6.798,2.311c2.831,1.056,3.519,3.505-0.594,4.538c-5.836,1.465-10.268,1.067-15.876-0.371
		c-4.861-1.247-7.296-5.415-14.619-2.333"/>
	<path fill="#A86002" d="M186.834,14.833c0.687,0.222,1.22,0.744,1.768,1.19c0.541,0.467,1.05,0.968,1.553,1.473
		c1.005,1.011,1.978,2.051,2.947,3.091l1.454,1.548c0.246,0.25,0.485,0.508,0.729,0.713c0.27,0.246,0.534,0.444,0.793,0.636
		c1.101,0.786,2.353,1.365,3.633,1.898c1.285,0.532,2.621,0.982,3.969,1.494c1.353,0.559,2.562,1,3.937,1.375l2.062,0.592
		c0.697,0.218,1.37,0.424,2.127,0.765c0.737,0.371,1.506,0.835,2.038,1.773c0.26,0.461,0.396,1.118,0.242,1.726
		c-0.153,0.607-0.515,1.061-0.874,1.379c-0.738,0.636-1.511,0.926-2.266,1.156c-0.392,0.11-0.738,0.19-1.085,0.269l-1.079,0.226
		c-1.437,0.277-2.9,0.457-4.372,0.512c-2.949,0.097-5.879-0.349-8.663-1.072c-0.699-0.187-1.381-0.359-2.104-0.598
		c-0.715-0.242-1.397-0.545-2.048-0.878c-1.298-0.673-2.479-1.438-3.731-1.979c-1.24-0.564-2.581-0.882-3.968-0.839
		c-1.382,0.041-2.771,0.364-4.122,0.807c1.263-0.654,2.625-1.167,4.078-1.356c1.447-0.208,2.977-0.035,4.376,0.44
		c1.4,0.479,2.674,1.168,3.944,1.701c0.634,0.272,1.266,0.514,1.908,0.689c0.637,0.17,1.342,0.31,2.023,0.449
		c2.741,0.549,5.49,0.892,8.222,0.717c1.365-0.067,2.726-0.25,4.073-0.525c1.323-0.286,2.784-0.583,3.497-1.203
		c0.173-0.146,0.255-0.286,0.278-0.372c0.018-0.085,0.021-0.172-0.06-0.332c-0.157-0.321-0.627-0.698-1.148-0.949
		c-0.532-0.254-1.221-0.469-1.869-0.699l-2.011-0.653c-1.353-0.417-2.799-0.992-4.044-1.577c-1.276-0.571-2.606-1.105-3.912-1.734
		c-1.311-0.62-2.589-1.373-3.738-2.326c-0.293-0.255-0.574-0.51-0.811-0.762c-0.28-0.275-0.505-0.558-0.733-0.834l-1.332-1.672
		c-0.881-1.114-1.762-2.224-2.675-3.306c-0.456-0.542-0.925-1.07-1.4-1.594C187.948,15.693,187.484,15.125,186.834,14.833z"/>
</g>
<ellipse stroke="#000000" stroke-miterlimit="10" cx="170.331" cy="14.621" rx="3.792" ry="3.546"/>
<ellipse fill="#FFFFFF" cx="170.904" cy="12.797" rx="0.963" ry="0.697"/>
<path fill="#FFFFFF" d="M168.67,15.092c0.021-0.352-0.304-1.066,0.001-1.461c0.103,0.532,0.629,0.665,1.021,0.926
	c-0.15,0.327-0.721,0.403-0.98,0.658"/>
<g>
	<path fill="#FFFFFF" d="M171.294,16.896c0.66-0.232,1.12-0.78,1.244-1.425c0.157-0.644,0.062-1.329-0.015-2.018
		c0.275,0.637,0.401,1.359,0.259,2.074c-0.093,0.349-0.256,0.695-0.526,0.945C171.991,16.724,171.643,16.875,171.294,16.896z"/>
</g>
<g>
	<path d="M184.714,27.716c1.994,1.076,3.897,2.205,5.843,3.276c1.936,1.089,3.893,2.093,5.902,3.143
		c-2.25-0.35-4.375-1.244-6.355-2.33c-0.984-0.558-1.942-1.163-2.847-1.842C186.351,29.287,185.48,28.558,184.714,27.716z"/>
</g>
<g>
	<path d="M183.759,27.853c0.067-0.586,0.348-0.977,0.796-1.265c0.23-0.125,0.513-0.228,0.822-0.191
		c0.304,0.024,0.608,0.206,0.703,0.5c-0.299,0.078-0.458,0.181-0.596,0.273c-0.135,0.1-0.27,0.181-0.424,0.281
		C184.736,27.621,184.358,27.845,183.759,27.853z"/>
</g>
<g>
	<path d="M166.752,16.313c-1.419-0.118-2.84-0.182-4.213-0.038c-1.375,0.145-2.665,0.635-3.717,1.446l-0.275-0.818
		c0.527-0.019,1.058-0.102,1.659-0.105c0.602-0.008,1.209,0.101,1.767,0.258l1.739,0.493l-1.749,0.467
		c-0.597,0.159-1.161,0.255-1.708,0.398c-0.547,0.139-1.073,0.312-1.573,0.539c-1.011,0.433-1.885,1.124-2.623,1.96l-0.373-0.637
		c0.57-0.091,1.207-0.129,1.784-0.119l1.859,0.032l-1.731,0.605c-0.328,0.115-0.691,0.35-1.021,0.586
		c-0.331,0.246-0.66,0.502-0.977,0.775c-0.314,0.274-0.616,0.567-0.886,0.886c-0.253,0.324-0.543,0.655-0.602,1.082
		c-0.023-0.437,0.203-0.848,0.424-1.211c0.23-0.368,0.496-0.711,0.779-1.039c0.282-0.33,0.587-0.641,0.921-0.924
		c0.338-0.284,0.668-0.559,1.126-0.771l0.129,0.637c-0.583,0.037-1.104,0.105-1.673,0.238l-1.019,0.238l0.646-0.875
		c0.725-0.982,1.72-1.789,2.833-2.33c1.114-0.541,2.35-0.765,3.424-1.033l-0.01,0.96c-0.5-0.149-0.987-0.244-1.49-0.247
		c-0.5-0.002-1.067,0.052-1.643,0.042l-1.402-0.024l1.127-0.794c0.616-0.435,1.303-0.78,2.025-0.982
		c0.719-0.209,1.458-0.306,2.188-0.325C163.963,15.64,165.381,15.943,166.752,16.313z"/>
</g>
<g>
	<path fill="#FBE7D6" d="M148,67.667c0.71-1.726-0.092-4.391,0.537-6.312c0.503,0.492,0.99,1.206,1.588,1.628
		c0.258-0.525,0.453-1.083,0.57-1.628c0.318,0.261,0.905,0.691,1.317,0.961c0.05-0.485,0.272-0.903,0.049-1.457
		c0.456,0.192,1.161,1.017,1.654,0.652c0.32-0.236,0.232-2.067,0.309-2.498c0.642,0.457,0.885,1.363,1.608,1.807
		c-0.024-0.447,0.129-1.003,0.068-1.446c1.157,1.717,1.094,0.838,2.008-0.212c1.073-1.233,0.681-0.858,1.782,0.544
		c0.123-0.361,0.568-0.781,0.663-1.194c0.456,0.317,0.827,0.865,1.354,1.14c0.478-0.862,0.355-1.892,0.705-2.807
		c0.195,0.477,0.482,1.14,0.916,1.465c0.135-0.445,0.455-1.001,0.534-1.461c0.123,0.231,0.703,0.61,0.846,0.836
		c0.104-0.169,0.393-0.378,0.487-0.541c0.152,0.178,0.573,0.385,0.679,0.517c0.093-0.472,0.338-0.973,0.35-1.483
		c0.185,0.26,0.807,0.728,0.979,0.986c0.232-0.618,0.296-1.272,0.668-1.693c1.053,1.613,1.348,1.646,1.616-0.301
		c0.051,0.58,0.365,1.008,0.716,1.349c0.521-0.54,0.604-1.446,0.996-2.044c0.375,0.519,0.747,1.331,1.134,1.84
		c0.047-0.633,0.018-1.308,0.071-1.933c1.05,2.426,1.177,5.662,2.27,7.77c-0.376-0.695-1.243-0.669-1.946-0.966
		c-0.062,0.219-0.162,0.376-0.228,0.592c-0.155-0.37-0.631-0.804-0.791-1.141c-0.443,0.41-0.543,1.104-0.543,1.778
		c-0.134-0.466-0.523-0.939-0.762-1.366c-0.183,0.484-0.303,1-0.197,1.557c-0.184-0.616-0.531-1.22-1.149-1.248
		c0.061,0.593-0.113,1.028-0.309,1.461c-0.223-0.527-0.683-0.804-1.016-1.141c-0.036,0.422-0.295,0.831-0.225,1.307
		c-0.3-0.459-0.769-0.839-1.281-0.961c-0.236,0.651-0.255,1.412-0.219,2.099c-0.431-0.576-0.696-1.309-1.146-1.819
		c-0.146,0.407-0.227,1.097-0.188,1.644c-0.2-0.305-0.591-0.582-0.779-0.899c-0.009,0.484-0.227,0.947-0.229,1.44
		c-0.139-0.231-0.52-0.521-0.678-0.81c-0.101,0.437-0.19,1.069-0.119,1.602c-0.256-0.688-0.835-1.24-1.385-1.777
		c-0.281,0.432-0.388,1.031-0.306,1.618c-0.376-0.6-0.819-1.163-1.454-1.47c0.016,0.531-0.021,1.155-0.097,1.632
		c-0.368-0.385-0.818-0.79-1.228-1.103c-0.083,0.731,0.09,1.495,0.278,2.124c-0.497-0.116-0.926-0.536-1.158-1.099
		c0.029,0.589,0.025,1.193-0.013,1.774c-0.582-0.249-1.009-0.734-1.449-1.136c0.062,0.456-0.121,1.021-0.055,1.473
		c-0.293-0.35-0.73-0.753-0.929-1.279c-0.176,0.685-0.146,1.453-0.521,1.992c-0.576-0.326-1.045-0.915-1.487-1.35
		c0.056,0.547-0.118,1.069-0.229,1.591c-0.188-0.281-0.752-0.61-0.93-0.933c-0.017,0.304-0.219,0.639-0.233,0.969
		c-0.708-0.25-1.337-0.964-1.942-1.46c0.042,0.526-0.156,0.97-0.241,1.432c-0.138-0.344-0.488-0.573-0.629-0.807
		c-0.085,0.349-0.424,0.653-0.358,1.181c-0.551-0.404-0.86-1.156-0.305-1.491"/>
	<g>
		<path d="M148.238,67.624c0.353-1.492-0.232-6.356,1.659-4.559c0.077,0.073,0.432-0.027,0.466-0.125
			c0.305-1.154,0.778-1.334,1.422-0.542c0.079,0.055,0.446-0.016,0.466-0.125c0.187-1.031,0.217-0.815,1.267-0.669
			c0.098,0.014,0.398-0.015,0.437-0.136c0.457-1.46-0.112-2.249,1.451-0.566c0.073,0.079,0.464-0.034,0.469-0.147
			c0.032-0.674,0.354-0.438,0.724-0.356c0.115,0.025,0.336-0.02,0.417-0.112c0.424-0.479,1.372-1.772,2.235-0.515
			c0.074,0.109,0.424-0.014,0.479-0.108c0.545-0.92,0.774-0.541,1.551,0.071c0.081,0.064,0.436-0.02,0.466-0.125
			c0.391-1.351,0.16-2.444,1.155-1.216c0.066,0.082,0.433-0.036,0.466-0.125c0.167-1.028,0.472-1.194,0.914-0.5
			c0.082,0.079,0.383-0.031,0.446-0.101c0.239,0.026,0.479,0.051,0.72,0.077c0.079,0.061,0.44-0.019,0.466-0.125
			c0.123-1.012,0.411-1.136,0.863-0.372c0.072,0.073,0.437-0.028,0.466-0.125c0.383-1.253,0.479-0.899,1.305-0.384
			c0.113,0.071,0.391-0.026,0.465-0.125c0.464-0.611,0.076-0.867,0.751-0.029c0.081,0.101,0.424-0.006,0.479-0.108
			c0.723-1.324,0.849-1.382,1.65-0.096c0.063,0.102,0.479-0.01,0.482-0.13c0.086-2.5,0.576,1.613,0.707,2.201
			c0.364,1.639,1.824,3.307-0.355,2.642c-0.097-0.03-0.394,0.025-0.437,0.136c-0.248-0.15-0.428-0.369-0.539-0.657
			c-0.075-0.106-0.426,0.011-0.479,0.108c-0.433,0.782-0.335,1.183-0.825,0.304c-0.061-0.109-0.468,0.014-0.482,0.13
			c-0.113,0.893-0.072,0.603-0.878,0.162c-0.086-0.047-0.441,0.009-0.466,0.125c-0.229,1.088-0.273,0.727-0.858,0.195
			c-0.074-0.067-0.441,0.024-0.466,0.125c-0.226,0.939-0.107,0.68-1.04,0.221c-0.087-0.043-0.441,0.006-0.466,0.125
			c-0.277,1.357-0.085,1.392-0.886,0.172c-0.061-0.093-0.457,0.002-0.479,0.108c-0.057,0.269,0.002,1.2-0.501,0.62
			c-0.062-0.072-0.45,0.03-0.466,0.125c-0.147,0.168-0.294,0.337-0.441,0.505c-0.069-0.083-0.461,0.037-0.469,0.147
			c-0.087,1.167-0.671,0.055-1.035-0.322c-0.067-0.069-0.447,0.027-0.466,0.125c-0.238,1.261-0.786,0.409-1.294,0.023
			c-0.086-0.065-0.462,0.024-0.469,0.147c-0.285,0.127-0.57,0.255-0.855,0.382c-0.076-0.068-0.473,0.029-0.469,0.147
			c0.362,1.049,0.229,1.348-0.397,0.895c-0.065-0.098-0.481,0.008-0.482,0.13c-0.016,1.302-0.347,1.466-0.993,0.492
			c-0.078-0.073-0.465,0.03-0.469,0.147c-0.167,0.021-0.334,0.043-0.501,0.064c-0.057-0.094-0.461,0.004-0.479,0.108
			c-0.248,1.404-0.539,1.554-1.543,0.517c-0.079-0.082-0.453,0.035-0.469,0.147c0.032,1.125-0.197,1.295-0.689,0.511
			c-0.068-0.072-0.442,0.028-0.466,0.125c-0.718,0.421-1.287,0.216-1.71-0.616c-0.072-0.063-0.448,0.022-0.466,0.125
			c-0.13,0.172-0.26,0.345-0.391,0.518c-0.076-0.098-0.433,0.003-0.479,0.108c-0.293,0.819-0.355,0.688-0.187-0.396
			c0.031-0.087-0.432-0.036-0.477,0.086c-0.373,1.021-0.417,0.536,0.302,1.513c0.064,0.088,0.459,0.001,0.479-0.108
			c-0.041-0.777,0.128-0.866,0.508-0.267c0.066,0.085,0.461,0.003,0.479-0.108c0.559-0.701,1.131-0.65,1.718,0.153
			c0.085,0.053,0.438-0.013,0.466-0.125c0.165-0.524,0.397-0.495,0.697,0.088c0.082,0.079,0.453-0.033,0.469-0.147
			c0.258-0.952,0.673-0.983,1.247-0.094c0.084,0.067,0.429-0.022,0.466-0.125c0.414-1.162,0.211-1.475,0.984-0.588
			c0.07,0.08,0.465-0.036,0.469-0.147c0.07-0.896,0.415-0.959,1.035-0.19c0.087,0.057,0.468-0.02,0.469-0.147
			c0.009-1.192-0.244-1.061,0.702-0.528c0.076,0.042,0.498-0.024,0.469-0.147c-0.56-0.993-0.4-1.284,0.48-0.874
			c0.081,0.072,0.462-0.029,0.469-0.147c0.356-0.011,0.712-0.022,1.068-0.033c0.065,0.088,0.459,0.002,0.479-0.108
			c0.403,0.089,0.807,0.178,1.211,0.267c0.063,0.104,0.474-0.011,0.482-0.13c0.109-0.215,0.219-0.43,0.328-0.645
			c0.061,0.073,0.45-0.031,0.466-0.125c0.181-0.139,0.362-0.277,0.543-0.416c0.069,0.08,0.466-0.036,0.469-0.147
			c0.221-0.948,0.505-0.847,0.852,0.305c0.062,0.102,0.481-0.01,0.482-0.13c0.015-1.738,0.358-2.068,1.031-0.991
			c0.075,0.082,0.457-0.036,0.469-0.147c0.253-0.012,0.505-0.024,0.758-0.036c0.065,0.089,0.456,0.001,0.479-0.108
			c0.326-0.035,0.652-0.071,0.979-0.106c0.055,0.111,0.469-0.017,0.482-0.13c0.159-0.021,0.317-0.041,0.477-0.061
			c0.061,0.108,0.471-0.014,0.482-0.13c0.176-1.27,0.459-1.438,0.852-0.507c0.067,0.1,0.44-0.006,0.479-0.108
			c0.569,0.167,1.139,0.333,1.708,0.5c0.071,0.053,0.511-0.046,0.469-0.147c-1.045-2.509-1.352-5.215-2.27-7.77
			c-0.039-0.109-0.479,0.015-0.482,0.13c-0.055,1.383-0.03,1.1-0.723-0.038c-0.063-0.105-0.438,0.011-0.479,0.108
			c-0.379,0.88-0.762,2.052-1.232,0.587c-0.033-0.104-0.461,0.013-0.479,0.108c0.037,1.412-0.342,1.476-1.137,0.193
			c-0.074-0.103-0.43,0.008-0.479,0.108c-0.438,0.875-0.414,1.349-1.182,0.583c-0.07-0.07-0.442,0.027-0.466,0.125
			c-0.188,0.28-0.375,0.561-0.562,0.841c-0.094-0.071-0.376,0.023-0.446,0.101c-0.4,0.138-0.695,0.005-0.887-0.396
			c-0.075-0.076-0.431,0.03-0.466,0.125c-0.323-0.037-0.646-0.074-0.971-0.112c-0.047-0.101-0.458,0.01-0.479,0.108
			c-0.246,1.152-0.312,2.696-1.593,1.542c-0.087-0.078-0.417,0.031-0.466,0.125c-0.543,1.043-0.596,0.218-1.285-0.194
			c-0.106-0.064-0.366,0.018-0.446,0.101c-0.351,0.363-1.451,1.832-2.242,0.847c-0.074-0.093-0.477,0.003-0.482,0.13
			c-0.454,0.687-0.857,0.517-1.208-0.508c-0.069-0.082-0.463,0.037-0.469,0.147c0.163,0.955-0.335,1.521-1.494,1.699
			c-0.08-0.053-0.482,0.022-0.469,0.147c-0.034,0.975-0.334,1.091-0.897,0.349c-0.085-0.065-0.429,0.021-0.466,0.125
			c-0.659,0.997-1.224,0.955-1.692-0.125c-0.064-0.071-0.447,0.029-0.466,0.125c-0.393,2.104-0.041,4.213-0.537,6.312
			C147.737,67.813,148.21,67.742,148.238,67.624L148.238,67.624z"/>
	</g>
</g>
<path fill="none" stroke="#A86002" stroke-miterlimit="10" d="M191.834,26.5c-0.472-0.843-2.608-1.068-2.309-3.141
	c0.17,0.023,0.432-0.007,0.612,0.003c0.418,1.154,1.644,2.088,2.196,3.304"/>
<path fill="#FE9B04" d="M182,27c1.462-2.188,1.331-5.744,1.335-8.358c0.808,1.811,4.861,0.985,2.545,3.613
	c-0.794,0.901-1.842,1.75-2.546,2.782c-0.315,0.463-1.189,2.476-1,1.963"/>
<g>
	<path d="M180.831,17.512c0.899-0.02,1.663,0.064,2.428,0.141l2.197,0.27l4.543,0.565c-0.598,0.681-1.421,1.045-2.245,1.272
		c-0.834,0.215-1.705,0.252-2.551,0.146c-0.846-0.112-1.668-0.365-2.417-0.759C182.047,18.747,181.345,18.232,180.831,17.512z"/>
</g>
<g>
	<path d="M149.775,72.306c0.365,0.398,0.492,0.947,0.673,1.441c0.164,0.504,0.316,1.02,0.497,1.499
		c0.439,0.945,0.849,1.948,1.366,2.832c0.521,0.882,1.195,1.679,1.921,2.41c0.728,0.711,1.533,1.404,2.369,1.778l-0.785,0.38
		c0.027-1.159-0.045-2.646-0.086-3.646h1.328c0.074,3,0.884,4.895,2.004,7.094c1.113,2.212,2.536,4.33,4.134,6.244l-1.573,0.199
		c0.609-1.275,0.64-2.807,0.304-4.318l-0.881-3.956l2.568,3.129c1.146,1.395,1.728,2.885,2.34,4.331
		c0.593,1.447,1.107,2.899,1.706,4.248c0.676,1.419,1.229,2.941,1.639,4.492c0.201,0.783,0.368,1.585,0.437,2.442
		c0.031,0.429,0.041,0.875-0.024,1.352c-0.065,0.47-0.204,1.009-0.591,1.525l-1.476-1.154c0.613-0.775,1.093-1.832,1.498-2.887
		c0.405-1.067,0.742-2.179,1.037-3.303l1.174-4.467l0.51,4.564c0.211,1.887-0.075,3.677-0.425,5.405
		c-0.366,1.728-0.85,3.408-1.327,5.059l-0.225,0.776l-0.689-0.34c-0.94-0.464-1.824-0.985-2.692-1.254l0.496-0.989
		c1.075,0.919,1.865,2.087,2.435,3.313c0.574,1.229,0.958,2.517,1.226,3.817l0.111,0.543l-0.474-0.247
		c-1.556-0.813-2.877-1.911-4.389-2.732c1.603,0.635,3.062,1.6,4.611,2.265l-0.362,0.296c-0.366-1.242-0.844-2.449-1.478-3.549
		c-0.638-1.094-1.426-2.091-2.394-2.826l-2.176-1.653l2.673,0.664c1.115,0.277,2.037,0.77,2.961,1.15l-0.914,0.436
		c0.393-1.692,0.819-3.348,1.099-5.015c0.283-1.657,0.437-3.343,0.231-4.896l1.684,0.097c-0.282,1.176-0.607,2.345-1.019,3.505
		c-0.425,1.158-0.883,2.315-1.714,3.431l-1.476-1.153c0.175-0.213,0.251-0.92,0.184-1.579c-0.061-0.679-0.21-1.393-0.399-2.099
		c-0.393-1.424-0.904-2.809-1.564-4.166c-0.672-1.461-1.183-2.92-1.741-4.331c-0.56-1.389-1.155-2.807-1.977-3.804l1.688-0.835
		c0.185,0.893,0.284,1.825,0.224,2.776c-0.057,0.949-0.293,1.918-0.74,2.795l-0.673,1.318l-0.901-1.142
		c-1.622-2.057-3.065-4.355-4.183-6.75C156.47,84.425,155.674,82,155.73,79h1.328c-0.034,1-0.031,2.48-0.135,3.712l-0.071,0.892
		l-0.714-0.353c-1.075-0.566-1.842-1.349-2.557-2.177c-0.7-0.835-1.336-1.724-1.813-2.713c-0.473-0.994-0.78-1.991-1.151-3.003
		c-0.157-0.526-0.231-1.047-0.343-1.566C150.15,73.283,150.089,72.736,149.775,72.306z"/>
</g>
<use xlink:href="#New_Symbol"  width="12" height="8.499" x="-6" y="-4.249" transform="matrix(1 0 0 -1 159 162)" overflow="visible"/>
<use xlink:href="#New_Symbol"  width="12" height="8.499" x="-6" y="-4.249" transform="matrix(1.7117 0 0 -1.6406 165.2695 162.2783)" overflow="visible"/>
<use xlink:href="#New_Symbol"  width="12" height="8.499" x="-6" y="-4.249" transform="matrix(0.7462 1.6948 2.5924 -1.1414 88.9512 169.7021)" overflow="visible"/>
<use xlink:href="#New_Symbol"  width="12" height="8.499" x="-6" y="-4.249" transform="matrix(0.2736 0.9618 2.0842 -0.5928 91.9751 173.0361)" overflow="visible"/>
<g>
	<path d="M80.326,157.988c3.558,0.648,7.145,0.934,10.585,0.191c1.716-0.353,3.373-0.964,4.923-1.798
		c1.536-0.852,3.007-1.885,4.245-3.208c-0.931,1.565-2.299,2.871-3.844,3.878c-1.547,1.019-3.304,1.716-5.117,2.106
		C87.47,159.918,83.658,159.395,80.326,157.988z"/>
</g>
<g>
	<path d="M58.228,178.987c0.881,0.756,1.849,1.31,2.885,1.622c0.512,0.166,1.035,0.284,1.562,0.348
		c0.258,0.025,0.541,0.059,0.776,0.067c0.197,0.001,0.469-0.027,0.725-0.064c1.049-0.173,2.157-0.402,3.245-0.674
		c1.095-0.255,2.196-0.509,3.292-0.791c2.207-0.512,4.415-1.049,6.651-1.494c2.233-0.459,4.483-0.872,6.789-1.112
		c-2.072,1.04-4.211,1.874-6.377,2.617c-2.164,0.756-4.368,1.38-6.597,1.933c-2.25,0.498-4.474,1.007-6.896,1.073
		c-1.365,0.042-2.497-0.443-3.571-1.012C59.663,180.887,58.763,180.021,58.228,178.987z"/>
</g>
<g>
	<path fill="#B2A996" d="M167.334,113.333c-4.603-2.641-8.414-6.287-13.834-8.083c-5.089-1.687-11.714-2.863-17.166-2.583
		c-13.442,0.688-23.408,6.025-35.096,11.64c-11.011,5.29-21.118,10.988-32.497,15.286c-4.962,1.874-10.042,3.77-15.071,5.309
		c-6.339,1.94-12.923,4.629-19.341,6.378c-2.286,0.623-5.436,1.673-8.053,1.37c2.304,3.188,9.928,3.668,13.594,3.125
		c5.646-0.836,18.77-5.993,21.432-6.795c-2.318,1.739-12.199,5.894-16.38,7.88c-3.709,1.762-6.613,2.898-10.486,4.158
		c4.936,0.322,10.604,0.236,15.262-1.584c-0.998,2.414-7.047,4.332-8.886,5.437c2.936,4.415,12.024,6.412,16.937,6.586
		c6.404,0.227,21.911-6.495,27.391-10.141c-0.699,1.067-11.943,7.758-12.859,8.572c5.597,4.875,21.173-9.369,23.523-12.963
		c5.197-7.948,16.508-17.354,25.613-20.178c12.671-3.931,18.913-3.697,32.26-4.414c2.218-0.119,8.982-0.803,9.992,0.667"/>
	<path d="M167.334,113.333c-2.755-1.539-5.273-3.462-7.958-5.098c-1.343-0.818-2.729-1.563-4.175-2.164
		c-1.44-0.605-2.959-1.03-4.474-1.435c-6.081-1.567-12.424-2.197-18.628-1.216c-6.219,0.834-12.197,2.866-17.937,5.385
		c-2.876,1.256-5.706,2.628-8.535,4.013l-8.475,4.178c-5.624,2.829-11.207,5.77-16.921,8.479c-2.857,1.354-5.747,2.651-8.682,3.848
		c-2.947,1.188-5.887,2.29-8.854,3.393c-2.962,1.096-5.961,2.139-8.983,3.066c-2.992,0.928-5.947,1.988-8.923,3.035
		c-2.976,1.047-5.968,2.088-9.024,2.979c-1.547,0.427-3.008,0.874-4.6,1.265c-1.576,0.366-3.231,0.664-4.992,0.484l0.835-1.425
		c0.71,0.973,2.05,1.619,3.407,2.049c1.382,0.426,2.855,0.668,4.335,0.787c1.479,0.116,2.986,0.123,4.437-0.031
		c1.425-0.16,2.903-0.546,4.363-0.944c2.926-0.821,5.833-1.811,8.728-2.824c2.917-1.011,5.733-2.1,8.745-3.104l6.144-2.049
		l-5.284,3.75c-1.146,0.813-2.229,1.332-3.349,1.91c-1.112,0.558-2.229,1.088-3.347,1.608l-6.719,3.055
		c-2.233,0.99-4.418,2.093-6.732,3.056c-2.293,0.97-4.643,1.807-6.997,2.567l-0.239-1.911c2.539,0.17,5.078,0.221,7.584,0.027
		c2.5-0.196,4.98-0.636,7.267-1.521l2.205-0.854l-0.977,2.105c-0.539,1.16-1.375,1.754-2.146,2.308
		c-0.791,0.535-1.602,0.967-2.415,1.369c-0.813,0.398-1.631,0.763-2.439,1.118c-0.794,0.354-1.637,0.706-2.285,1.078l0.297-1.318
		c0.967,1.442,2.601,2.521,4.307,3.354c1.728,0.831,3.593,1.443,5.491,1.906c1.899,0.459,3.847,0.782,5.781,0.911
		c1.858,0.157,3.768-0.228,5.68-0.679c3.816-0.954,7.565-2.348,11.231-3.885c3.645-1.564,7.305-3.255,10.588-5.352l3.859-2.464
		l-2.678,3.637c-0.232,0.315-0.354,0.387-0.502,0.523l-0.413,0.328l-0.811,0.586c-0.54,0.377-1.081,0.738-1.625,1.092l-3.277,2.083
		l-3.284,2.046l-1.632,1.024L73.5,159.98c-0.248,0.163-0.562,0.372-0.705,0.488l-0.006-1.168c1.321,1.198,3.549,0.924,5.468,0.25
		c1.966-0.687,3.845-1.74,5.64-2.902c3.575-2.361,6.928-5.162,9.884-8.265c0.364-0.391,0.719-0.789,1.045-1.194
		c0.323-0.391,0.6-0.833,0.918-1.292c0.642-0.917,1.315-1.79,2.018-2.642c1.406-1.703,2.923-3.302,4.515-4.819
		c3.187-3.028,6.658-5.756,10.403-8.065c1.876-1.148,3.83-2.178,5.866-3.031c2.049-0.86,4.179-1.415,6.281-1.992
		c4.226-1.132,8.55-1.935,12.904-2.33c4.354-0.405,8.716-0.511,13.069-0.691c2.179-0.061,4.349-0.207,6.531-0.29
		c1.09-0.031,2.184-0.039,3.272,0.035c0.545,0.038,1.089,0.101,1.623,0.215c0.519,0.125,1.097,0.271,1.438,0.714
		c-0.351-0.434-0.927-0.563-1.445-0.677c-0.534-0.101-1.076-0.15-1.619-0.176c-1.087-0.048-2.176-0.015-3.263,0.042
		c-2.17,0.134-4.346,0.332-6.522,0.443c-4.351,0.259-8.709,0.439-13.028,0.92c-4.321,0.469-8.584,1.337-12.758,2.534
		c-2.087,0.611-4.179,1.197-6.139,2.062c-1.969,0.866-3.865,1.906-5.686,3.065c-3.649,2.31-7.042,5.031-10.14,8.04
		c-1.546,1.507-3.018,3.091-4.369,4.764c-0.675,0.837-1.324,1.697-1.923,2.572c-0.298,0.439-0.596,0.926-0.962,1.381
		c-0.352,0.447-0.718,0.866-1.093,1.277c-3.022,3.237-6.375,6.099-10.044,8.581c-1.846,1.222-3.782,2.346-5.928,3.123
		c-1.075,0.378-2.211,0.673-3.428,0.697c-1.2,0.04-2.553-0.304-3.552-1.176l-0.689-0.603l0.684-0.565
		c0.355-0.295,0.586-0.433,0.872-0.631l0.817-0.538l1.632-1.049l3.26-2.079l3.229-2.102l1.579-1.074l0.754-0.55l0.343-0.273
		c0.096-0.074,0.221-0.215,0.179-0.161l1.181,1.173c-3.479,2.235-7.134,3.926-10.848,5.541c-3.725,1.575-7.515,3.005-11.484,4.014
		c-1.976,0.472-4.059,0.913-6.219,0.747c-2.07-0.131-4.097-0.462-6.098-0.937c-1.998-0.481-3.972-1.115-5.864-2.018
		c-1.867-0.918-3.752-2.076-5.061-3.982l-0.566-0.823l0.863-0.495c0.882-0.506,1.676-0.824,2.487-1.194
		c0.804-0.356,1.596-0.713,2.364-1.093c0.765-0.381,1.511-0.786,2.179-1.242c0.658-0.443,1.263-1.003,1.457-1.471l1.228,1.252
		c-2.526,0.986-5.178,1.455-7.807,1.672c-2.635,0.213-5.263,0.167-7.866,0.003l-5.102-0.321l4.862-1.59
		c2.319-0.758,4.6-1.58,6.83-2.532c2.22-0.936,4.424-2.049,6.689-3.038l6.71-3.021c1.11-0.513,2.215-1.032,3.301-1.571
		c1.065-0.538,2.199-1.105,3.058-1.717l0.86,1.701c-2.833,0.935-5.77,2.052-8.675,3.048c-2.92,1.01-5.851,1.997-8.857,2.83
		c-1.51,0.404-3.023,0.803-4.662,0.985c-1.613,0.164-3.199,0.148-4.788,0.02c-1.586-0.136-3.17-0.396-4.731-0.882
		c-1.531-0.514-3.167-1.194-4.323-2.729l-1.227-1.627l2.062,0.201c2.819,0.274,5.868-0.869,8.893-1.659
		c3-0.862,5.967-1.883,8.941-2.918c2.973-1.034,5.957-2.094,8.99-3.022c3.007-0.916,5.967-1.93,8.932-2.981
		c2.953-1.062,5.928-2.141,8.839-3.28c2.915-1.152,5.792-2.406,8.645-3.722c5.707-2.632,11.313-5.509,16.98-8.285l8.531-4.093
		c2.847-1.356,5.706-2.705,8.62-3.941c5.813-2.488,11.941-4.414,18.253-5.16c3.146-0.382,6.341-0.519,9.503-0.19
		c3.157,0.301,6.276,0.899,9.325,1.743c1.521,0.435,3.039,0.887,4.497,1.529c1.455,0.634,2.833,1.425,4.162,2.276
		C162.151,109.755,164.616,111.73,167.334,113.333z"/>
</g>
<path fill="#C6BBA8" d="M152.5,105.25c-5.089-1.687-11.714-2.863-17.166-2.583c-13.442,0.688-23.408,6.025-35.096,11.64
	c-11.011,5.29-21.118,10.988-32.497,15.286c-4.962,1.874-10.042,3.77-15.071,5.309c-6.339,1.94-12.923,4.629-19.341,6.378
	c-2.286,0.623-5.436,1.673-8.053,1.37c2.304,3.188,9.928,3.668,13.595,3.125c5.134-0.761,10.173-2.806,15.038-4.538
	c5.787-2.06,11.654-3.783,17.272-6.299c2.937-1.315,6.785-3.706,10.042-3.387c-1.656,2.016-4.369,3.632-5.448,6.16
	c3.796-0.102,8.583-2.174,12.243-3.286c4.2-1.277,9.264-3.048,12.918-5.601c-0.688,0.449-0.968,1.072-1.418,1.638
	c2.25,0.317,5.423-2.294,7.413-3.274c3.304-1.628,6.879-3.022,10.367-4.133c7.138-2.272,14.434-4.346,21.668-6.349
	c-0.462-2.202-4.984-3.067-6.952-3.261c2.6-0.72,6.298-1.221,9.235-0.945c3.011,0.282,5.604,1.659,8.5,2.193
	c2.547,0.47,6.434,0.384,9.002,0c1.991-0.298,4.665-0.316,6.275-1.553C163.503,109.767,155.888,106.373,152.5,105.25z"/>
<use xlink:href="#New_Symbol"  width="12" height="8.499" x="-6" y="-4.249" transform="matrix(1 0 0 -1 130 175)" overflow="visible"/>
<use xlink:href="#New_Symbol"  width="12" height="8.499" x="-6" y="-4.249" transform="matrix(1 0 0 -1 129 172)" overflow="visible"/>
<g>
	<path d="M112,166.334c1.19,2.023,1.677,4.363,2.287,6.568c0.557,2.231,1.112,4.442,1.835,6.525
		c0.752,2.049,1.681,4.054,3.117,5.258c0.715,0.589,1.495,1.007,2.389,1.188c0.866,0.19,1.918,0.142,2.809-0.019
		c0.801-0.154,1.635-0.604,2.462-1.226c0.821-0.615,1.609-1.359,2.363-2.152c1.551-1.554,2.951-3.345,4.43-5.093
		c2.838-3.45,5.276-7.307,7.539-11.323l0.234-0.416l0.01,0.447c0.005,0.182-0.042,0.384-0.152,0.525
		c-0.108,0.139-0.227,0.245-0.322,0.383c0.057-0.155,0.15-0.303,0.211-0.446c0.06-0.145,0.05-0.285,0.012-0.429l0.244,0.031
		c-0.6,2.243-1.418,4.428-2.389,6.551c-0.974,2.123-2.117,4.181-3.459,6.131c-1.309,1.9-2.674,3.787-4.255,5.598
		c-0.812,0.886-1.678,1.747-2.68,2.531c-0.99,0.76-2.179,1.54-3.65,1.816c-1.367,0.219-2.654,0.248-4.037-0.06
		c-1.354-0.306-2.672-0.996-3.649-1.96c-1.976-1.944-2.863-4.371-3.437-6.675c-0.587-2.324-0.823-4.648-1.046-6.941
		C112.643,170.851,112.575,168.57,112,166.334z"/>
</g>
<g>
	<path d="M179.6,32.567c0.168-1.378,0.479-2.597,0.792-3.818c0.326-1.208,0.666-2.387,1.029-3.557
		c0.357-1.171,0.738-2.333,1.139-3.51c0.41-1.18,0.831-2.357,1.364-3.623c0.544,1.284,0.649,2.648,0.623,3.977
		c-0.046,1.333-0.282,2.649-0.674,3.914c-0.395,1.264-0.937,2.48-1.638,3.605C181.524,30.667,180.691,31.729,179.6,32.567z"/>
</g>
<rect fill="none" width="220" height="220"/>
</svg>
