<svg id="Layer_2_copy" xmlns="http://www.w3.org/2000/svg" viewBox="0 0 100 100" width="100" height="100">
    <style>
        .st0{fill:#fff}.st1{fill:#fefe2f;stroke:#fefe2f;stroke-width:.04;stroke-miterlimit:10}.st2{fill:#cbd806;stroke:#cbd806}.st2,.st3{stroke-width:.04;stroke-miterlimit:10}.st3{fill:#aaaa0c;stroke:#aaaa0c}.st4{fill:#dbd9d7;stroke:#dbd9d7}.st4,.st5{stroke-width:.04;stroke-miterlimit:10}.st5{fill:#b2b1b1;stroke:#b2b1b1}
    </style>
    <g id="XMLID_1_">
        <path class="st0" d="M74.63 77.214l.13-1.803c1.722.1 3.384.39 4.783 1.39a11.38 11.38 0 0 1-1.098 1.5c-1.168-.74-2.467-1.01-3.816-1.08zm.17-55.446c-.715.09-1.43.18-2.155.262.282-.806.463-1.46.574-1.923.61-.12 1.22-.2 1.84-.242-.03.412-.1 1.067-.26 1.903zM64.216 33.932c4.38-3.404 6.737-7.633 7.965-10.654l2.35-.262c-.88 3.525-3.22 8.912-9.38 12.92a11.34 11.34 0 0 1-.925-2.004zm9.194 43.25c-3.404.03-6.99.746-9.657-1.932a10.042 10.042 0 0 1-.826-.947l.15-3.897a9.427 9.427 0 0 0 1.683 2.67c2.236 2.527 5.54 2.265 8.75 2.305l-.1 1.81z"/>
        <path class="st0" d="M62.736 74.052c.04-1.057.08-2.205.12-3.424l.03-.715c.05.16.112.332.192.493l-.15 3.897a2.37 2.37 0 0 1-.192-.25z"/>
        <path class="st0" d="M62.534 73.77l.16-4.45c.05.19.112.392.192.593l-.03.715c-.04 1.218-.08 2.366-.12 3.424-.07-.09-.14-.182-.202-.282z"/>
        <path class="st0" d="M62.242 67.9l.13-5.137c.182-.1.374-.19.555-.282l-.01.35c-.524 1.68-.916 4.05-.222 6.497l-.16 4.45c-.152-.21-.283-.432-.414-.654l.13-5.215z"/>
        <path class="st0" d="M62.373 62.763l-.13 5.136-.122 5.21a9.28 9.28 0 0 1-.19-.367l.06-2.155c.06-2.356.14-4.954.23-7.734.05-.04.11-.07.16-.1z"/>
        <path class="st0" d="M61.77 72.4l.27-9.446c.06-.03.112-.07.172-.09-.08 2.778-.16 5.376-.222 7.733l-.06 2.155a5.02 5.02 0 0 1-.16-.352z"/>
        <path class="st0" d="M62.04 62.954l-.27 9.446c-1.783-3.857-.444-7.895.2-9.405.02-.01.05-.03.07-.04zm-10.432-5.83l-.16-4.3c.774 2.397 2.416 4.24 4.55 5.136-.654.383-1.338.695-2.053.947a7.877 7.877 0 0 1-2.337-1.783zm-.372-10.14l-.383-10.444h.18c.535.473 2.257 2.628.364 9.778-.06.222-.11.444-.16.665zm-1.088 6.293c.01.574.02 1.138.04 1.712-1.742-3.6-1.35-8.25-.322-10.73l.06-.15c.09 3.05.162 6.1.222 9.16zm-4.51 18.54a14.29 14.29 0 0 0-2.71 1.24l-.04-.405v-.04c.07-.423.12-.836.14-1.26a13.35 13.35 0 0 1 2.125-.885c.2.473.352.926.483 1.35z"/>
        <path class="st0" d="M42.888 72.612l-.11-1.128c.09-.04.17-.09.25-.13-.02.422-.07.835-.14 1.258zm-.09.523c.04-.16.07-.322.09-.483l.04.403c-.04.03-.08.06-.13.08z"/>
        <path class="st0" d="M42.716 73.186c-.05-.524-.1-1.057-.14-1.59.07-.04.14-.07.2-.112l.11 1.128v.04c-.02.16-.05.322-.09.483-.02.02-.05.04-.08.05z"/>
        <path class="st0" d="M42.575 71.595c.04.534.09 1.067.14 1.59-.07.05-.15.102-.23.152l-.152-1.61c.08-.042.162-.082.242-.132z"/>
        <path class="st0" d="M42.062 73.62l-.15-1.632c.14-.09.28-.17.422-.262l.15 1.61c-.14.09-.28.182-.422.283z"/>
        <path class="st0" d="M41.84 73.78a99.88 99.88 0 0 0-.16-1.64c.08-.05.15-.102.23-.152l.152 1.63c-.07.05-.14.1-.222.162z"/>
        <path class="st0" d="M41.68 72.138c.06.554.11 1.098.16 1.64-.07.04-.14.092-.21.152l-.152-1.662c.06-.04.13-.09.2-.13z"/>
        <path class="st0" d="M41.63 73.93c-2.005 1.5-4.12 3.908-5.318 7.695-.554.282-1.138.524-1.742.715 1.38-5.327 4.38-8.378 6.908-10.07l.15 1.66zm-6.335-39.122c-3.04-.997-7-4.3-11.7-4.542l-.243-1.923c5.8-.08 9.677 3.655 12.598 4.763-.172.585-.383 1.16-.655 1.702zM23.935 63.57c-.11.956-.533 3.544-2.154 6.333l-.17-1.158-.2-1.31c.72-1.54.92-2.738.92-2.738a15.34 15.34 0 0 1 1.61-1.128z"/>
        <path class="st0" d="M21.237 67.788c.06-.12.12-.242.17-.352l.202 1.31.17 1.157c-.05.09-.11.19-.17.292-.12-.786-.26-1.58-.38-2.407z"/>
        <path class="st0" d="M21.046 68.15c.07-.12.14-.24.19-.362.122.826.253 1.62.374 2.407-.06.1-.12.2-.19.302l-.374-2.346zm.03 2.87l-.373-2.265c.13-.2.242-.403.342-.604l.373 2.35c-.11.17-.22.35-.342.53z"/>
        <path class="st0" d="M20.895 71.272a260.3 260.3 0 0 1-.363-2.236c.06-.09.12-.19.17-.282l.374 2.266a5.5 5.5 0 0 0-.18.252z"/>
        <path class="st0" d="M20.713 71.514c-.12-.725-.242-1.45-.363-2.185.06-.11.12-.21.18-.3.122.763.243 1.51.364 2.234-.06.08-.11.16-.18.24z"/>
        <path class="st0" d="M18.86 73.588c-.17-.705-.282-1.43-.322-2.165.725-.655 1.33-1.38 1.813-2.095l.37 2.185a15.78 15.78 0 0 1-1.85 2.075zM15.567 30.76a10.69 10.69 0 0 1 2.437-1.32c1.49-.583 2.88-.905 4.18-1.036l.22 1.873c-1.248.08-2.547.403-3.896 1.047-1.027.493-1.873 1.057-2.568 1.672-.12-.745-.242-1.49-.373-2.236z"/>
        <path class="st0" d="M15.73 33.187c-.122-.765-.243-1.52-.364-2.266.06-.05.13-.1.2-.16.132.75.253 1.49.374 2.24-.07.06-.14.12-.21.19z"/>
        <path class="st0" d="M15.175 31.072c.06-.05.12-.1.19-.15.122.744.243 1.5.364 2.265-.06.06-.14.12-.2.19l-.364-2.305z"/>
        <path class="st0" d="M15.144 33.79l-.373-2.376a7.32 7.32 0 0 1 .41-.342l.366 2.306a5.07 5.07 0 0 0-.393.413z"/>
        <path class="st0" d="M14.772 31.415l.373 2.377c-.08.08-.14.15-.19.232-.132-.816-.253-1.62-.374-2.427.06-.06.12-.122.2-.182z"/>
        <path class="st0" d="M14.762 34.265l-.383-2.477c.06-.07.13-.13.2-.19a244 244 0 0 0 .37 2.426c-.08.08-.14.16-.19.24z"/>
        <path class="st0" d="M14.38 31.787l.382 2.477a7.503 7.503 0 0 0-1.017 1.732 12.056 12.056 0 0 1-.997-2.014 9.704 9.704 0 0 1 1.63-2.195z"/>
        <path class="st1" d="M87.6 26.54a8.52 8.52 0 0 0-.162-.533 11.362 11.362 0 0 0-.503-1.3c-.02-.03-.03-.06-.05-.09v-.01c-.04-.05-.08-.09-.12-.13-.06-.07-.122-.132-.182-.192a14.963 14.963 0 0 0-2.568-2.105 9.676 9.676 0 0 0-.836-.493 119.84 119.84 0 0 1-4.97.826L77 42a12.252 12.252 0 0 0 7.835-3.96c.105-.11.195-.21.276-.32.1-.112.19-.223.282-.343.2-.242.38-.493.562-.765.1-.15.19-.302.29-.453v-.01l.304-.52v-.01a12.174 12.174 0 0 0 1.48-5.84c0-1.13-.15-2.22-.433-3.248zm-6.255 42.81c-.02-.303-.06-.605-.1-.907a13.504 13.504 0 0 0-.384-1.672 14.84 14.84 0 0 0-3.66-3.36 14.464 14.464 0 0 0-1.5-.83 642.3 642.3 0 0 1-.45 6.184l-.482 6.656c1.72.09 3.384.383 4.783 1.39a11.39 11.39 0 0 0 .987-1.954c.09-.232.18-.463.24-.695.17-.502.312-1.025.403-1.55a.03.03 0 0 0 0-.04l.19-1.56v-.03c.01-.21.02-.423.02-.634 0-.32-.01-.654-.04-.966v-.02zm-.03-48.52a15.526 15.526 0 0 0-3.635-.915c-.866-.1-1.742-.12-2.618-.05-.03.413-.1 1.067-.262 1.903.352-.04.715-.09 1.067-.13 1.823-.233 3.635-.495 5.448-.807zM65.143 35.936a12.29 12.29 0 0 0 10.523 6.123c.463-6.45.926-12.89 1.43-19.34l-2.568.29c-.886 3.522-3.223 8.91-9.385 12.92zm9.173 45.517h.01a12.11 12.11 0 0 0 4.12-3.152c-1.17-.74-2.468-1.01-3.818-1.08l-.312 4.24zM63.4 62.27c-.02.01-.04.02-.06.02a.95.95 0 0 1-.21.09.29.29 0 0 1-.082.04c-.04.132-.09.263-.13.404-.525 1.682-.917 4.048-.222 6.495.05.19.11.39.19.59.05.16.112.33.192.49a9.427 9.427 0 0 0 1.682 2.67c2.236 2.524 5.54 2.262 8.75 2.302l.404-6.747.393-6.656a16.227 16.227 0 0 0-3.444-.836c-2.468-.28-5.026.09-7.463 1.13zm9.245-40.24c.282-.806.463-1.46.574-1.923a15.16 15.16 0 0 0-3.01.937 13.46 13.46 0 0 0-2.6 1.48c.826-.07 1.65-.14 2.467-.222.856-.08 1.712-.182 2.56-.272zm-8.62 11.338c.04.15.09.302.15.443.01.04.02.09.04.13 4.38-3.403 6.738-7.632 7.966-10.653l-1.33.15-1.63.18-1.64.11h-.03s-.383.03-.977.07l-.352.03h-.02l-.18.01-.01.01a15.234 15.234 0 0 0-1.59 1.816 1.9 1.9 0 0 0-.18.24c-.06.06-.11.13-.16.2-.01.01-.02.02-.02.04a12.09 12.09 0 0 0-.556 3.648c0 1.08.14 2.126.393 3.113.05.16.09.32.14.472z"/>
        <path class="st1" d="M63.753 75.25a10.042 10.042 0 0 1-.826-.947 2.38 2.38 0 0 1-.19-.252c-.07-.09-.142-.18-.202-.28a9.36 9.36 0 0 1-.413-.65c-.06-.11-.13-.24-.19-.36s-.112-.23-.162-.35c-1.782-3.86-.443-7.896.2-9.406a15.59 15.59 0 0 0-1.993 1.36c-1.047.865-1.964 1.9-2.78 3.04a12.288 12.288 0 0 0-.35 2.94A12.26 12.26 0 0 0 61.55 80c.07.06.13.11.2.16l.21.15c.11.08.22.16.34.243.05.04.11.08.18.12.06.04.12.08.19.12a12.206 12.206 0 0 0 6.443 1.826c1.4 0 2.74-.235 3.997-.678l.02-.273.06-.987.21-3.497c-3.4.032-6.986.747-9.654-1.932zM51.67 58.795c.01.222.02.453.02.675.774-.12 1.53-.302 2.255-.564a7.87 7.87 0 0 1-2.336-1.782l.06 1.67zm10.462-11.46c0-2.68-.856-5.155-2.316-7.17a16.145 16.145 0 0 0-1.702-1.29c-1.762-1.136-3.998-1.972-6.334-2.264-.252-.03-.503-.05-.745-.07.534.48 2.256 2.63.363 9.78-.06.22-.11.45-.16.67v.02l.21 5.82c.775 2.4 2.417 4.24 4.552 5.14a12.255 12.255 0 0 0 6.132-10.624zm-12.266-3.07l.06-.15a931.32 931.32 0 0 0-.14-5.29l-.06-2.295c-1.814.05-3.646.453-5.41 1.208-1.218.514-2.355 1.25-3.423 2.084-.363.302-.715.624-1.047.967a1.1 1.1 0 0 0-.15.16c-.06.05-.102.1-.152.15v.01c-.19.2-.373.41-.544.62a.7.7 0 0 0-.14.16s-.01.01-.01.02v.01c-.05.09-.092.18-.142.28a12.267 12.267 0 0 0-1.118 5.125c0 2.63.826 5.055 2.236 7.05.06.09.12.18.19.27.082.112.172.233.263.343.19.242.39.473.61.695.07.09.16.18.24.26.06.06.12.12.18.17a12.21 12.21 0 0 0 8.55 3.476c.14 0 .28 0 .42-.01-.04-1.53-.07-3.07-.1-4.603-1.74-3.594-1.35-8.246-.32-10.724zm-7.38 29.072c-.14.09-.283.18-.424.282-.07.05-.14.1-.22.16-.07.04-.142.09-.212.15-2.004 1.5-4.12 3.9-5.317 7.69a12.32 12.32 0 0 0 5.518-5.6c.06-.13.13-.27.19-.41.07-.15.14-.31.2-.488a8.34 8.34 0 0 0 .344-1.008c.07-.233.13-.474.18-.706-.01-.07-.01-.15-.02-.23-.07.05-.15.1-.23.15z"/>
        <path class="st1" d="M42.304 66.46a5.923 5.923 0 0 0-.262-.635.09.09 0 0 0-.03-.07c-.07-.08-.16-.16-.242-.242a11.23 11.23 0 0 0-.524-.473c-.09-.08-.18-.16-.272-.222-.06-.07-.13-.12-.2-.17a14.368 14.368 0 0 0-1.23-.897c-1.762-1.13-3.998-1.97-6.334-2.26a14.452 14.452 0 0 0-5.73.518l1.63 13.22.02.153.656 5.327.01.12.02.19.03.272.21 1.63c.243.02.484.03.726.03 1.32 0 2.598-.21 3.786-.604 1.38-5.33 4.38-8.38 6.908-10.07.06-.04.13-.09.2-.13.082-.05.152-.103.233-.153.14-.09.28-.17.42-.262.08-.04.16-.08.24-.13.07-.04.14-.07.2-.11.09-.04.17-.09.25-.13a12.142 12.142 0 0 0-.727-4.885v-.01zm-14.3 10.19c-.534-4.32-1.088-8.63-1.63-12.95-.06-.423-.122-.846-.162-1.27-.16.05-.312.122-.463.182-.63.262-1.23.584-1.82.957-.11.95-.537 3.54-2.158 6.33-.05.09-.11.19-.17.29s-.12.2-.19.3c-.113.17-.224.35-.344.522-.06.08-.12.16-.18.252-.06.08-.11.16-.18.24a15.99 15.99 0 0 1-1.854 2.075 12.106 12.106 0 0 0 3.152 5.667c.07.08.15.15.22.21.08.08.15.16.232.22a9.65 9.65 0 0 0 .696.593c.06.06.13.11.2.16a12.206 12.206 0 0 0 5.377 2.33h.02a1127.03 1127.03 0 0 0-.702-5.75c-.02-.12-.03-.25-.05-.37zm-3.132-36.102l.16 1.27a12.227 12.227 0 0 0 10.262-7.01c-3.04-.997-7-4.3-11.7-4.542l.16 1.22 1.118 9.062zm-1.52-12.205c5.8-.08 9.677 3.655 12.598 4.763a12.07 12.07 0 0 0 .524-3.535 12.1 12.1 0 0 0-1.38-5.64c-4.18-.26-8.328-.633-12.467-1.23l.725 5.65zm-.022 9.97l-.875-7.573-.05-.463c-1.25.08-2.548.403-3.897 1.047-1.027.493-1.873 1.057-2.568 1.672-.07.06-.14.12-.21.19-.06.06-.132.122-.192.192a5.07 5.07 0 0 0-.393.413 1.42 1.42 0 0 0-.19.24c-.082.08-.142.16-.192.24A7.503 7.503 0 0 0 13.746 36c.463.744.997 1.44 1.6 2.063.092.102.182.192.283.283.09.09.17.18.26.262.18.16.36.322.55.473.09.08.18.15.28.23.09.08.19.15.29.22a12.18 12.18 0 0 0 6.726 2.317l-.415-3.524zm-2.798 30.724c.06-.09.12-.19.17-.282.132-.2.243-.403.343-.604.07-.12.14-.24.19-.36.06-.12.122-.24.172-.35.715-1.54.916-2.74.916-2.74a11.68 11.68 0 0 0-1.168 1.1c-.08.07-.14.14-.2.21-.082.07-.142.15-.212.23a7.78 7.78 0 0 0-.373.44c-.07.07-.13.15-.19.232-.07.08-.132.17-.192.25-.15.19-.302.384-.443.585a13.394 13.394 0 0 0-.977 1.68c-.04.416-.06.84-.06 1.26 0 .254.01.495.03.747.725-.654 1.33-1.38 1.813-2.094a6.26 6.26 0 0 1 .19-.292zm4.773-47.35c2.84.383 5.7.675 8.56.906a14.198 14.198 0 0 0-1.48-1.098c-1.762-1.138-3.998-1.974-6.334-2.266-2.46-.29-5.02.09-7.46 1.12a7.55 7.55 0 0 0-.42.19c.428.08.85.17 1.27.24a116.6 116.6 0 0 0 5.87.897zm-10.725 9.91c.06-.06.122-.12.192-.18a5.5 5.5 0 0 1 .403-.344c.06-.05.12-.1.19-.15.06-.05.132-.102.202-.162a10.69 10.69 0 0 1 2.437-1.31c1.49-.583 2.88-.905 4.18-1.036l-.162-1.45c-.13-1.27-.312-2.52-.403-3.786v-.02l-.05-.393-.02-.2c0-.06.01-.05.01-.082-1.29-.22-2.58-.372-3.87-.643l-1.32-.26a16.61 16.61 0 0 0-1.21.874c-.29.24-.588.503-.85.774-.07.06-.13.11-.17.17-.07.05-.12.11-.16.16-.14.13-.264.272-.395.413-.06.07-.12.14-.17.21-.07.06-.12.13-.18.2-.11.13-.234.28-.344.425-.01.01-.01.01-.01.02a12.253 12.253 0 0 0-.956 4.755c0 1.55.292 3.04.816 4.41a9.734 9.734 0 0 1 1.63-2.195c.06-.07.13-.13.2-.192z"/>
        <path class="st2" d="M90.862 33.66c-.745 1.48-2.518 4.783-5.025 8.127-.09.13-.19.262-.292.393-.09.13-.18.252-.292.373-.18.252-.383.493-.584.735a5.61 5.61 0 0 1-.29.342c-.08.11-.17.222-.28.322-1.23 1.46-2.61 2.84-4.08 3.998a14.78 14.78 0 0 0 3.795-1.702c.07-.03.14-.07.21-.12.01-.01.03-.02.04-.03.1-.06.19-.132.282-.192.19-.14.382-.272.553-.413.1-.07.19-.15.28-.222.09-.08.18-.16.274-.23a15.328 15.328 0 0 0 2.65-2.99c.987-1.42 1.54-2.85 1.893-4.04.18-.6.31-1.14.372-1.61.08-.47.32-.87.33-1.23 0-.24.04-.45.1-.61l.01-.01c.07-.23.16-.37.21-.41v-.01c-.03-.05-.11-.2-.17-.46zm-6.898 40.674c0-.342-.16-.755-.252-1.23-.06-.482-.242-1.026-.423-1.63a14.79 14.79 0 0 0-.84-2.145c-.05-.12-.11-.24-.16-.35-.06-.11-.12-.21-.18-.32a7.704 7.704 0 0 0-.39-.667c-.05-.1-.12-.19-.18-.293-.06-.09-.13-.17-.19-.26 0-.01-.01-.01-.01-.02a10.2 10.2 0 0 0-.483-.655c.16.546.292 1.11.383 1.674.04.302.08.604.1.906v.02c.03.31.04.643.04.966 0 .21-.01.423-.02.634V71c-.03.524-.09 1.047-.19 1.56.01.01.01.03 0 .04-.09.525-.23 1.048-.402 1.552a5.98 5.98 0 0 1-.24.695c-.27.685-.592 1.34-.985 1.954.242.18.473.37.705.58.05.05.1.1.14.15.06.06.12.12.17.18.142.15.273.31.394.478.06.07.11.14.16.223.05.07.102.14.152.22.463.696.866 1.54 1.198 2.58.312-.696.544-1.36.725-1.965s.31-1.15.37-1.61c.08-.473.322-.876.332-1.23 0-.24.04-.452.1-.613l.01-.01c.07-.23.16-.372.21-.412v-.01c-.04-.06-.16-.32-.22-.764-.01-.07-.02-.163-.03-.253zm-3.152 6.486c-.05-.082-.09-.162-.15-.243a7.418 7.418 0 0 0-.374-.544c-.05-.08-.11-.15-.16-.222a6.358 6.358 0 0 0-1.682-1.51 12.077 12.077 0 0 1-4.12 3.16h-.01l-.17 2.358-.02.24h.01l-.01.183-.01.17h-.02l-.03.384-.01.22h.01v.01l-.01.22h.01c-.01.04-.01.08-.02.12l.01-.12h-.02l-.04.506a2.3 2.3 0 0 0-.04.26c-.01.05-.01.1-.02.15.01 0 .02 0 .03-.01l.01-.14h.02l-.01.14-.01.152h-.02l-.04.44h.03l-.02.244-.01.1-.01.142h-.02l-.142 1.78c.01 0 .02-.01.03-.01s.01-.01.02-.01a14.555 14.555 0 0 0 3.424-1.63 11.67 11.67 0 0 0 1.047-.776c.13-.1.252-.2.373-.31.1-.08.2-.17.302-.26s.2-.18.292-.283c.04-.03.07-.06.1-.1h.01l.112-.11c.02-.02.03-.03.04-.03v-.01l.17-.17c.172-.185.333-.367.494-.548.06-.08.13-.15.19-.22a2.5 2.5 0 0 1 .192-.233c.272-.34.524-.685.755-1.027.14-.2.272-.412.403-.613a13.452 13.452 0 0 0-.745-1.61c-.05-.08-.09-.152-.14-.232zm-6.737 4.188l.02-.02v.02h-.02zm10.362-43.684l.272-.332c.1-.12.19-.242.28-.352a30.167 30.167 0 0 0 .86-1.128c.1-.14.2-.272.29-.403v-.01c2.91-4.07 3.755-7.22 3.997-8.72-.01-.04-.03-.09-.04-.14-.363-1.19-.947-2.63-1.944-4.05a8.23 8.23 0 0 0-.463-.614 1.33 1.33 0 0 0-.19-.24 1.5 1.5 0 0 0-.19-.25c-.12-.14-.25-.28-.383-.425v.04a11.362 11.362 0 0 1 .5 1.3c.06.17.112.35.162.534a12.33 12.33 0 0 1 .43 3.243c0 2.115-.536 4.1-1.48 5.84v.01l-.304.515v.01c-.1.15-.19.3-.29.45a8.41 8.41 0 0 1-.565.766c-.09.12-.18.232-.28.342-.08.11-.17.21-.272.32a12.262 12.262 0 0 1-7.83 3.96l-.414 6.534c.08 0 .16 0 .24-.01 3.263-2.538 5.73-4.975 7.603-7.2zm-20.26-7.512l-.01.15c.02-.01.04-.02.05-.03-.02-.04-.03-.08-.04-.12zm-.384 2.95c-.2.12-.413.232-.634.342-.06.04-.14.07-.2.11-.06.03-.13.06-.19.092-.294.16-.606.302-.918.453.04.2.09.41.15.61.19.61.414 1.21.676 1.79.05.12.11.23.16.35.02.05.05.09.07.14.03.07.07.13.102.2.19.382.39.754.622 1.107.04.08.09.16.14.242.01.01.01.02.02.03.04.06.082.12.122.17a14.12 14.12 0 0 0 1.39 1.69c.412.443.845.866 1.31 1.25 1.076.865 2.254 1.59 3.492 2.094 1.24.493 2.526.886 3.774.997.413.08.866.1 1.31.11.16-2.163.31-4.33.462-6.493a12.285 12.285 0 0 1-10.52-6.12c-.332.22-.685.442-1.047.643-.05.04-.11.07-.16.1l-.143.083zM62.675 80.79c-.07-.04-.13-.082-.19-.122a1.42 1.42 0 0 1-.182-.12c-.12-.082-.232-.162-.342-.243l-.21-.15c-.07-.05-.13-.102-.2-.162a12.26 12.26 0 0 1-4.7-9.657c0-1.017.12-1.994.35-2.94a15.435 15.435 0 0 0-1.85 3.766c-.43 1.37-.63 2.71-.702 4.23.01 1.37.17 2.84.556 4.208.25.785.544 1.55.906 2.286.04.08.08.16.12.232.02.05.04.1.082.15.04.112.1.212.15.313a2.8 2.8 0 0 0 .19.33c.04.08.09.16.14.23.04.08.09.16.14.24l.06.09a14 14 0 0 0 1.51 1.868c.415.444.848.867 1.31 1.25a14.69 14.69 0 0 0 1.54 1.088c.09.06.18.12.28.18.1.05.2.114.3.174.257.14.51.26.76.382.13.06.25.12.383.17.08.04.15.07.23.1.07.03.15.06.226.09 1.17.454 2.378.807 3.556.907.604.12 1.29.1 1.933.13.585-.01 1.23-.05 1.824-.11.615-.08 1.22-.2 1.793-.354h.01l.13-1.984.01-.06v-.14h.01v-.05l.02-.17.01-.243.01-.223v-.07l.01-.09v-.03l.01-.07v-.05h.02l.02-.605.02-.345.01-.252.01-.12v-.05l.01-.05v-.113l.01-.11.01-.12v-.04l.01-.12v-.08l.01-.1v-.04l.01-.13h.02l.07-1.27.04-.676a11.99 11.99 0 0 1-4 .677 12.255 12.255 0 0 1-6.443-1.825zm-.966 1.57l-.02.01v-.01h.02zm11.02 4.793v-.04l.03.04h-.03zM62.853 34.92l.2-.142c.06-.04.132-.09.192-.14a10 10 0 0 0 .6-.434c.05-.04.11-.08.15-.12.01-.243.01-.484.02-.716-.05-.15-.09-.312-.14-.473a12.592 12.592 0 0 1-.395-3.112c0-1.27.19-2.497.554-3.645-.02.01-.02.02-.03.03a9.56 9.56 0 0 0-.474.765c-.09.13-.17.262-.23.403v.01c-.09.14-.17.282-.232.423a15.02 15.02 0 0 0-.916 2.16c-.43 1.37-.634 2.71-.705 4.23 0 .51.03 1.04.08 1.58.454-.27.897-.548 1.32-.83zm-.665 23.09c.05-.01.1-.03.14-.05.06-.02.122-.04.172-.06.1-.04.21-.08.312-.12.1-.182.2-.364.292-.545.08-.14.14-.282.21-.423.07-.16.14-.322.2-.473.253-.58.434-1.13.585-1.64.18-.605.313-1.15.374-1.61.08-.475.322-.878.332-1.23 0-.24.04-.454.1-.615l.01-.01c.07-.23.16-.373.21-.413v-.01c-.04-.06-.16-.32-.22-.765a8.22 8.22 0 0 1-.03-.253c0-.34-.166-.753-.257-1.23-.06-.48-.24-1.024-.423-1.63-.1-.34-.23-.703-.372-1.086-.04-.11-.09-.22-.14-.34v-.01c-.05-.12-.1-.23-.16-.35a11.23 11.23 0 0 0-.626-1.23c-.05-.1-.1-.19-.16-.28a13.5 13.5 0 0 0-.484-.747 14.513 14.513 0 0 0-2.45-2.73 12.17 12.17 0 0 1 2.316 7.17 12.25 12.25 0 0 1-6.134 10.624c1.78.754 3.92.844 6.192.05zm-.725 1.752c-3.222.483-5.68.09-7.522-.856-.725.262-1.48.443-2.256.564.07 1.893.12 3.786.17 5.67 2.372-.343 4.52-1.18 6.27-2.317 1.35-.896 2.446-1.973 3.332-3.06zM46.31 74.676c0-.342-.16-.755-.25-1.23-.06-.482-.243-1.026-.424-1.63a14.29 14.29 0 0 0-2.71 1.24c-.04.03-.08.06-.13.08-.01.09-.03.19-.06.282a9.12 9.12 0 0 1-.18.705 8.707 8.707 0 0 1-.343 1.007c-.06.17-.13.332-.2.483-.06.14-.122.282-.182.413a12.325 12.325 0 0 1-5.51 5.6c-.1.29-.19.603-.27.915l-.06.26c-.03.09-.05.17-.06.26-.04.16-.08.32-.11.496-.02.07-.03.13-.04.2-.02.07-.03.13-.04.2-.312 1.65-.453 3.527-.383 5.63a15.15 15.15 0 0 0 4.22-1.882c1.72-1.137 3.02-2.557 3.987-3.946.03-.04.06-.09.09-.13 0-.01.01-.01.02-.02.03-.06.07-.11.1-.17.09-.123.17-.244.24-.365.03-.05.07-.1.09-.16a4.78 4.78 0 0 0 .236-.384c.04-.08.09-.17.13-.26a.98.98 0 0 0 .12-.234 15.08 15.08 0 0 0 .96-2.445c.18-.606.31-1.15.372-1.613.08-.472.32-.875.33-1.23 0-.24.04-.45.1-.612l.01-.01c.07-.23.16-.372.21-.412v-.01c-.04-.06-.16-.32-.22-.764a3.68 3.68 0 0 1-.033-.25zm-3.664 7.412l-.01.01v-.01h.01zm.393 1.258l.13.05h-.06a.264.264 0 0 1-.07-.05zm2.11-12.88a13.28 13.28 0 0 0-1.46-2.7 14.95 14.95 0 0 0-1.43-1.75l.04.443v.01a12.142 12.142 0 0 1 .72 4.88 13.39 13.39 0 0 1 2.125-.89zM49.86 59.6a12.21 12.21 0 0 1-8.55-3.473c-.06-.05-.12-.11-.18-.17-.08-.082-.17-.172-.242-.263a7.866 7.866 0 0 1-.61-.694 8.44 8.44 0 0 1-.453-.615 12.155 12.155 0 0 1-2.236-7.05c0-1.832.41-3.564 1.12-5.125l-.01-.12c-.2.25-.39.513-.58.774a15.435 15.435 0 0 0-1.85 3.766c-.432 1.37-.633 2.71-.704 4.23.01 1.37.17 2.84.554 4.208.252.785.544 1.55.906 2.286.26.544.554 1.078.886 1.58.453.666.957 1.29 1.51 1.864.35.373.715.735 1.098 1.067.06.06.132.11.202.17v.01h.01c.08.07.16.132.25.202.17.13.342.262.524.393l.275.18c.07.05.14.092.21.132.716.473 1.46.876 2.237 1.188 1.24.493 2.53.886 3.777.997.604.12 1.29.1 1.933.13.17 0 .34-.01.513-.01a536.2 536.2 0 0 1-.15-5.668c-.144.01-.285.01-.426.01zM35.95 33.107c.704.272 1.348.393 1.963.262l.15-.03c.05-.02.102-.03.142-.05.18-.06.362-.16.534-.27.06-.04.12-.08.17-.13.06-.04.12-.09.18-.14.03-.02.06-.05.09-.08a8.22 8.22 0 0 1-.03-.256c0-.26-.09-.554-.17-.886-.01-.01-.01-.02-.01-.04-.03-.1-.05-.2-.07-.3-.04-.334-.14-.687-.26-1.07-.05-.18-.11-.372-.17-.563-.04-.12-.07-.24-.12-.364a13.43 13.43 0 0 0-.667-1.683c-.06-.13-.12-.263-.19-.394a6.34 6.34 0 0 0-.193-.363 12.115 12.115 0 0 0-.774-1.25 12.755 12.755 0 0 0-1.27-1.57c-.06-.01-.11-.01-.17-.02a12.142 12.142 0 0 1 1.38 5.65 12.106 12.106 0 0 1-.527 3.536zm-5.892 49.806a.03.03 0 0 1-.04 0c.01.12.03.252.04.383v.01l.01.09.02.102.02.03h-.03l.03.242.06.534c0 .03.01.07.02.11v.06c0 .05.01.102.01.152.07.655.15 1.33.222 1.984v.03c.01.04.01.07.01.11.13.998.262 1.985.383 2.982l.04.352v.04h.01c.17.01.332.01.493.02.584-.01 1.23-.05 1.823-.11.21-.03.42-.06.63-.112-.07-2.165.07-4.09.37-5.81.01-.07.02-.13.04-.19 0-.07.02-.132.04-.202.02-.17.05-.342.1-.504.01-.08.03-.17.05-.252.02-.09.04-.17.06-.262l.09-.363a12.062 12.062 0 0 1-3.787.6 8.8 8.8 0 0 1-.724-.03zm-.523 6.707l-.01-.11-.06-.545-.07-.604-.423-3.47-.03-.21h.04l-.02-.21-.07-.58-.02-.15v-.06l-.01-.09c-.02-.152-.03-.313-.05-.464-.02-.11-.03-.232-.05-.342h-.02a12.2 12.2 0 0 1-5.377-2.325c-.07-.05-.14-.1-.2-.16-.07-.05-.142-.11-.212-.17a9.133 9.133 0 0 1-.483-.424c-.08-.06-.15-.14-.232-.22a2.4 2.4 0 0 1-.222-.212 12.11 12.11 0 0 1-3.152-5.668 17.156 17.156 0 0 1-1.833 1.48c-.02.22-.03.442-.04.664.01 1.37.18 2.84.56 4.21.25.784.548 1.55.91 2.285.263.544.555 1.078.887 1.58.423.625.886 1.21 1.41 1.743.03.04.06.08.1.12l.01.01.12.12c.17.18.34.365.525.536.04.04.08.07.12.11a.7.7 0 0 0 .13.11c.13.133.26.254.404.365 1.076.865 2.254 1.59 3.492 2.094 1.24.496 2.528.89 3.776 1 .05.01.1.02.15.02 0 0 .01.01.02.01l-.04-.272-.022-.155zm-5.53-4.894v.01l-.01-.01h.01zm14.29-47.128c.03-.09.05-.18.08-.272.01-.04.03-.09.04-.13.04-.142.083-.283.113-.414.1-.393.18-.745.222-1.067.04-.232.12-.453.19-.655.06-.18.122-.342.132-.504.01-.02.01-.05.01-.07 0-.242.04-.453.1-.614l-.15.18a.99.99 0 0 1-.17.182c-.172.18-.343.322-.525.433-.05.04-.09.06-.14.09s-.102.06-.152.082c-.816.38-1.732.31-2.75-.03a12.232 12.232 0 0 1-10.26 7l.735 5.98c.09 0 .17-.01.252-.02 2.417-.332 4.602-1.18 6.384-2.336 1.772-1.178 3.102-2.648 4.078-4.078.915-1.31 1.46-2.64 1.812-3.77zM17.693 71.504c-.08.262-.16.524-.22.785a9.972 9.972 0 0 0 1.066-.87 9.277 9.277 0 0 1-.03-.75c0-.424.02-.847.06-1.26a14.5 14.5 0 0 0-.88 2.085zm-.09-25.154c.1.06.2.11.302.15.09.05.17.09.262.12.11.05.21.102.322.142 1.24.493 2.52.886 3.77.997.602.12 1.29.1 1.93.13.08 0 .17 0 .253-.01l-.708-6.05a12.19 12.19 0 0 1-6.728-2.317c-.1-.07-.2-.14-.293-.22-.1-.07-.19-.14-.28-.224a12.55 12.55 0 0 1-.554-.473c-.09-.08-.17-.17-.262-.26-.1-.09-.19-.18-.28-.28a12.29 12.29 0 0 1-1.6-2.066c-1.39 3.254-.34 6.627-.06 7.423a14 14 0 0 0 1.31 1.246 14.69 14.69 0 0 0 1.54 1.087c.083.06.173.11.264.16a6.874 6.874 0 0 0 .806.434zm-5.217-20.866a15.435 15.435 0 0 0-1.853 3.766c-.433 1.37-.634 2.71-.705 4.23.01 1.37.17 2.84.554 4.208.254.785.546 1.55.908 2.286.02-1.44.262-3.786 1.46-5.992a12.337 12.337 0 0 1-.816-4.41c0-1.683.343-3.294.958-4.754-.17.212-.342.444-.503.666z"/>
    </g>
    <path class="st3" d="M84.537 72.964c0-.012-.004-.025-.006-.037a4.366 4.366 0 0 0-.01-.226l-.02.01c-.06-.46-.16-.95-.3-1.49a15.583 15.583 0 0 0-1.5-3.785c-.06-.1-.11-.19-.17-.292s-.12-.19-.19-.29c0-.02-.02-.04-.03-.06-.12-.18-.24-.374-.372-.555-.06-.09-.12-.19-.19-.28l-.18-.243a14.637 14.637 0 0 0-2.61-2.71l-.02-.02a11.174 11.174 0 0 0-.957-.734 16.207 16.207 0 0 0-2.165-1.23c-.03.528-.07 1.04-.11 1.565a14.36 14.36 0 0 1 1.5.835 14.872 14.872 0 0 1 3.666 3.36c.17.21.33.434.483.656 0 .01.01.01.01.02.06.09.12.17.18.263.06.1.13.19.18.29a8 8 0 0 1 .395.665c.06.11.12.21.18.32.05.11.113.23.163.34.374.765.635 1.49.837 2.145.18.605.36 1.15.422 1.63l.037.163c.065.717.15 2.29-.105 4.03a2.684 2.684 0 0 0-.08.33c-.06.464-.19 1.008-.372 1.612s-.412 1.27-.724 1.96a12.7 12.7 0 0 1-.765 1.46c-.13.2-.26.415-.402.616a16.52 16.52 0 0 1-.755 1.03c-.07.07-.13.15-.19.23-.06.07-.13.14-.19.22-.16.18-.323.364-.494.545l-.17.17v.01c0 .01 0 .02-.01.04l.04.01-.04.02-.123.07-.03.02v-.02c-.03.04-.06.07-.1.103-.09.1-.19.19-.292.282s-.202.18-.303.26c-.12.11-.242.21-.373.31a11.62 11.62 0 0 1-1.047.772 14.476 14.476 0 0 1-3.423 1.63l-.07.736v.07l-.05.64a15.188 15.188 0 0 0 4.26-1.983 16.36 16.36 0 0 0 1.962-1.584c.06-.06.13-.12.19-.19.06-.05.12-.11.18-.18.09-.08.18-.18.27-.27v-.01c.04-.04.083-.08.113-.12.04-.04.08-.082.11-.122a14.506 14.506 0 0 0 1.542-2.014c1.026-1.58 1.55-3.142 1.892-4.43.17-.656.24-1.24.29-1.773.015-.11.01-.204.013-.31l.016-.014s.213-1.47.03-4.245c0-.07 0-.144-.013-.22zm-5.78 13.514l.12.01c-.02 0-.04.01-.06.01-.02-.01-.04-.01-.06-.02zM67.61 22.523h.01a13.356 13.356 0 0 1 2.598-1.48 15.227 15.227 0 0 1 3-.937c.615-.12 1.23-.2 1.844-.242.876-.07 1.752-.05 2.618.05 1.26.16 2.497.473 3.635.916.775-.14 1.56-.282 2.336-.443.03 0 .06-.01.1-.02-.13-.08-.25-.15-.382-.21a15.51 15.51 0 0 0-5.58-1.753c-2.577-.292-5.53.06-8.176 1.27a14.11 14.11 0 0 0-2.56 1.48c-.402.28-.784.573-1.17.885-.25.22-.5.44-.732.68.21-.02.413-.04.624-.05l1.845-.15zm1.4 67.277c-.645-.03-1.33-.01-1.934-.13-1.178-.1-2.387-.453-3.555-.906-.07-.03-.15-.06-.22-.09a1.895 1.895 0 0 1-.23-.102c-.13-.05-.25-.11-.38-.17-.25-.122-.5-.243-.752-.384-.1-.06-.2-.12-.302-.17-.1-.06-.19-.122-.28-.182a14.646 14.646 0 0 1-1.54-1.088 14.017 14.017 0 0 1-1.31-1.25 14.145 14.145 0 0 1-1.51-1.862l-.06-.09c-.05-.082-.1-.162-.14-.243a1.67 1.67 0 0 1-.143-.232c-.07-.1-.13-.21-.19-.32-.05-.1-.112-.2-.152-.31-.04-.05-.06-.1-.08-.15-.04-.07-.08-.15-.12-.23a16.56 16.56 0 0 1-.905-2.283c-.382-1.37-.543-2.84-.553-4.21.07-1.52.27-2.86.704-4.23a15.4 15.4 0 0 1 1.853-3.764c.815-1.14 1.73-2.175 2.78-3.04a15.42 15.42 0 0 1 1.99-1.36c.02-.01.05-.03.07-.04.06-.03.11-.07.17-.09.05-.04.11-.07.16-.103.18-.1.373-.19.554-.283l.12-.06c.03-.09.06-.17.09-.25 0 .07-.01.14-.01.21a.95.95 0 0 0 .21-.09c.02 0 .04-.01.06-.02 2.44-1.037 5-1.41 7.468-1.13 1.19.15 2.358.445 3.446.838l.09-1.55a15.38 15.38 0 0 0-3.433-.797 15.875 15.875 0 0 0-7.07.826c-.17.06-.34.12-.502.18l-.21.09c-.07.03-.13.05-.19.08-.07.03-.13.06-.2.094a5.41 5.41 0 0 0-.363.17c-.06.02-.11.05-.17.08s-.11.05-.16.08c-.15.08-.293.15-.434.243.16-.17.31-.353.442-.525.06-.07.12-.13.16-.19.06-.07.12-.144.17-.214.21-.282.413-.554.594-.836v-.02c.01-.01.02-.02.03-.02.05-.03.11-.06.16-.09.07-.04.14-.08.21-.11l.01-.404c.886-1.45 1.36-2.88 1.672-4.07.05-.205.08-.39.12-.58.566-2.217.42-4.537.22-5.97v-.017c-.01-.08-.026-.168-.04-.25l-.02-.15a9.86 9.86 0 0 0-.112-.63 9.92 9.92 0 0 0-.08-.363l-.01-.01c-.03-.116-.05-.226-.08-.35a14.948 14.948 0 0 0-.86-2.475 16.25 16.25 0 0 0 1.793 1.823c1.147.913 2.345 1.76 3.654 2.353 1.32.577 2.637 1.05 4.047 1.24.484.1.927.14 1.37.17.03-.41.06-.823.08-1.24-.44-.01-.894-.03-1.307-.11-1.25-.11-2.538-.5-3.776-.994-1.24-.503-2.416-1.23-3.493-2.095a14.017 14.017 0 0 1-1.31-1.25 14.216 14.216 0 0 1-1.39-1.69 2.53 2.53 0 0 1-.12-.17c-.01-.01-.01-.02-.02-.03-.05-.08-.1-.16-.14-.24a10.59 10.59 0 0 1-.626-1.11c-.03-.07-.07-.13-.1-.2-.02-.05-.05-.092-.07-.142-.05-.12-.11-.234-.16-.354a16.08 16.08 0 0 1-.676-1.792c-.06-.2-.11-.41-.15-.612a15.048 15.048 0 0 1-.323-2.014 17.09 17.09 0 0 1-.08-1.58c.07-1.522.27-2.86.704-4.23.25-.745.553-1.47.915-2.165.06-.14.14-.28.23-.42v-.01c.06-.14.146-.273.237-.404a8.62 8.62 0 0 1 .47-.765c.01-.01.01-.02.03-.03 0-.02.01-.03.02-.04.05-.07.1-.14.16-.2.05-.08.114-.16.184-.24A15.234 15.234 0 0 1 66 23.84l.01-.01-.13.01c-.18.02-.374.03-.565.04l-.322.03-.534.04-.16.01v-.01h-.02c-.06.01-.12.01-.16.01-.05 0-.09.01-.14.01a12.16 12.16 0 0 0-.584.745c-.08.1-.16.21-.23.32-.09.12-.18.252-.27.383-.818 1.29-1.43 2.7-1.875 4.17-.42 1.46-.592 3.07-.602 4.51.06 1.59.28 3.07.744 4.532.2.594.422 1.178.674 1.742a15.154 15.154 0 0 0-2.95-2.67 15.585 15.585 0 0 0-7.01-2.607 12.45 12.45 0 0 0-1.067-.08v.423l.04 1.098h.18c.243.02.494.04.746.07 2.337.294 4.57 1.13 6.335 2.268a15.99 15.99 0 0 1 1.7 1.29 14.513 14.513 0 0 1 2.77 3.21c.06.092.11.172.16.263.06.09.11.18.16.28.245.41.456.824.627 1.23.06.12.11.23.16.35v.01c.05.12.104.23.144.34.14.384.273.746.374 1.09.086.283.17.55.24.806.62 2.924.033 5.345.033 5.345a10.38 10.38 0 0 1-.37 1.61 13.81 13.81 0 0 1-.585 1.633c-.06.15-.13.315-.2.476-.07.143-.13.284-.21.425a12.582 12.582 0 0 1-.615 1.078c-.05.09-.11.17-.17.26-.03.06-.07.11-.114.17-.01.02-.03.04-.04.06-.222.323-.463.635-.705.96-.884 1.086-1.98 2.163-3.33 3.06-1.754 1.14-3.9 1.973-6.276 2.315l.03 1.307a15 15 0 0 0 5.78-1.835 18.305 18.305 0 0 0-1.59 2.034c-.816 1.286-1.43 2.696-1.873 4.166-.423 1.46-.594 3.07-.604 4.51.06 1.593.282 3.073.745 4.534.254.757.546 1.49.898 2.207.02.06.05.12.08.17l.15.305c.06.11.12.22.19.33.03.08.07.15.12.22.04.08.09.16.14.243.01.02.03.05.04.07.1.18.21.352.323.524.86 1.23 1.826 2.366 2.94 3.322.265.212.527.414.8.615.07.05.15.11.233.16.08.06.16.12.243.17.2.15.413.293.614.434.1.06.19.12.29.18.11.07.224.133.334.203.372.21.754.412 1.147.593 1.32.573 2.64 1.046 4.05 1.24.717.153 1.36.163 2.016.213.715.01 1.36-.02 2.024-.08a11.56 11.56 0 0 0 1.57-.264h.01l.05-.935v-.02l.02-.422a14.38 14.38 0 0 1-1.79.352c-.596.06-1.24.1-1.825.11zm-6.023-47.74l-.01.01v-.112c0-.02-.01-.04-.01-.07h.01v.07c.01.07.01.1.01.1zm-.2.12h.01v.01c-.01 0-.01-.01-.01-.01zm-12.86 23.09c-.644-.03-1.33-.01-1.933-.13-1.25-.11-2.538-.503-3.776-.997a12.578 12.578 0 0 1-2.236-1.188 2.42 2.42 0 0 1-.21-.13c-.092-.06-.182-.122-.273-.182a12.59 12.59 0 0 1-.53-.393c-.09-.07-.17-.13-.25-.2h-.01v-.01c-.07-.06-.14-.112-.2-.172a15.764 15.764 0 0 1-1.1-1.067 14.145 14.145 0 0 1-1.51-1.86 13.514 13.514 0 0 1-.89-1.58 16.42 16.42 0 0 1-.906-2.28c-.383-1.37-.544-2.84-.554-4.21.07-1.52.273-2.86.706-4.23a15.4 15.4 0 0 1 1.853-3.764c.19-.262.382-.524.583-.775.05-.06.09-.1.15-.16v-.01c0-.01.01-.02.01-.02.04-.093.08-.173.13-.254 0 .03 0 .06.01.09.17-.21.35-.42.543-.622v-.01c.05-.05.09-.1.15-.15.04-.05.093-.112.153-.162.333-.34.686-.662 1.05-.964 1.065-.836 2.203-1.57 3.422-2.084a14.768 14.768 0 0 1 5.407-1.21l-.04-1.45v-.07c-1.984.06-4.058.485-5.98 1.36-1.33.585-2.57 1.42-3.727 2.367a3.17 3.17 0 0 0-.293.273.55.55 0 0 0-.16.15.565.565 0 0 0-.16.15 5.48 5.48 0 0 0-.54.545c-.06.05-.11.1-.15.15-.05.05-.1.1-.14.15l-.04.04c.02-.03.03-.05.03-.07.05-.1.09-.2.14-.3l.12-.332c.19-.473.342-.937.463-1.37v-.01c.05-.16.09-.312.13-.463 0-.01.01-.02.01-.03.05-.17.085-.343.125-.515.09-.453.13-.866.17-1.26.025-.155.02-.29.022-.43.14-1.46.25-3.623-.09-5.15a15.17 15.17 0 0 0-.224-.965 15.46 15.46 0 0 0-.856-2.486 5.484 5.484 0 0 0-.264-.553 3.56 3.56 0 0 0-.252-.49 9.91 9.91 0 0 0-.523-.894c-.01-.02-.03-.04-.04-.06-.06-.09-.12-.19-.18-.284s-.13-.19-.19-.28l-.15-.21-1.663-.09a12.85 12.85 0 0 1 1.27 1.57c.29.412.553.835.774 1.25.07.12.13.24.19.36.07.134.13.265.19.396.28.583.49 1.157.664 1.68.05.12.08.24.12.363.06.19.122.38.172.562.11.382.21.734.25 1.066l.007.025c.043.5.17 2.5-.13 4.394-.01.034-.02.067-.026.103-.02.152-.048.312-.083.478-.042.2-.083.4-.137.59-.03.13-.07.27-.112.413-.01.04-.03.09-.04.13-.03.092-.05.182-.08.273-.352 1.13-.896 2.456-1.813 3.765-.98 1.43-2.306 2.9-4.08 4.08-1.78 1.158-3.966 2.004-6.382 2.336-.08.01-.16.02-.252.02l.16 1.29c.083-.01.153-.01.234-.02a15.39 15.39 0 0 0 6.956-2.53 15.333 15.333 0 0 0 2.84-2.487 17.88 17.88 0 0 0-.834 2.234c-.424 1.46-.595 3.07-.605 4.51.06 1.593.283 3.073.746 4.533.414 1.24.938 2.437 1.62 3.545.103.18.213.353.324.525a18.56 18.56 0 0 0 1.62 2.032c.16.18.333.362.515.543a15.422 15.422 0 0 0-6.03-2.004 16.047 16.047 0 0 0-6.015.485l.18 1.54a14.452 14.452 0 0 1 5.73-.513c2.337.29 4.573 1.128 6.335 2.266.434.28.847.584 1.23.896.07.05.14.1.2.17.09.06.18.14.273.224.18.15.353.31.525.472.084.08.174.16.245.243l.03.03c.08.08.15.15.223.23a14.95 14.95 0 0 1 1.43 1.75 13.204 13.204 0 0 1 1.46 2.7c.2.47.353.927.484 1.35.09.296.18.58.254.847.08.4.47 2.502.11 4.936a2.6 2.6 0 0 0-.093.37 10.33 10.33 0 0 1-.373 1.61 14.99 14.99 0 0 1-.96 2.45c-.03.08-.07.16-.12.23-.04.09-.092.18-.132.26-.07.13-.15.264-.234.385-.02.06-.06.11-.09.16-.07.123-.15.244-.24.365-.03.06-.07.11-.1.17-.01.01-.02.01-.02.02-.03.04-.06.09-.094.13-.966 1.39-2.265 2.81-3.987 3.948-1.23.806-2.66 1.45-4.22 1.883-.493.14-1.007.26-1.53.34-.21.05-.424.08-.635.11-.596.06-1.24.103-1.825.113-.16-.01-.32-.01-.494-.02.01.06.01.12.02.18.03.262.06.534.1.796 0 .09.02.19.03.28.093.01.193.01.284.02.714.01 1.36-.02 2.023-.084a15.39 15.39 0 0 0 6.96-2.53 15.34 15.34 0 0 0 4.23-4.29c.04-.05.07-.09.1-.14.01-.02.03-.04.04-.06.02-.03.04-.07.06-.103.09-.13.17-.263.24-.394l.12-.21c.04-.07.08-.14.11-.21h.01c.05-.09.1-.18.14-.27l.124-.24c.06-.13.12-.262.17-.383.05-.09.093-.18.123-.27a.95.95 0 0 0 .09-.21c.31-.757.532-1.48.703-2.137.124-.477.187-.9.236-1.31h.002s.02-.16.05-.424v-.054c.13-1.256.402-4.695-.29-6.534-.33-1.29-.877-2.85-1.894-4.43a15.816 15.816 0 0 0-2.238-2.79 11.6 11.6 0 0 0 1.39.745c1.32.573 2.64 1.046 4.05 1.24.715.15 1.36.16 2.014.21.21 0 .412 0 .603-.01-.02-.424-.03-.837-.03-1.26-.17-.006-.344.005-.515.005zM44.58 83.206l-.07-.06h.1l-.03.06zM29.726 91.11l-.01-.06-.04-.342-.08-.665c-.01 0-.02-.01-.02-.01a.792.792 0 0 1-.152-.02c-1.25-.11-2.538-.503-3.776-.997-1.24-.504-2.417-1.23-3.494-2.095a4.553 4.553 0 0 1-.403-.36.664.664 0 0 1-.13-.11c-.04-.04-.08-.07-.12-.11-.18-.17-.35-.35-.52-.53l-.12-.12-.01-.01c-.04-.04-.07-.08-.1-.12a12.415 12.415 0 0 1-1.41-1.74 13.596 13.596 0 0 1-.884-1.58 16.56 16.56 0 0 1-.906-2.29c-.383-1.37-.544-2.84-.554-4.21.01-.22.02-.442.04-.664.07-.977.21-1.883.443-2.78.06-.26.14-.523.22-.784.24-.714.533-1.42.875-2.084a13 13 0 0 1 .974-1.68c.14-.2.29-.394.44-.585.06-.08.12-.17.19-.254.06-.08.12-.16.19-.233.12-.15.24-.29.375-.432.07-.08.13-.16.21-.23.06-.07.123-.14.203-.21a12.41 12.41 0 0 1 1.166-1.1 15.444 15.444 0 0 1 1.61-1.126 11.965 11.965 0 0 1 1.817-.96c.15-.06.304-.13.465-.18-.07-.524-.143-1.037-.203-1.55-.29.11-.583.23-.875.36-1.33.586-2.567 1.42-3.725 2.368a8.14 8.14 0 0 0-.523.482c-.07.05-.14.12-.2.18v.01c-.08.06-.15.13-.21.21-.14.132-.273.263-.384.404-.07.06-.13.13-.2.2-.02.03-.05.06-.083.09 0 0-.01 0-.01.01-.03.06-.06.12-.1.19 0-.02-.01-.04-.01-.06a18.59 18.59 0 0 0-1.26 1.663c-.82 1.29-1.435 2.7-1.875 4.17-.422 1.46-.593 3.07-.603 4.51.06 1.594.28 3.074.744 4.535.413 1.24.937 2.44 1.62 3.547.102.18.212.352.323.524a19.2 19.2 0 0 0 1.25 1.61c.03.04.06.082.1.122.03.04.07.08.1.12.16.183.32.354.502.526.03.04.07.09.11.13l.13.132c.24.24.493.46.745.683 1.148.92 2.346 1.765 3.655 2.36 1.32.57 2.637 1.044 4.047 1.24.15.03.29.06.432.07.01.01.02.01.03.01l-.01-.095-.007-.068zm-12.74-43.976c.09.06.18.11.273.15.17.102.35.192.53.273.09.05.19.1.28.14.01 0 .01.01.02.01.09.04.17.07.26.112 1.23.52 2.455.93 3.764 1.11.715.15 1.36.16 2.014.21h.453l-.14-1.27c-.082.01-.172.01-.253.01-.644-.03-1.33-.01-1.933-.13-1.25-.11-2.536-.504-3.774-.998-.11-.04-.21-.09-.322-.14a1.46 1.46 0 0 1-.26-.12c-.1-.04-.2-.093-.3-.153a6.895 6.895 0 0 1-.807-.43c-.09-.05-.18-.1-.26-.16a14.646 14.646 0 0 1-1.54-1.09 14.017 14.017 0 0 1-1.31-1.25 14.145 14.145 0 0 1-1.51-1.863 13.514 13.514 0 0 1-.886-1.58 16.42 16.42 0 0 1-.906-2.287c-.383-1.37-.544-2.84-.554-4.21.07-1.52.27-2.86.703-4.226a15.4 15.4 0 0 1 1.852-3.767c.16-.22.33-.455.503-.667 0-.01 0-.01.01-.02.11-.14.23-.29.34-.423.06-.07.11-.14.18-.2.05-.07.113-.14.173-.21.13-.14.25-.28.392-.413.04-.05.09-.11.16-.16.04-.06.102-.112.172-.172a9.86 9.86 0 0 1 .845-.774 17.7 17.7 0 0 1 1.207-.874l-1.24-.252-.66-.13c-.083.05-.153.11-.224.17-.07.06-.14.12-.21.19a.825.825 0 0 0-.162.162c-.05.03-.11.08-.16.14a6.8 6.8 0 0 0-.393.374c-.06.06-.13.12-.18.19-.06.06-.12.12-.17.18a16.878 16.878 0 0 0-1.704 2.147c-.817 1.29-1.43 2.7-1.874 4.17-.42 1.46-.59 3.07-.6 4.51.04.997.14 1.943.32 2.88.11.554.25 1.108.422 1.65.414 1.24.938 2.438 1.62 3.546.103.18.213.355.324.527.856 1.23 1.823 2.366 2.94 3.323.745.594 1.51 1.16 2.306 1.64.09.05.182.1.262.15zm-.462-26.937c.554.11 1.098.232 1.64.352.142-.07.283-.14.424-.2 2.437-1.038 4.995-1.41 7.462-1.13 2.336.29 4.572 1.128 6.334 2.266.534.342 1.027.715 1.48 1.1.15.02.302.03.453.04.524.05 1.047.09 1.57.12a15.273 15.273 0 0 0-2.728-2.427 15.584 15.584 0 0 0-3.85-1.903 15.606 15.606 0 0 0-3.16-.703c-2.54-.283-5.43.05-8.04 1.207-.05.02-.09.04-.14.06-.7.303-1.36.676-2 1.09l.362.08.18.04zm74.324 9.145l-.01.038c-.342-1.16-.854-2.48-1.72-3.826a14.908 14.908 0 0 0-1.218-1.682c-.07-.08-.13-.16-.19-.232-.07-.07-.132-.14-.202-.21a3.493 3.493 0 0 0-.373-.404c-.05-.06-.11-.12-.18-.18a.948.948 0 0 0-.172-.182 14.606 14.606 0 0 0-1.62-1.38c-.152.04-.313.07-.464.1-.51.112-1.02.202-1.53.303.29.15.573.322.835.493a14.87 14.87 0 0 1 2.57 2.105c.06.06.12.12.18.19 0-.04 0-.07.01-.11.04.08.07.16.11.242v.01c.03.01.04.03.05.05.13.14.263.282.384.423.07.08.14.16.19.252.082.08.142.16.192.242.17.2.32.413.462.614.995 1.42 1.58 2.86 1.942 4.048.01.05.03.1.04.14.145.47.264.89.337 1.28.13.824.27 2.48-.086 4.658-.005.025-.014.05-.018.075a10.33 10.33 0 0 1-.37 1.61c-.353 1.18-.907 2.61-1.894 4.03a15.394 15.394 0 0 1-2.646 2.99c-.09.07-.18.153-.27.234-.09.07-.18.15-.28.222-.17.14-.362.27-.553.412-.09.06-.18.13-.282.19-.01.01-.03.02-.04.03-.07.05-.14.09-.21.12a14.804 14.804 0 0 1-3.797 1.703 15.03 15.03 0 0 1-2.377.514c-.26.03-.542.05-.814.06-.08.01-.16.01-.242.01l-.08 1.29c.434-.01.857-.03 1.28-.07a15.262 15.262 0 0 0 5.84-1.855c.08-.04.16-.08.243-.14.09-.04.19-.103.283-.163.18-.11.36-.22.543-.345.02-.01.03-.02.05-.03.08-.05.15-.11.23-.17.08-.05.17-.11.253-.18a15.242 15.242 0 0 0 3.887-4.14c1.026-1.58 1.55-3.14 1.892-4.43.09-.313.15-.625.19-.907v-.02c.04-.303.082-.585.102-.847 0 0 .58-4.48-.457-7.19z"/>
    <path class="st4" d="M90.78 33.107c0-.342-.16-.755-.25-1.23-.06-.442-.212-.936-.384-1.49-.242 1.49-1.088 4.643-3.998 8.712v.01c-.09.13-.19.26-.292.4a30.167 30.167 0 0 1-.866 1.13c-.09.11-.18.23-.282.35-.09.11-.18.22-.272.33-1.873 2.22-4.34 4.66-7.603 7.2.272-.01.554-.03.816-.06a14.98 14.98 0 0 0 2.37-.52c1.47-1.16 2.85-2.54 4.08-4 .11-.1.2-.21.28-.32.1-.11.19-.222.28-.342.2-.24.403-.483.584-.735.11-.12.2-.243.29-.374.1-.13.2-.263.293-.394 2.507-3.344 4.28-6.647 5.025-8.128-.02-.09-.04-.19-.05-.304-.01-.07-.02-.16-.03-.25zm-7.29 20.05l-1.56 13.07c.13.18.25.373.372.554.01.02.03.04.03.06l1.672-13.7.695-5.88c-.19.12-.37.23-.55.34a526.14 526.14 0 0 0-.67 5.56zM81.174 72.56c.1-.513.16-1.036.19-1.56l-.19 1.56zm-.06 5.842c-.05-.08-.1-.15-.16-.222a5.793 5.793 0 0 0-.394-.473c-.05-.06-.11-.12-.17-.18-.04-.05-.092-.102-.142-.152a7.385 7.385 0 0 0-.705-.574 11.38 11.38 0 0 1-1.098 1.5 6.376 6.376 0 0 1 1.682 1.51c.05.07.11.15.16.23.132.17.253.35.374.546.06.08.11.16.16.24l.14.23c.264.476.516 1.02.747 1.614a12.7 12.7 0 0 0 .765-1.46c-.332-1.038-.735-1.884-1.2-2.58a4.48 4.48 0 0 0-.15-.222zm-8.147 5.75v.02l.01-.02zm-.02.362l-.01.11h.01zm-8.78-50.55a.62.62 0 0 1-.16.12c-.04.04-.103.08-.153.12a9.31 9.31 0 0 1-.604.434c-.06.05-.13.1-.19.14l-.202.142c-.423.282-.866.554-1.32.826.06.675.172 1.35.323 2.014.32-.15.63-.292.92-.453.06-.03.13-.06.19-.09.06-.04.13-.07.19-.112.22-.11.44-.22.64-.342.05-.03.09-.05.14-.08s.11-.06.16-.102c.36-.2.717-.42 1.05-.64a11.2 11.2 0 0 1-.927-2 .22.22 0 0 1-.05.03zm-1.19 8.106l.01-.01s0-.03-.01-.102v.11zm-.553 19c.12-.06.242-.12.362-.17.07-.03.13-.06.2-.09l.04-1.1c-.18.283-.382.555-.593.837l-.01.524zm.392-3.292c-.1.04-.21.08-.312.12-.05.02-.11.04-.17.06a.594.594 0 0 1-.142.05c-2.276.797-4.41.706-6.193-.05-.66.384-1.34.696-2.06.948 1.84.947 4.3 1.34 7.52.856.24-.322.48-.634.703-.957.01-.02.03-.04.04-.06.04-.06.08-.11.11-.17.06-.092.122-.172.172-.263.12-.18.22-.352.32-.534zM39.09 32.754c-.06.05-.12.1-.18.14-.05.05-.11.092-.17.132-.172.11-.353.2-.535.262-.04.02-.09.03-.14.05l-.152.03c-.614.13-1.26.01-1.964-.262a10.318 10.318 0 0 1-.66 1.702c1.012.342 1.93.413 2.75.03.05-.02.1-.05.15-.08s.09-.05.14-.092a2.51 2.51 0 0 0 .52-.433c.06-.05.12-.11.17-.18l.15-.182h.01v-.02c.07-.22.162-.36.212-.4v-.01c-.04-.06-.16-.32-.22-.76-.03.03-.06.06-.09.08zm.152 5.368c-.12.433-.272.896-.463 1.37.01.12.02.242.04.362.17-.19.35-.383.54-.544l-.07-.655-.05-.533zm-4.762 44.58c-.02.09-.04.17-.06.262-.02.08-.04.17-.05.252a2.78 2.78 0 0 0-.102.504c-.02.07-.04.13-.04.2-.02.06-.03.122-.04.192-.302 1.722-.443 3.645-.373 5.81.524-.08 1.037-.2 1.53-.342-.07-2.105.07-3.978.384-5.63.01-.07.02-.13.04-.2.01-.07.02-.13.04-.2.03-.172.07-.333.11-.494.01-.09.03-.17.06-.262l.06-.252c.08-.312.17-.624.27-.916a11.71 11.71 0 0 1-1.74.715l-.09.37zM17.47 72.29a15.325 15.325 0 0 0-.442 2.778 17.28 17.28 0 0 0 1.833-1.48 12.03 12.03 0 0 1-.32-2.165 10.01 10.01 0 0 1-1.07.866zm.323-24.733a5.47 5.47 0 0 1-.534-.272c.29 1.833.58 3.655.88 5.488l1.91 11.933.03.19c.11-.14.24-.27.382-.402l-.06-.373-2.618-16.56zm-5.045-13.574c-1.198 2.205-1.44 4.552-1.46 5.992.262.544.554 1.078.886 1.58.453.666.957 1.29 1.51 1.864-.282-.8-1.33-4.17.06-7.43a12.167 12.167 0 0 1-.996-2.016z"/>
    <path class="st4" d="M98.472 14.28c.035-.53-.19-.98-.19-.98-.31-.948-1.066-1.693-1.892-2.267-.836-.594-1.762-1.077-2.71-1.49-1.912-.826-3.906-1.43-5.92-1.954-4.038-1.05-8.157-1.72-12.296-2.26-8.278-1.05-16.636-1.46-24.974-1.49-8.348 0-16.696.39-24.984 1.37-4.14.51-8.268 1.17-12.316 2.14-2.013.503-4.017 1.087-5.95 1.862-.948.392-1.914.815-2.77 1.37-.876.533-1.692 1.197-2.185 2.073l-.01.01-.01.01c-.11.15-.17.392-.252.633l-.09.644c.01.412.13.835.33 1.22l.02.02.01.02.01.05 6.72 37.05c2.355 12.333 4.66 24.67 7.078 36.984v.1l-.05.33c-.01.705.4 1.31.91 1.803.54.492 1.17.885 1.84 1.23 1.34.663 2.77 1.146 4.22 1.56 2.91.805 5.89 1.32 8.89 1.72 5.993.797 12.055 1.09 18.107 1.11 6.043-.02 12.105-.323 18.097-1.11 3-.39 5.99-.895 8.9-1.67 1.45-.394 2.9-.857 4.26-1.46.676-.313 1.33-.666 1.914-1.11.584-.43 1.098-.976 1.25-1.63v-.15l-.01-.09c0-.02-.01-.06-.01-.06l.08-.153v-.01l-.04-.3v-.1l.04-.2v-.01l.01-.02 7.13-37.43c2.296-12.468 4.63-24.904 6.878-37.37l-.022-.007zM89.22 8.315l.292.09c1.58.494 3.172.968 4.662 1.723.745.383 1.47.796 2.145 1.3.65.502 1.3 1.137 1.57 1.993v.01l.04.35.01-.003a3.45 3.45 0 0 1-.06.8 4.01 4.01 0 0 1-.756 1.188 7.902 7.902 0 0 1-1.098.917c-.786.534-1.63.967-2.488 1.35a20.76 20.76 0 0 1-2.65.946l-2.68.773-.242.07.04-.242c.252-1.82.413-3.642.614-5.475l.27-2.74c.09-.904.21-1.83.293-2.73l.022-.31zM64.71 4.73c2.023.14 4.057.25 6.07.482 2.025.21 4.04.453 6.053.735 2.004.282 4.008.614 6.002.997 1.994.383 3.988.806 5.95 1.34l.132.04-.02.14-1.33 11.37-.02.15-.15.04a67.102 67.102 0 0 1-3.05.705c-.092.02-.172.03-.253.05-.655.14-1.32.26-1.974.38-2.054.38-4.13.69-6.193.96-.403.06-.816.11-1.218.15-.76.1-1.5.18-2.25.252-.78.08-1.56.15-2.34.22-1.06.09-2.107.16-3.16.243-.496.02-.99.05-1.48.09-.25.01-.496.03-.748.04l-.414.03-.21.02.01-.21.21-5.88c-.01-.253-.03-.504-.02-.756l.02-.745.03-1.49.07-2.98.13-5.933c-.02-.04-.03-.08-.04-.12l-.1-.352.282.02zM36.2 4.8l.615-.04c1.138-.12 2.276-.15 3.424-.21l3.41-.142c2.28-.07 4.56-.12 6.85-.12 4.56-.04 9.12.15 13.67.442l.23.02-.09.262c-.02.04-.03.08-.06.13v.01l-.353 8.923-.26 8.962-.01.16-.16.01c-8.5.555-17.03.535-25.53.082l-.22-.01-.02-.23-1.62-17.9v-.01l-.02-.18-.01-.15.15-.01zm13.837 30.28l.03 1.44.05 2.296.09 4.49c.07 3.324.152 6.647.243 9.96.02.785.04 1.57.07 2.356.03 1.32.06 2.628.1 3.947.06 1.88.122 3.77.192 5.65.02.422.03.855.05 1.28.01.4.03.794.04 1.196l.483 14.44.01.242h-.242l-5.53.1c-.05.12-.11.252-.17.383.796-.02 1.59-.04 2.387-.03 1.118.01 2.236 0 3.343.03l.08.01.06.13c.05.11.03.234.04.354l.02.352.04.714.06 1.43c.04.96.082 1.915.082 2.86v.445l-.322-.283c-.564-.47-1.108-.964-1.682-1.44-.56-.47-1.15-.913-1.73-1.38-.95-.742-1.92-1.49-2.88-2.253a3.9 3.9 0 0 1-.24.393c2.06 1.68 4.11 3.37 6.22 5.013l.302.232-.403.05-.093.01.02-.01-9.91 1.53c-3.31.483-6.604 1.017-9.927 1.46l-.18.02-.05.01-.03-.24a26.45 26.45 0 0 0-.102-.928l-.12-1.24c-.03-.314-.07-.636-.09-.96-.01-.06-.02-.11-.02-.17l-.077-.742-.01-.06-.514-4.35h-.02l-.03-.243-.08-.705-.677-5.93-.14-1.21-.093-.774-.21-1.823-1.28-11.068-.17-1.543-.17-1.47-.04-.352c-.253-1.51-.404-3.02-.605-4.53l-.584-4.532-.07-.544-.16-1.28-.755-5.993-.16-1.24-1.312-10.34-.24-1.903-.735-5.86-.03-.284.266.04c4.14.625 8.31 1.048 12.488 1.33h.03c.585.04 1.16.08 1.743.11.18.02.364.03.545.04l.14.01.01.142c.03.31.05.613.082.925.01.02.03.04.04.06.19.302.372.594.523.896l-.18-1.813-.02-.23h.24l11.602.32h.21l-.03.334c0 .01-.01.03-.02.04l.22 10.59v.08zM11.68 8.354c2.326-.634 4.693-1.108 7.06-1.52.674-.182 1.38-.273 2.073-.394l2.074-.332c1.4-.21 2.79-.393 4.19-.564a166.56 166.56 0 0 1 8.397-.775l.21-.01.02.23.766 8.98c.252 3.01.514 6.01.816 9.01l.01.18-.18-.02c-.313-.02-.615-.03-.927-.06-.55-.02-1.09-.06-1.64-.1-.08 0-.17-.01-.25-.01a159.6 159.6 0 0 1-9.065-.838 130.75 130.75 0 0 1-5.89-.886c-.635-.1-1.25-.23-1.864-.363a34.14 34.14 0 0 0-1.067-.22l-.536-.11-.464-.104-1.913-.403-.16-.03-.03-.17c-.635-3.755-1.2-7.52-1.783-11.27l-.03-.18.17-.05zM2.617 13.67c.01-.09.01-.17.06-.3v-.02c.05-.06.07-.243.18-.394.404-.715 1.018-1.25 1.673-1.682l.493-.322c.16-.09.342-.2.514-.292.342-.19.695-.363 1.047-.524 1.41-.665 2.92-1.128 4.4-1.56l.202-.05.03.22.383 2.69c.13.906.29 1.803.43 2.71l.91 5.407.06.373-.364-.1L9.762 19c-.955-.314-1.9-.646-2.82-1.07a14.487 14.487 0 0 1-2.636-1.48 4.95 4.95 0 0 1-1.118-1.046c-.07-.09-.124-.2-.184-.292l-.393-1.208a.657.657 0 0 1 .005-.234zm20.14 79.918l-.02.01-.05-.01c-.302-.04-.584-.16-.876-.232-.29-.09-.59-.2-.87-.302-.57-.2-1.15-.433-1.7-.695a8.58 8.58 0 0 1-1.59-.97c-.13-.1-.25-.2-.36-.31-.1-.1-.24-.26-.32-.39a1.91 1.91 0 0 1-.244-.445c-.06-.15-.13-.33-.09-.564.08-.685.563-1.16 1.016-1.52a7.73 7.73 0 0 1 .725-.494c.263-.17.515-.28.786-.413.473-.234.957-.435 1.44-.616a7.98 7.98 0 0 1-.503-.525 13.644 13.644 0 0 0-2.135 1.037 8.35 8.35 0 0 0-.763.533c-.12.1-.233.2-.343.303-.09.09-.2.232-.303.352l-.18.2-.06-.27c-.332-1.48-.564-2.983-.846-4.483l-.816-4.49-1.66-8.97L9.7 52.375 6.35 34.45c-1.11-5.988-2.267-11.97-3.414-17.94l-.102-.503.383.352a7.49 7.49 0 0 0 1.04.792 9.97 9.97 0 0 0 1.14.665 25.7 25.7 0 0 0 2.427 1.08c.423.15.836.3 1.26.443.422.153.835.254 1.278.385l2.58.724.12.04.02.12.252 1.61c.13-.13.262-.26.393-.37l-.15-.97-.04-.26.25.06 1.047.22.584.123 1.37.292.978.2c1.32.292 2.67.463 3.998.695l.15.03-.03.15-.02.093-.01.04-.01.03.02.19.04.384c.202 1.26.313 2.53.474 3.786l.17 1.46.232 1.893.05.432.907 7.562.42 3.586.715 6.02.15 1.27.515 4.27c.22 1.967.44 3.93.684 5.89.05.487.11.97.17 1.45a79 79 0 0 0 .19 1.55c.247 2.09.498 4.16.75 6.248l1.03 8.47.765 5.81.21 1.57h.01v.07l.01.01v.02l.02.12v.03l.153 1.15.574 4.3.17 1.226.13 1.017.03.243h-.02l-.22.04c-2.477.323-4.954.696-7.42.968zm50.12-2.89l-.01.12v.05l-.102 1.19c.01.08.01.16.01.24l-.02.323v.15c0 .02 0 .05-.01.08-.01.2-.03.415-.03.616l-.08 1.4-.01.15-.142.02-6.223.847c-1.047.13-2.074.3-3.132.35l-3.132.2.05.05-.554.01-7.13.15h-.22l-.505.02c-.433.03-.866 0-1.3-.01l-1.298-.02-2.59-.06-5.18-.12c-.437 0-.89-.04-1.31-.07l-1.29-.09c-.868-.07-1.73-.13-2.59-.232a110.4 110.4 0 0 1-5.157-.664l-.17-.03.01.07-.313-.06a13.82 13.82 0 0 1-.925-.2 54.37 54.37 0 0 1-1.53-.323c-.15.03-.303-.04-.454-.05l-.44-.08c-.29-.06-.595-.114-.887-.184a26.365 26.365 0 0 1-1.76-.394l-1.23-.32 1.25-.08a27.46 27.46 0 0 0 2.87-.34c.954-.16 1.9-.333 2.86-.474l.23-.04h.01l.04.25c.03.19.05.374.06.565.01.04.02.08.02.12l.01.1.02.163c.01.03.02.06.01.09l.02.13c.02.11.03.22.04.33.02.13.04.26.05.394l.22-.02h.08v-.03l-.02-.122-.06-.585-.03-.232-.03-.28-.04-.34-.02-.19-.01-.14-.02-.17.17-.02c3.416-.454 6.82-.887 10.223-1.38l10.21-1.47.244-.03.01.24.222 5.92.24-.01-.12-5.68-.02-.53.423.33c2.426 1.922 4.813 3.896 7.22 5.84l.15.12.09-.11.13-.16-3.472-2.87-3.646-2.93-.304-.243.393-.06a564.19 564.19 0 0 1 8.155-1.24c-.2-.14-.41-.28-.612-.433l-3.07.403c-1.732.23-3.474.43-5.206.684l-.16.03v-.17l-.19-6.113-.01-.2.2-.01c1.21-.01 2.41.01 3.606.05a6.426 6.426 0 0 1-.193-.334l-3.434-.15-.23-.01v-.212L51.376 66.5l-.04-1.29-.153-5.667-.08-3-.423-15.4-.07-2.83v-.02l-.05-1.75-.03-1.09-.03-.35v-.08c-.05-.78-.07-1.565-.1-2.34l-.093-2.77-.09-2.768-.05-1.39-.02-.696-.04-.676v-.02l-.03-.282.18-.01 13.152-.434h.24l-.01.232V24l-.02.413c.11-.14.232-.292.352-.433.04-.06.09-.11.14-.17v-.162l.153-.02.916-.07 1.24-.09 1.11-.092 1.63-.12 1.62-.2 1.55-.18 2.285-.272 2.68-.322.25-.03-.02.262-1.38 19.546-.452 6.525-.09 1.247-.243 3.454-.433 6.265-.07 1.06-.11 1.56-.446 6.5-.45 6.736-.12 1.793-.236 3.393-.08 1.25-.05.805v.02l-.01.14v.01l-.113 1.885h.01l-.01.07v.07l-.01.08-.01.06v.05l-.01.15v.01l-.02.292-.01.09-.08 1.33-.13 2.205-.01.11v.03l-.04.533-.02.394-.03.343v.03l-.01.12v.037zm24.842-74.59l-1.92 9.798c-.19 1.31-.477 2.598-.71 3.897l-.724 3.907-1.46 7.794c-.968 5.206-1.945 10.402-2.88 15.61L84.27 88.33l-.05.292-.2-.242a4.82 4.82 0 0 0-.384-.403 7.197 7.197 0 0 0-.443-.352 7.45 7.45 0 0 0-.98-.614 12.733 12.733 0 0 0-1.68-.78c-.09.09-.18.19-.273.27.514.2 1.027.44 1.52.7a9.29 9.29 0 0 1 1.32.857c.403.33.806.725.977 1.29l.01.03-.01.04-.04.27c0 .03.01.06.02.09h.01l.16.04-.05.143-.09.22c-.04.26-.2.493-.363.715-.17.21-.36.38-.564.55a7.655 7.655 0 0 1-1.28.847c-.895.49-1.852.856-2.798 1.178-1.934.614-3.908 1.037-5.88 1.38l-.193.04.02-.2c.06-.736.11-1.47.16-2.216l.02-.32.03-.504c.01-.262.02-.534.04-.796l.02-.315.07-1.41c.02-.01.04-.01.05-.02l.16-2.308.07-.997.07-1.077.03-.394h-.01l.01-.1v-.05l.01-.102.02-.28v-.01l.08-1.107.07-1.055.03-.423.05-.685v-.04l.22-3.28.12-1.793.905-13.02.1-1.56.07-.997.452-6.545.23-3.443.09-1.28.444-6.533.29-4.2c.366-5.145.637-10.3.95-15.457l.01-.13.13-.02a105.6 105.6 0 0 0 4.63-.8c.576-.1 1.14-.22 1.714-.35.12-.01.242-.04.362-.07a54.08 54.08 0 0 0 2.445-.576l.276-.06-.04.273-.292 2.396c.14.13.264.26.375.4l.363-3.05v-.15l.16-.04 2.496-.756A24.75 24.75 0 0 0 93 18.6a18.66 18.66 0 0 0 2.357-1.12c.745-.423 1.47-.906 2.064-1.52l.42-.434-.12.58z"/>
    <path class="st5" d="M86.934 24.668c-.01-.02-.02-.04-.05-.05.02.03.03.06.05.09v-.04zm-.17-.19c.04.04.08.08.12.13-.04-.08-.07-.16-.11-.24-.01.04-.01.07-.01.11zm-4.24 42.655c.06.1.11.19.17.292.604-4.743 1.19-9.486 1.772-14.23.262-2.104.524-4.218.765-6.323-.08.07-.17.13-.25.18-.08.06-.15.122-.23.172-.02.01-.03.02-.05.03l-.69 5.88-1.68 13.706c.075.102.135.193.195.293zM83.63 47.9a483.91 483.91 0 0 0-.623 5.196l-1.45 12.608.18.242c.07.09.132.19.192.282l1.56-13.07c.21-1.854.43-3.707.66-5.56a2 2 0 0 1-.28.16c-.08.06-.16.1-.24.142z"/>
    <path class="st5" d="M94.376 33.71l.725-3.906c.24-1.3.52-2.588.71-3.897l1.918-9.798.12-.59-.412.43c-.593.613-1.32 1.1-2.063 1.52-.755.433-1.55.796-2.356 1.12-.795.32-1.63.592-2.476.834l-2.495.755-.16.04v.04l-.41.13.008-.038-.274.06c-.818.21-1.63.402-2.45.573-.12.03-.243.06-.363.07a33.54 33.54 0 0 1-1.71.352c-1.54.3-3.08.562-4.633.794l-.13.02-.01.13c-.313 5.156-.585 10.31-.95 15.46l-.29 4.2-.444 6.53-.09 1.28-.23 3.445-.455 6.545-.07 1-.1 1.56-.906 13.02-.12 1.794-.226 3.284v.04l-.05.685-.03.422-.07 1.057-.08 1.11v.01l-.02.28-.01.1v.05l-.01.103h.01l-.03.393-.07 1.076-.07.997-.163 2.307c-.01.01-.03.01-.05.02l-.07 1.41-.02.31c-.02.26-.03.53-.04.793l-.03.5-.02.323c-.05.744-.1 1.48-.16 2.214l-.02.2.19-.04c1.974-.34 3.948-.764 5.88-1.38.948-.32 1.904-.684 2.8-1.177a7.655 7.655 0 0 0 1.28-.846c.2-.17.39-.34.563-.555.16-.22.322-.456.363-.718l.09-.22.05-.14-.16-.04h-.01a.292.292 0 0 1-.02-.09l.04-.275.01-.04-.01-.03c-.174-.565-.577-.958-.98-1.29a9.29 9.29 0 0 0-1.32-.856 14.738 14.738 0 0 0-1.52-.693c-.06.07-.12.13-.18.18-.06.07-.13.133-.19.193.582.2 1.146.42 1.69.704a8.32 8.32 0 0 1 1.29.767c.392.29.754.646.895 1.068v.01l-.02.22-.01.02v.01c.02.1.03.18.09.302l.03.05h.01l-.03.05c-.15.2-.22.412-.38.593a3.41 3.41 0 0 1-.525.485 9.115 9.115 0 0 1-1.24.776c-.876.45-1.803.804-2.76 1.116a46.207 46.207 0 0 1-5.598 1.48c.07-1.23.2-2.437.292-3.655l.04-.43.05-.644v-.07l.07-.733c-.01 0-.01.01-.02.01s-.02.01-.03.01l.14-1.78h.02l.01-.14.01-.1.02-.244h-.03l.04-.443h.02l.01-.15.01-.14h-.02l-.01.14c-.01.01-.02.01-.03.01.01-.05.01-.1.02-.15.01-.09.02-.17.04-.26l.04-.5h.02l.01-.225v-.01h-.01l.01-.222.03-.383h.02l.01-.17.01-.182h-.01l.02-.243.17-2.356.313-4.24.13-1.807.483-6.656c.16-2.064.313-4.12.454-6.183.04-.524.08-1.037.11-1.56.02-.303.05-.615.06-.917.16-2.264.303-4.53.434-6.795l.214-3.474.08-1.29.414-6.534L78.216 22.5a116.21 116.21 0 0 0 4.965-.826c.5-.1 1.016-.19 1.52-.302.15-.03.31-.06.46-.1a61.76 61.76 0 0 0 1.856-.424l-.23 1.8c.07.06.13.123.17.183.07.06.13.12.18.18l.278-2.27.426-.094-.33 2.773c.07.07.13.14.2.21.06.07.12.15.19.232l.384-3.32 2.377-.736a25.35 25.35 0 0 0 2.5-.865 20.02 20.02 0 0 0 2.388-1.15c.614-.353 1.208-.746 1.732-1.23l-1.743 9.275c-.302 1.29-.514 2.598-.775 3.897l-.74 3.897-.786 4.12-.694 3.67c-.988 5.196-2.005 10.39-2.93 15.6l-2.8 15.618-1.4 7.816-1.36 7.512c-.07-.07-.14-.15-.21-.21-.152-.132-.303-.253-.464-.384a10.274 10.274 0 0 0-.997-.633 15.685 15.685 0 0 0-1.61-.777.9.9 0 0 1-.113.12c-.03.04-.07.083-.11.123v.01a12.86 12.86 0 0 1 1.68.785 7.624 7.624 0 0 1 1.42.97c.142.13.263.26.384.403l.2.24.05-.29 5.76-31.22c.937-5.206 1.913-10.402 2.88-15.61l1.457-7.79z"/>
    <path class="st5" d="M79.452 85.51l-.11.112h-.01v.02l.03-.02.12-.07.04-.02-.04-.01c.01-.02.01-.03.01-.04-.01 0-.02.01-.04.03zm-.574.978l-.12-.01c.02.01.04.01.06.02.02 0 .04-.01.06-.01zm-4.783-1.5l-.02.02h.02v-.02zm-.03.252h-.01l-.01.12c.01-.04.01-.08.02-.12zm-.865.322l.01-.09.02-.293v-.01l.01-.16v-.05l.01-.06.01-.08v-.07l.01-.07h-.01l.11-1.885v-.01l.01-.14v-.02l.05-.807.08-1.25.233-3.393.12-1.79.454-6.736.443-6.495.11-1.56.07-1.06.434-6.266.242-3.453.09-1.25.454-6.523L77.54 22.5l.02-.26-.252.03-2.68.322-2.285.272-1.55.18-1.622.202-1.63.12-1.1.092-1.24.09-.914.07-.15.02v.02l-.467.02.002-.05h-.242l-13.15.433-.18.01.03.29v.02l.04.675.02.696.05 1.39.09 2.77.09 2.768c.03.775.05 1.56.1 2.336v.08l.03.35.03 1.09.05 1.754v.02l.07 2.83.424 15.397.08 3 .154 5.67.04 1.29.42 15.68v.21l.038.004.017.45h-.005l.01.2.167 5.357.018 1.63-.085-.067.02.532.12 5.68-.24.01-.224-5.92-.01-.24h-.016l-.053-1.37a70.15 70.15 0 0 0-.08-2.78l-.06-1.43-.023-.428-.028-1.614h.02l-.01-.24-.482-14.44c-.01-.404-.03-.797-.04-1.2-.02-.423-.03-.856-.05-1.28-.07-1.882-.13-3.775-.19-5.66-.04-1.317-.07-2.626-.102-3.945-.03-.786-.05-1.57-.07-2.357a1634.635 1634.635 0 0 1-.33-14.45l-.05-2.297-.03-1.44V35l-.223-10.584c.01-.01.02-.03.02-.04l.03-.332h-.21l-11.603-.322h-.244l.007.077-.457-.01-.003-.05-.14-.01c-.182-.01-.364-.02-.545-.04a92.52 92.52 0 0 1-1.743-.11h-.03c-4.18-.29-8.35-.71-12.488-1.33l-.262-.04.03.28.735 5.86.24 1.9 1.31 10.35.16 1.24.757 5.99.16 1.28.07.542.585 4.532c.21 1.51.36 3.02.61 4.53l.04.353.17 1.47.17 1.54 1.28 11.06.21 1.823.09.775.14 1.21.68 5.93.08.704.03.24h.02l.514 4.35.01.06.08.745c0 .06.01.11.02.17.02.325.06.648.09.96l.12 1.24c.04.31.07.613.1.925l.03.24h.007l.316 2.313.003.023.004.027.018.114V95h-.08l-.22.02c-.01-.13-.03-.26-.05-.392-.01-.11-.02-.22-.04-.33l-.02-.13c.01-.03 0-.06-.01-.094l-.02-.16-.01-.102a.51.51 0 0 0-.02-.12 5.386 5.386 0 0 0-.06-.565l-.04-.253h-.01l-.025.005-.023-.31h.03l-.03-.24-.13-1.02-.17-1.23-.576-4.3-.155-1.15v-.03l-.02-.12v-.02l-.01-.01v-.07h-.01l-.21-1.573-.77-5.81-1.028-8.47a1310.13 1310.13 0 0 1-.745-6.24c-.07-.516-.13-1.04-.19-1.55-.06-.486-.124-.97-.174-1.45-.242-1.967-.463-3.93-.685-5.894l-.513-4.27-.152-1.27-.715-6.02-.424-3.585-.912-7.56-.05-.433-.23-1.896-.17-1.46c-.163-1.26-.274-2.528-.475-3.786l-.04-.383-.02-.19.01-.03.01-.04.02-.09.03-.15-.15-.03c-1.33-.233-2.68-.404-4-.696l-.978-.2-1.37-.29-.586-.12-1.048-.223-.253-.06v.008l-.47-.12v-.018l-.12-.04-2.58-.725c-.443-.13-.856-.23-1.28-.382-.422-.14-.835-.292-1.26-.443a26.32 26.32 0 0 1-2.433-1.07c-.403-.19-.765-.426-1.138-.668a7.355 7.355 0 0 1-1.037-.796l-.383-.35.1.502c1.15 5.97 2.307 11.952 3.415 17.934l3.343 17.94 3.293 17.955 1.66 8.972.817 4.49c.282 1.5.514 3 .846 4.48l.06.27.18-.2c.105-.12.215-.266.306-.356.11-.1.222-.2.342-.303.242-.19.493-.362.765-.533a13.644 13.644 0 0 1 1.66-.843c.15-.07.31-.13.47-.19-.03-.04-.07-.082-.1-.122-.04-.04-.07-.08-.103-.12a13.045 13.045 0 0 0-2.095 1.037 9.09 9.09 0 0 0-.785.553c-.12.1-.24.21-.36.32-.05.06-.08.1-.12.15-.212-1.41-.484-2.81-.726-4.207l-.8-4.493-1.62-8.984-3.28-17.95c-.997-5.204-2.003-10.42-3-15.628a1982.853 1982.853 0 0 1-3.74-19.76c.222.19.463.363.705.515.373.242.765.493 1.168.695.796.423 1.62.775 2.457 1.098.43.18.85.33 1.27.47.43.16.87.27 1.29.395l2.46.715.27 1.79c.05-.06.11-.12.17-.18.05-.07.12-.132.18-.192l-.21-1.36.47.117.137.87a.68.68 0 0 1 .16-.14.81.81 0 0 1 .163-.16c-.03-.162-.05-.313-.08-.474l.512.11.665.135 1.24.252 1.32.26c1.29.273 2.58.424 3.867.645 0 .03-.01.02-.01.08l.02.2.05.393v.02c.09 1.267.274 2.516.405 3.784l.16 1.45.22 1.872.05.46.875 7.574.413 3.525.703 6.04.14 1.27.508 4.31c.24 1.99.484 3.986.736 5.98 0 .01 0 .01.01.02.04.383.08.755.14 1.14 0 .09.01.18.03.28.06.514.133 1.027.203 1.55.04.424.1.847.16 1.27.543 4.32 1.1 8.63 1.63 12.95.02.12.03.25.05.373.24 1.923.47 3.827.703 5.75.02.11.03.232.05.342.02.15.03.312.05.463l.01.09v.06l.02.15.07.583.02.21h-.04l.03.214.423 3.474.07.602.06.542.01.11.02.15.04.273.08.664.04.34.01.06.01.07.01.09.01.03v.03l.102.826-7.11 1.158c-.27-.14-.565-.2-.837-.3-.29-.09-.553-.2-.845-.3a18.4 18.4 0 0 1-1.65-.736 8.14 8.14 0 0 1-1.5-.927 2.94 2.94 0 0 1-.32-.28c-.12-.122-.18-.202-.273-.323-.14-.21-.28-.525-.25-.676l.01-.01v-.01c.03-.483.392-.916.815-1.26.222-.18.443-.34.685-.49.223-.15.484-.284.736-.415a15.85 15.85 0 0 1 1.52-.676l-.13-.13a1.28 1.28 0 0 1-.11-.13c-.482.18-.966.38-1.44.61-.27.13-.523.24-.784.412-.24.15-.492.312-.724.493-.45.36-.935.835-1.015 1.52-.04.232.03.413.09.564.06.16.142.303.243.444.08.13.222.28.322.382.11.11.23.21.36.312a8.58 8.58 0 0 0 1.59.97c.553.26 1.127.492 1.7.694.283.1.585.21.877.3.29.07.573.19.875.233l.05.01.02-.01c2.385-.266 4.78-.62 7.175-.936l.035.31c-.875.133-1.743.286-2.62.433a27.46 27.46 0 0 1-2.87.342l-1.248.08 1.23.32c.583.15 1.167.283 1.76.394.293.07.595.12.887.18l.443.083c.15.01.302.08.453.05.503.11 1.016.222 1.53.322.302.08.614.14.926.2l.312.06-.01-.07.17.03c1.712.26 3.434.482 5.156.664.857.1 1.723.16 2.59.232l1.29.09c.422.03.875.07 1.31.07l5.174.123 2.59.06 1.3.02c.43.01.864.04 1.297.01l.507-.02h.22l7.13-.15.552-.01-.05-.05 3.13-.205c1.057-.05 2.085-.22 3.13-.35l6.225-.846.14-.02.01-.15.08-1.4c0-.205.02-.417.03-.618a.25.25 0 0 0 .01-.08v-.142l.02-.32c0-.08 0-.16-.01-.24l.1-1.19v-.05l.01-.12v-.04l.01-.12v-.03l.03-.344.02-.393.04-.533v-.03l.01-.11.13-2.205.087-1.33zm-45.136 9.023c-.13-.09-.292-.09-.433-.14l-.43-.112a12.16 12.16 0 0 0-.88-.21c-.23-.05-.452-.112-.684-.162.584-.1 1.168-.19 1.76-.25.887-.08 1.75-.16 2.64-.27.05.48.11.94.18 1.41-.714-.09-1.43-.17-2.144-.26zM30.11 83.77l-.03-.243h.03l-.02-.03-.02-.1-.01-.092v-.01c-.01-.13-.03-.262-.04-.383.01.01.03.01.04 0l-.212-1.63-.03-.273-.02-.2-.01-.12-.655-5.33-.02-.15-1.633-13.22-.18-1.54-.182-1.46v-.02l-.04-.302c-.01-.13-.02-.27-.04-.403-.13-1.38-.342-2.75-.493-4.13l-.554-4.53-.06-.525-.16-1.29-.73-5.98-.16-1.27-1.12-9.063-.16-1.22-.24-1.923-.723-5.65c4.14.596 8.288.97 12.467 1.23.06.01.11.01.17.02l1.663.09c.04.01.09.01.13.01l.02.203c.06.09.13.19.19.284l.18.286c-.023-.248-.04-.49-.063-.735l.46.044.167 1.65c.1.16.18.332.25.493.1.19.19.373.26.554l-.25-2.66 11.115.305.292 10.553v.07l.04 1.45.06 2.296c.05 1.762.1 3.525.14 5.287.092 3.055.162 6.106.223 9.168.01.574.02 1.138.04 1.712.03 1.53.06 3.07.1 4.6.04 1.89.09 3.772.15 5.665 0 .423.01.836.03 1.26.13 5.135.29 10.27.44 15.406l-5.076.08a.885.885 0 0 1-.092.214c-.03.09-.07.18-.12.272L51 82.392l.027.478c-1.056-.025-2.12-.018-3.185-.028-.796-.01-1.59.01-2.387.03l-.12.242c-.04.09-.092.18-.142.272.886-.02 1.772-.03 2.66-.07 1.056-.05 2.114-.08 3.17-.16 0 .08.01.15 0 .22v.364l.01.715c0 .473.01.947.02 1.43.015.56.04 1.12.064 1.683l-.012-.012.028.747c-.47-.36-.93-.71-1.388-1.078-.584-.453-1.138-.947-1.702-1.41-.947-.806-1.893-1.62-2.85-2.427h-.01c-.03.07-.07.14-.11.21l-.122.212c.96.765 1.93 1.51 2.88 2.256.58.463 1.17.906 1.74 1.38.54.447 1.06.91 1.59 1.36l.023.605-.25-.19c-2.106-1.64-4.16-3.33-6.214-5.01-.02.03-.04.07-.06.1-.01.02-.03.04-.04.06-.03.05-.06.09-.1.14 1.992 1.56 3.986 3.12 5.94 4.737l-9.678 1.34c-3.222.472-6.465.905-9.687 1.41-.02-.14-.04-.293-.05-.434-.01-.02-.01-.03-.01-.05v-.04c0-.02-.01-.04-.01-.06v-.02c-.01-.09-.03-.19-.03-.282-.04-.26-.07-.533-.1-.795-.01-.06-.01-.12-.02-.18h-.01v-.04l-.04-.35c-.12-.998-.252-1.985-.383-2.98 0-.04 0-.07-.01-.113v-.03c-.07-.655-.15-1.33-.22-1.984 0-.05-.01-.1-.01-.15v-.06a.524.524 0 0 1-.02-.11 67.4 67.4 0 0 0-.06-.538zm.958 8.698c3.27-.44 6.514-.962 9.776-1.438l9.91-1.53-.02.01.09-.01.353-.045.023.616-10.013 1.45c-3.352.488-6.703.915-10.065 1.36l-.054-.403zm7.64 3.385l-2.578-.232a92.42 92.42 0 0 1-4.723-.56l-.232-1.84c3.343-.48 6.697-.964 10.05-1.39l9.99-1.31.19 5.84c-.34-.03-.704-.03-1.056-.04l-1.3-.04-2.59-.09-5.18-.16c-.436 0-.85-.04-1.29-.07l-1.29-.1zm13.887.484l-.1-5.337c2.124 1.722 4.29 3.404 6.434 5.106l-6.34.23zm-.18-6.035l-.037-1.035c1.68-.24 3.37-.44 5.05-.664L60.5 88.2c-.08-.05-.16-.11-.242-.17-.08-.05-.16-.112-.232-.162l-2.648.393c-1.667.24-3.334.51-5.01.73l-.026-.69-.08-5.06c1.218.02 2.447.05 3.665.1-.05-.08-.1-.16-.14-.24a.95.95 0 0 1-.122-.22 85.95 85.95 0 0 0-3.448-.05l-.01-.43 3.266.147-.15-.302a.963.963 0 0 1-.082-.17l-2.98-.13-.27-11.47c-.03-1.34-.07-2.68-.1-4.02l-.03-1.31a545.28 545.28 0 0 0-.17-5.664c0-.222-.01-.453-.02-.675l-.06-1.67-.16-4.3-.21-5.82v-.02l-.38-10.444-.04-1.1v-.42c0-.787-.03-1.573-.06-2.358l-.08-2.77-.08-2.765-.04-1.39-.02-.697-.03-.604 12.698-.356-.03.957c.07-.11.15-.22.23-.32.07-.1.15-.21.23-.31l.02-.413V24l.757-.02.006-.01.048-.004.532-.04.322-.03c.19-.01.383-.02.564-.04l.13-.01.18-.01h.02l.35-.03c.597-.04.98-.07.98-.07h.03l1.64-.11 1.63-.18 1.34-.15 2.347-.264 2.568-.29c-.502 6.444-.965 12.89-1.43 19.334a1416.9 1416.9 0 0 1-.46 6.495c-.02.413-.05.826-.08 1.24-.08 1.147-.17 2.295-.25 3.443-.15 2.015-.285 4.04-.406 6.063-.02.374-.04.746-.07 1.13l-.09 1.55-.395 6.657-.403 6.748-.1 1.805-.212 3.493-.06.987-.02.27-.04.677-.07 1.27h-.02l-.01.13v.04l-.01.1h.01l-.01.02v.058l-.01.122v.04l-.01.12v.11h-.01v.11l-.01.05v.05l-.01.12-.01.252-.02.34-.02.605h-.02v.05l-.01.07v.03l-.01.09v.07l-.01.22-.01.242-.02.17v.05h-.01v.143l-.01.06-.13 1.985h-.01l-.02.422v.02l-.05.936-.01.14-.05 1.18c-.02.12-.04.23-.05.35l-.04.584-.03.463-.09 1.25-6.073.742c-1.04.11-2.075.32-3.113.382l-2.7.22.08-.11-.14-.1-3.647-2.93-3.3-2.73c2.79-.376 5.56-.748 8.35-1.15-.112-.07-.223-.13-.333-.2-.1-.06-.19-.124-.292-.184-2.72.394-5.447.807-8.156 1.24l-.39.06.3.24 3.645 2.93L60 95.974l-.13.163-.093.11-.15-.12c-2.4-1.94-4.78-3.907-7.2-5.825z"/>
    <path class="st5" d="M72.735 87.113v.04h.03l-.03-.04zm-8.56-53.3a3.3 3.3 0 0 1-.15-.444c-.01.23-.01.47-.02.71a.61.61 0 0 0 .16-.12l.01-.15zm-.785 26.825l.04-1.168c-.07.03-.14.07-.21.11-.05.03-.112.06-.162.092-.01 0-.02.01-.03.02v.02l-.04 1.098c.06-.03.12-.05.19-.08l.212-.092zm-.25 1.532c-.03.08-.06.16-.092.25a.32.32 0 0 0 .08-.04c0-.07.01-.14.01-.21zm-.213.31l-.01.343c.04-.14.09-.272.13-.403l-.12.06zm.05-20.592h-.01c0 .03.01.05.01.07v-.07zm-.18.292h-.01s0 .01.01.01v-.01zm-.373 18.89l.01-.523c-.05.07-.11.14-.17.21-.04.06-.102.122-.162.192l-.01.28c.05-.03.1-.05.16-.08s.11-.06.172-.08zm-.736 21.29v.01l.02-.01h-.02zm-17.078.785h-.1l.07.06.03-.06zm-1.44.252l-.13-.05c.02.02.05.04.07.05h.06zm-.373-10.262c-.02.02-.05.04-.08.05.01.08.01.16.02.232.03-.09.05-.19.06-.282zm-.16 8.953v.01l.01-.01zm-.333-15.628l-.04-.444c-.07-.08-.14-.15-.222-.232l-.03-.03c.02.02.03.04.03.07.1.202.18.413.262.635zm-2.94-27.15a.55.55 0 0 1 .16-.15.565.565 0 0 1 .16-.152l-.04-.383-.14-1.52c-.04.17-.07.34-.12.513 0 .01-.01.02-.01.03-.04.15-.08.302-.13.463v.01l.05.54.07.66zm-.374 2.336c-.05.08-.09.16-.13.252a.71.71 0 0 1 .14-.16c-.01-.032-.01-.062-.01-.092zm-.282.564c.05-.1.09-.19.14-.282-.06.06-.1.1-.15.16l.01.122zm-.04-2.205c.04-.05.09-.1.15-.15-.02-.122-.03-.243-.04-.363l-.12.332c-.05.1-.09.2-.14.302l.01.03c.04-.05.09-.1.14-.15zm-14.672 44.72l.01.01v-.01zm-3.524-20.23c.06-.08.13-.15.21-.21v-.01c.06-.06.132-.132.202-.182l-.08-.554-1.674-10.79a403.79 403.79 0 0 0-.772-4.94c-.09-.04-.17-.07-.262-.11-.01 0-.01-.01-.02-.01a4.16 4.16 0 0 1-.282-.143l2.618 16.565.063.372zm-3.485-17.36c-.08-.05-.17-.1-.262-.15.302 1.962.614 3.915.937 5.87.665 4.16 1.34 8.317 2.024 12.476 0 .02.01.04.01.06.04-.07.07-.13.1-.19 0-.01.01-.01.01-.01a.67.67 0 0 0 .082-.09c.07-.07.13-.14.2-.2l-.03-.19-1.912-11.93a980.858 980.858 0 0 1-.886-5.49 1.74 1.74 0 0 1-.273-.15zM3.19 15.402a5.01 5.01 0 0 0 1.12 1.047 14.46 14.46 0 0 0 2.637 1.48c.916.42 1.863.75 2.82 1.06l2.88.825.363.1v-.007l.34.093.003.015.16.03.018.006.3.08.01-.016 1.59.333.47.1.534.11c.36.07.715.14 1.067.223.614.13 1.23.26 1.863.362 1.952.34 3.925.632 5.89.884 3.01.372 6.04.633 9.062.835.08 0 .17.01.25.01.547.04 1.09.08 1.634.1.31.03.613.04.925.06l.18.02v-.01l.414.028.01.097.22.01c8.5.45 17.03.47 25.53-.083l.643-.033v.002l.098-.01.226-.01-.003-.008.303-.023c.255-.01.496-.03.748-.04.497-.04.99-.07 1.48-.09 1.06-.08 2.11-.15 3.166-.242.772-.07 1.56-.14 2.333-.222.745-.07 1.49-.15 2.246-.25.403-.04.816-.09 1.22-.15 2.062-.273 4.14-.585 6.19-.968a64.8 64.8 0 0 0 1.975-.384c.08-.02.16-.03.252-.05a65.787 65.787 0 0 0 3.05-.705l.15-.04.002-.027.67-.22 2.68-.775a20.184 20.184 0 0 0 2.646-.946c.856-.384 1.702-.817 2.487-1.35a7.96 7.96 0 0 0 1.098-.916 3.97 3.97 0 0 0 .776-1.23v-.02c.03-.13.082-.26.082-.4l.02-.04.04-.11.11-.244-.23.06-.04-.34v-.01c-.267-.853-.92-1.49-1.576-1.99-.675-.505-1.4-.917-2.145-1.3-1.49-.755-3.08-1.23-4.66-1.72l-.295-.09-.02.31c-.08.896-.2 1.823-.292 2.73l-.27 2.74c-.2 1.812-.36 3.616-.61 5.42l-.432.096 1.3-11.138.02-.14-.13-.04c-1.965-.535-3.96-.958-5.952-1.34a121.86 121.86 0 0 0-6.002-.997 172.832 172.832 0 0 0-6.052-.73c-2.013-.233-4.047-.343-6.07-.484l-.283-.02.1.355c.01.04.02.08.04.12l-.13 5.93-.07 2.98-.03 1.49-.02.748c-.01.253.01.505.02.756l-.2 5.646-.48.08.253-8.74.35-8.922v-.01c.03-.05.04-.09.06-.13l.09-.262-.23-.02c-4.56-.294-9.12-.484-13.68-.444-2.284 0-4.56.05-6.846.12l-3.414.14c-1.15.06-2.288.09-3.426.21l-.613.04-.15.01.01.15.02.184v.01L37.68 22.75l-.405.026c-.293-2.93-.55-5.86-.795-8.8l-.765-8.982-.02-.23-.213.01c-2.81.18-5.61.452-8.4.774-1.4.17-2.79.352-4.19.564l-2.074.335c-.695.12-1.4.21-2.074.393-2.365.413-4.732.886-7.06 1.52l-.17.05.03.182c.567 3.63 1.116 7.274 1.726 10.913l-.338-.074-.895-5.28c-.14-.906-.302-1.803-.433-2.71l-.384-2.69-.03-.222-.2.05c-1.48.433-2.992.896-4.402 1.56-.352.162-.705.333-1.047.525-.17.09-.35.2-.51.29l-.49.323c-.652.433-1.27.967-1.67 1.682-.11.15-.13.332-.18.393v.02c-.05.13-.05.21-.06.303a.6.6 0 0 0 0 .232l.39 1.208c.058.092.11.203.18.293zm-.24-1.69c.01-.082.02-.172.04-.202.08-.18.1-.28.16-.35l.01-.01c.374-.634.958-1.12 1.602-1.52l.483-.303c.17-.1.322-.19.493-.282.342-.18.685-.342 1.037-.503a38.908 38.908 0 0 1 4.12-1.56c.02.17.05.302.08.473l.11.675.233 1.35c.14.905.262 1.812.393 2.718l.72 5.065-2.502-.744a38.063 38.063 0 0 1-2.77-1.03 14.673 14.673 0 0 1-2.607-1.36 6.02 6.02 0 0 1-1.077-.95 2.847 2.847 0 0 1-.393-.587 1.6 1.6 0 0 1-.18-.645.944.944 0 0 0 .056-.243zm17.914-6.93l2.084-.312c1.39-.2 2.78-.37 4.17-.522 2.718-.312 5.447-.524 8.176-.725l.856 8.78c.282 2.94.564 5.892.806 8.832-.352-.03-.715-.05-1.067-.08-.53-.03-1.05-.07-1.58-.122-.15-.01-.3-.02-.454-.04-2.86-.232-5.72-.524-8.56-.906a117.164 117.164 0 0 1-5.87-.896c-.424-.07-.847-.16-1.27-.24a78.99 78.99 0 0 0-1.64-.35l-.18-.04-.364-.08-2.206-.46c-.562-3.644-1.22-7.28-1.82-10.925 2.254-.655 4.54-1.15 6.84-1.59.69-.06 1.38-.222 2.07-.313zM36.352 5.07l.483-.03c.574.01 1.138-.04 1.712-.06l1.702-.08 3.41-.11a222.72 222.72 0 0 1 6.84-.082c4.47.03 8.93.11 13.4.373v.02l-.28 8.98-.32 8.78c-8.37.416-16.76.426-25.12-.06L36.36 5.13l-.01-.06zM64.61 17.086c.02-.242.05-.493.05-.745l.02-.74.05-1.49.09-2.99.17-5.94c1.924.16 3.838.28 5.75.455 2.025.19 4.04.403 6.043.665 3.968.514 7.915 1.19 11.772 2.276l-1.42 11.058a77.47 77.47 0 0 1-3.394.745c-.03.01-.06.02-.09.02-.77.16-1.56.3-2.33.442-1.81.31-3.622.574-5.45.806-.35.04-.71.09-1.063.13-.715.09-1.43.18-2.155.26-.846.093-1.702.193-2.56.274-.816.08-1.64.15-2.47.223h-.01l-1.842.15c-.21.01-.413.03-.624.05-.21.02-.43.03-.643.05l.11-5.69zm24.378-2.94l.363-2.74c.12-.815.22-1.6.31-2.426.687.22 1.37.422 2.056.664.765.272 1.52.584 2.266.916.735.342 1.45.725 2.115 1.188.644.453 1.25 1.007 1.5 1.742l.08.463.02.14c-.04.092-.07.192-.09.293-.18.423-.423.786-.735 1.108-.324.312-.687.574-1.07.836a16.01 16.01 0 0 1-2.425 1.28c-.846.35-1.702.714-2.59.976l-2.425.785c.17-1.75.423-3.48.634-5.22z"/>
    <path class="st5" d="M98.696 14.044l-.01-.11-.1-.696v-.01c-.313-1.088-1.15-1.863-2.005-2.477-.86-.61-1.8-1.09-2.76-1.52-1.922-.84-3.936-1.45-5.96-1.98-4.06-1.052-8.2-1.74-12.336-2.28-8.3-1.067-16.666-1.5-25.024-1.54-8.36-.02-16.727.352-25.035 1.37-4.15.523-8.286 1.19-12.355 2.195-2.036.5-4.05 1.096-6.004 1.88-.966.404-1.932.837-2.82 1.41-.895.555-1.76 1.25-2.305 2.206-.17.25-.21.514-.3.725v.01l-.1.704v.02c.01.502.15.986.393 1.42v.01l.01.03L8.72 52.38c2.316 12.317 4.582 24.653 6.97 36.958v.02l-.05.322v.03c-.03.846.462 1.6 1.026 2.135.574.534 1.25.947 1.923 1.3 1.38.694 2.83 1.177 4.3 1.59 2.93.826 5.93 1.35 8.94 1.772 6.02.796 12.09 1.098 18.15 1.118 6.07-.01 12.143-.312 18.175-1.088 3.01-.403 6.012-.906 8.952-1.692 1.48-.393 2.93-.846 4.34-1.48.694-.322 1.38-.685 2.013-1.158.614-.463 1.23-1.067 1.43-1.923l.01-.01v-.292l.09-.03-.02-.18-.05-.404v-.01l.03-.13v-.03l7.06-37.472c2.266-12.507 4.57-25.004 6.767-37.53l.02-.132-.11-.02zm-14.21 75.042l-.01.02v.01l-.04.2v.1l.04.303v.01l-.08.15s.01.04.01.06l.01.09v.15c-.15.65-.665 1.2-1.25 1.63-.583.44-1.238.79-1.912 1.11-1.36.6-2.81 1.06-4.26 1.46-2.91.77-5.9 1.28-8.902 1.67-5.992.78-12.054 1.09-18.096 1.11-6.052-.02-12.114-.32-18.106-1.11-3-.4-5.982-.92-8.892-1.72-1.45-.42-2.88-.9-4.22-1.56-.664-.35-1.298-.74-1.832-1.23-.514-.5-.916-1.1-.906-1.81l.05-.33v-.1c-2.417-12.317-4.723-24.65-7.08-36.987L2.296 15.27l-.01-.05-.01-.02-.02-.02a2.804 2.804 0 0 1-.332-1.22l.09-.643c.082-.243.142-.484.253-.635l.01-.01.01-.01c.493-.876 1.31-1.54 2.185-2.074.857-.553 1.824-.976 2.77-1.37 1.933-.774 3.937-1.358 5.95-1.862 4.05-.977 8.178-1.63 12.317-2.145 8.28-.97 16.63-1.37 24.98-1.37 8.34.03 16.692.45 24.97 1.49 4.14.55 8.257 1.21 12.296 2.26 2.015.528 4.01 1.13 5.922 1.958.946.414 1.872.897 2.71 1.49.824.575 1.58 1.32 1.89 2.267l.09.533-.11.04.02.13.03.13h-.01l.01.11.18.04c-2.244 12.47-4.58 24.905-6.876 37.37l-7.13 37.43z"/>
</svg>